{
.appVersion = "3231";
.formatVersion = 3;
DisplayStrings = (
"HOHHAVHHOH
HOHHAWHHOH
HOHHAYHHOH
HOHHATHHOH


HOHHAVAHHOH
HOHHVOHHOH
HOHHVJHHOH

HOHHWAHHOH
HOHHWOHHOH
HOHHWJHHOH

HOHHYAHHOH
HOHHYOHHOH
HOHHFJHHOH

HOHHKOHHOH

HOHHLVHHOH
HOHHLWHHOH
HOHHLYHHOH
HOHHLOHHOH

HOHHFAHHOH
HOHHFOHHOH
HOHHFJHHOH

HOHHTAHHOH
HOHHTOHHOH
HOHHTJHHOH

H.H.H.F.H.H.H
H.H.H.V.H.H.H
H.H.H.W.H.H.H
H.H.H.D.H.H.H
H.H.H.P.H.H.H
H.H.H.Y.H.H.H
H.H.H.J.H.H.H
H.H.H.O.H.H.H
H.H.H.e.H.H.H
H.H.H.o.H.H.H
H.H.H.v.H.H.H

HOHHPAHHOH
HOHHPOHHOH
HOHHPJHHOH

HOHHUAHHOH
HOHHUOHHOH
HOHHUJHHOH

HOHHXOHHOH
HOHHOXHHOH

HOHHAvHHOH
HOHHvAHHOH

nonnAynnon

nonnFannon
nonnFennon
nonnFonnon

nonnKvnnon
nonnKwnnon
nonnKynnon
nonnKannon
nonnKennon
nonnKonnon

nonnkonnon
nonnkennon
nonnkannon

nonnPannon
nonnPennon
nonnPonnon

nonnTannon
nonnTennon
nonnTinnon
nonnTonnon
nonnTrnnon
nonnTsnnon
nonnTunnon
nonnTynnon

nonnVannon
nonnVonnon
nonnVrnnon
nonnVunnon
nonnVynnon
nonnVsnnon
nonnVqnnon
nonnVcnnon
nonnVmnnon
nonnVjnnon
nonnVinnon
nonnVpnnon
nonnVdnnon
nonnVgnnon
nonnVznnon
nonnVxnnon

nonnWannon
nonnWonnon
nonnWrnnon
nonnWunnon
nonnWynnon
nonnWsnnon
nonnWqnnon
nonnWcnnon
nonnWmnnon
nonnWjnnon
nonnWinnon
nonnWpnnon
nonnWdnnon
nonnWgnnon
nonnWznnon
nonnWxnnon

nonnYannon
nonnYonnon
nonnYrnnon
nonnYunnon
nonnYynnon
nonnYsnnon
nonnYqnnon
nonnYcnnon
nonnYmnnon
nonnYjnnon
nonnYinnon
nonnYpnnon
nonnYdnnon
nonnYgnnon
nonnYznnon
nonnYxnnon

nonnotnnon
nonnojnnon
nonnfonnon








-H Ta Yg AT AV AW AY Av Aw Ay 
Fa Fe Fo 
Kv Kw Ky Ka Ke Ko LO ko ka ke
LV LY PA Pa Pe Po TA
KCKOP.F.V. 
Ta Te Ti To Tr Ts Tu Ty 
UA VA Va Ve Vo Vr Vu Vy 
WA WO Wa We Wr Wv Wy 


Albert Sans








THE QUICK CDGHBROWN FOX JUMPS OVER THE LAZY DOG
the quick brown fox jumps over the lazy dog
Spacing
nanbncndnenfngnhninjnknlnmnnonpnqnrnsntnunvnwnxonynzn
HAHBHCHDHEHFHGHHIHJHKOHLHMHNHOHPHQHRHSHTHUHVHWHXHYHZH
0102030405060708090AVA

lower case//lower case
aufkauf aufhalt aufbleib
verixt auflassen 
hoe auffassen
ﬁle aufißt raufjagen fıne

glyphs = (
{
color = 10;
glyphname = A;
kernLeft = KO_A;
kernRight = KO_A;
lastChange = "2023-12-26 15:15:52 +0000";
layers = (
{
anchors = (
{
name = ogonek;
pos = (538,0);
},
{
name = top;
pos = (281,700);
}
);
color = 5;
layerId = "6E968933-CD79-43C6-9231-80D77C940F4D";
shapes = (
{
closed = 1;
nodes = (
(46,0,l),
(117,210,l),
(445,210,l),
(516,0,l),
(538,0,l),
(303,700,l),
(260,700,l),
(24,0,l)
);
},
{
closed = 1;
nodes = (
(275,680,l),
(287,680,l),
(439,230,l),
(123,230,l)
);
}
);
userData = {
com.hugojourdan.ColorFlow = {
"0" = 0;
"1" = 0;
"10" = 0;
"11" = 0;
"2" = 1;
"3" = 0;
"4" = 0;
"5" = 1;
"6" = 0;
"7" = 1;
"8" = 0;
"9" = 1;
};
com.hugojourdan.ColorFlow_Color_2 = "2";
com.hugojourdan.ColorFlow_Color_5 = "5";
com.hugojourdan.ColorFlow_Color_7 = "7";
com.hugojourdan.ColorFlow_Color_9 = "9";
};
width = 562;
},
{
anchors = (
{
name = ogonek;
pos = (570,1);
},
{
name = top;
pos = (327,700);
}
);
color = 5;
layerId = "BAF31694-0472-4296-B0EA-1654553C45D2";
shapes = (
{
closed = 1;
nodes = (
(184,0,l),
(216,140,l),
(430,140,l),
(462,0,l),
(637,0,l),
(452,700,l),
(203,700,l),
(17,0,l)
);
},
{
closed = 1;
nodes = (
(312,554,l),
(335,554,l),
(396,286,l),
(250,286,l)
);
}
);
userData = {
com.hugojourdan.ColorFlow = {
"0" = 0;
"1" = 0;
"10" = 0;
"11" = 0;
"2" = 1;
"3" = 0;
"4" = 0;
"5" = 1;
"6" = 0;
"7" = 1;
"8" = 0;
"9" = 1;
};
com.hugojourdan.ColorFlow_Color_2 = "2";
com.hugojourdan.ColorFlow_Color_5 = "5";
com.hugojourdan.ColorFlow_Color_7 = "7";
com.hugojourdan.ColorFlow_Color_9 = "9";
};
width = 654;
},
{
anchors = (
{
name = ogonek;
pos = (698,0);
},
{
name = top;
pos = (365,700);
}
);
color = 5;
layerId = m005;
shapes = (
{
closed = 1;
nodes = (
(56,0,l),
(147,210,l),
(585,210,l),
(676,0,l),
(698,0,l),
(396,700,l),
(337,700,l),
(34,0,l)
);
},
{
closed = 1;
nodes = (
(350,680,l),
(382,680,l),
(577,230,l),
(155,230,l)
);
}
);
userData = {
com.hugojourdan.ColorFlow = {
"0" = 0;
"1" = 0;
"10" = 0;
"11" = 0;
"2" = 1;
"3" = 0;
"4" = 0;
"5" = 1;
"6" = 0;
"7" = 1;
"8" = 0;
"9" = 1;
};
com.hugojourdan.ColorFlow_Color_2 = "2";
com.hugojourdan.ColorFlow_Color_5 = "5";
com.hugojourdan.ColorFlow_Color_7 = "7";
com.hugojourdan.ColorFlow_Color_9 = "9";
};
width = 731.99653;
},
{
anchors = (
{
name = ogonek;
pos = (793,0);
},
{
name = top;
pos = (404,700);
}
);
color = 5;
layerId = m008;
shapes = (
{
closed = 1;
nodes = (
(187,0,l),
(236,140,l),
(564,140,l),
(613,0,l),
(793,0,l),
(538,700,l),
(271,700,l),
(16,0,l)
);
},
{
closed = 1;
nodes = (
(383,554,l),
(418,554,l),
(512,286,l),
(288,286,l)
);
}
);
userData = {
com.hugojourdan.ColorFlow = {
"0" = 0;
"1" = 0;
"10" = 0;
"11" = 0;
"2" = 1;
"3" = 0;
"4" = 0;
"5" = 1;
"6" = 0;
"7" = 1;
"8" = 0;
"9" = 1;
};
com.hugojourdan.ColorFlow_Color_2 = "2";
com.hugojourdan.ColorFlow_Color_5 = "5";
com.hugojourdan.ColorFlow_Color_7 = "7";
com.hugojourdan.ColorFlow_Color_9 = "9";
};
width = 809;
},
{
anchors = (
{
name = ogonek;
pos = (714,0);
},
{
name = top;
pos = (368,700);
}
);
associatedMasterId = m005;
color = 5;
layerId = "35BFCCC7-0127-485D-949D-7DB403A632BB";
shapes = (
{
closed = 1;
nodes = (
(138,0,l),
(197,172,l),
(535,172,l),
(595,0,l),
(714,0,l),
(466,700,l),
(273,700,l),
(24,0,l)
);
},
{
closed = 1;
nodes = (
(348,603,l),
(384,603,l),
(501,269,l),
(231,269,l)
);
}
);
userData = {
com.hugojourdan.ColorFlow = {
"0" = 0;
"1" = 0;
"10" = 0;
"11" = 0;
"2" = 1;
"3" = 0;
"4" = 0;
"5" = 1;
"6" = 0;
"7" = 1;
"8" = 0;
"9" = 1;
};
com.hugojourdan.ColorFlow_Color_2 = "2";
com.hugojourdan.ColorFlow_Color_5 = "5";
com.hugojourdan.ColorFlow_Color_7 = "7";
com.hugojourdan.ColorFlow_Color_9 = "9";
};
width = 737.69079;
},
{
anchors = (
{
name = ogonek;
pos = (612,0);
},
{
name = top;
pos = (314,700);
}
);
associatedMasterId = m005;
color = 5;
layerId = "90AB47CF-B91A-4A16-8951-47B05D070D97";
shapes = (
{
closed = 1;
nodes = (
(128,0,l),
(176,172,l),
(447,172,l),
(496,0,l),
(613,0,l),
(405,700,l),
(224,700,l),
(16,0,l)
);
},
{
closed = 1;
nodes = (
(298,603,l),
(325,603,l),
(420,269,l),
(203,269,l)
);
}
);
userData = {
com.hugojourdan.ColorFlow = {
"0" = 0;
"1" = 0;
"10" = 0;
"11" = 0;
"2" = 1;
"3" = 0;
"4" = 0;
"5" = 1;
"6" = 0;
"7" = 1;
"8" = 0;
"9" = 1;
};
com.hugojourdan.ColorFlow_Color_2 = "2";
com.hugojourdan.ColorFlow_Color_5 = "5";
com.hugojourdan.ColorFlow_Color_7 = "7";
com.hugojourdan.ColorFlow_Color_9 = "9";
};
width = 629.06743;
},
{
anchors = (
{
name = ogonek;
pos = (627,0);
},
{
name = top;
pos = (326,700);
}
);
associatedMasterId = m005;
color = 5;
layerId = "8FA82795-75ED-4170-83DB-662671B1FD8E";
shapes = (
{
closed = 1;
nodes = (
(144,0,l),
(189,161,l),
(457,161,l),
(502,0,l),
(640,0,l),
(430,700,l),
(224,700,l),
(13,0,l)
);
},
{
closed = 1;
nodes = (
(310,586,l),
(337,586,l),
(424,275,l),
(222,275,l)
);
}
);
userData = {
com.hugojourdan.ColorFlow = {
"0" = 0;
"1" = 0;
"10" = 0;
"11" = 0;
"2" = 1;
"3" = 0;
"4" = 0;
"5" = 1;
"6" = 0;
"7" = 1;
"8" = 0;
"9" = 1;
};
com.hugojourdan.ColorFlow_Color_2 = "2";
com.hugojourdan.ColorFlow_Color_5 = "5";
com.hugojourdan.ColorFlow_Color_7 = "7";
com.hugojourdan.ColorFlow_Color_9 = "9";
};
width = 652.93408;
},
{
anchors = (
{
name = ogonek;
pos = (711,0);
},
{
name = top;
pos = (369,700);
}
);
color = 5;
layerId = "1458D1BF-5CC5-4794-B60B-1E4EBB5AAB71";
shapes = (
{
closed = 1;
nodes = (
(123,0,l),
(189,180,l),
(545,180,l),
(611,0,l),
(711,0,l),
(453,700,l),
(287,700,l),
(28,0,l)
);
},
{
closed = 1;
nodes = (
(350,619,l),
(385,619,l),
(517,261,l),
(217,261,l)
);
}
);
userData = {
com.hugojourdan.ColorFlow = {
"0" = 0;
"1" = 0;
"10" = 0;
"11" = 0;
"2" = 1;
"3" = 0;
"4" = 0;
"5" = 1;
"6" = 0;
"7" = 1;
"8" = 0;
"9" = 1;
};
com.hugojourdan.ColorFlow_Color_2 = "2";
com.hugojourdan.ColorFlow_Color_5 = "5";
com.hugojourdan.ColorFlow_Color_7 = "7";
com.hugojourdan.ColorFlow_Color_9 = "9";
};
width = 739;
},
{
anchors = (
{
name = ogonek;
pos = (552,0);
},
{
name = top;
pos = (287,700);
}
);
color = 5;
layerId = "14AD7677-08C4-410F-BB6E-8A8C56BA4A50";
shapes = (
{
closed = 1;
nodes = (
(116,0,l),
(162,180,l),
(409,180,l),
(455,0,l),
(552,0,l),
(361,700,l),
(215,700,l),
(24,0,l)
);
},
{
closed = 1;
nodes = (
(276,619,l),
(295,619,l),
(389,261,l),
(182,261,l)
);
}
);
userData = {
com.hugojourdan.ColorFlow = {
"0" = 0;
"1" = 0;
"10" = 0;
"11" = 0;
"2" = 1;
"3" = 0;
"4" = 0;
"5" = 1;
"6" = 0;
"7" = 1;
"8" = 0;
"9" = 1;
};
com.hugojourdan.ColorFlow_Color_2 = "2";
com.hugojourdan.ColorFlow_Color_5 = "5";
com.hugojourdan.ColorFlow_Color_7 = "7";
com.hugojourdan.ColorFlow_Color_9 = "9";
};
width = 576;
}
);
metricRight = "=|";
unicode = 65;
userData = {
KernOnName = A;
};
},
{
color = 10;
glyphname = AE;
kernLeft = KO_AE;
kernRight = KO_E;
lastChange = "2023-12-26 10:28:06 +0000";
layers = (
{
anchors = (
{
name = bottom;
pos = (372,0);
},
{
name = top;
pos = (372,700);
}
);
layerId = "6E968933-CD79-43C6-9231-80D77C940F4D";
shapes = (
{
closed = 1;
nodes = (
(46,0,l),
(147,210,l),
(364,210,l),
(364,0,l),
(642,0,l),
(642,20,l),
(386,20,l),
(386,350,l),
(577,350,l),
(577,370,l),
(386,370,l),
(386,680,l),
(642,680,l),
(642,700,l),
(356,700,l),
(21,0,l)
);
},
{
closed = 1;
nodes = (
(364,662,l),
(364,230,l),
(156,230,l)
);
}
);
userData = {
com.hugojourdan.ColorFlow = {
"0" = 0;
"1" = 0;
"10" = 0;
"11" = 0;
"2" = 0;
"3" = 0;
"4" = 0;
"5" = 1;
"6" = 0;
"7" = 0;
"8" = 0;
"9" = 0;
};
com.hugojourdan.ColorFlow_Color_5 = "5";
};
width = 666;
},
{
anchors = (
{
name = bottom;
pos = (461,0);
},
{
name = top;
pos = (461,700);
}
);
layerId = "BAF31694-0472-4296-B0EA-1654553C45D2";
shapes = (
{
closed = 1;
nodes = (
(197,0,l),
(243,140,l),
(372,140,l),
(372,0,l),
(709,0,l),
(709,146,l),
(546,146,l),
(546,287,l),
(629,287,l),
(629,423,l),
(546,423,l),
(546,554,l),
(709,554,l),
(709,700,l),
(258,700,l),
(17,0,l)
);
},
{
closed = 1;
nodes = (
(372,569,l),
(372,286,l),
(293,286,l)
);
}
);
userData = {
com.hugojourdan.ColorFlow = {
"0" = 0;
"1" = 0;
"10" = 0;
"11" = 0;
"2" = 0;
"3" = 0;
"4" = 0;
"5" = 1;
"6" = 0;
"7" = 0;
"8" = 0;
"9" = 0;
};
com.hugojourdan.ColorFlow_Color_5 = "5";
};
width = 738;
},
{
anchors = (
{
name = bottom;
pos = (496,0);
},
{
name = top;
pos = (496,700);
}
);
layerId = m005;
shapes = (
{
closed = 1;
nodes = (
(57,0,l),
(193,210,l),
(485,210,l),
(485,0,l),
(860,0,l),
(860,20,l),
(507,20,l),
(507,350,l),
(770,350,l),
(770,370,l),
(507,370,l),
(507,680,l),
(860,680,l),
(860,700,l),
(483,700,l),
(31,0,l)
);
},
{
closed = 1;
nodes = (
(485,662,l),
(485,230,l),
(206,230,l)
);
}
);
userData = {
com.hugojourdan.ColorFlow = {
"0" = 0;
"1" = 0;
"10" = 0;
"11" = 0;
"2" = 0;
"3" = 0;
"4" = 0;
"5" = 1;
"6" = 0;
"7" = 0;
"8" = 0;
"9" = 0;
};
com.hugojourdan.ColorFlow_Color_5 = "5";
};
width = 897;
},
{
anchors = (
{
name = bottom;
pos = (582,0);
},
{
name = top;
pos = (582,700);
}
);
layerId = m008;
shapes = (
{
closed = 1;
nodes = (
(205,0,l),
(275,140,l),
(491,140,l),
(491,0,l),
(919,0,l),
(919,146,l),
(665,146,l),
(665,287,l),
(817,287,l),
(817,423,l),
(665,423,l),
(665,554,l),
(919,554,l),
(919,700,l),
(374,700,l),
(15,0,l)
);
},
{
closed = 1;
nodes = (
(491,569,l),
(491,286,l),
(349,286,l)
);
}
);
userData = {
com.hugojourdan.ColorFlow = {
"0" = 0;
"1" = 0;
"10" = 0;
"11" = 0;
"2" = 0;
"3" = 0;
"4" = 0;
"5" = 1;
"6" = 0;
"7" = 0;
"8" = 0;
"9" = 0;
};
com.hugojourdan.ColorFlow_Color_5 = "5";
};
width = 952;
},
{
anchors = (
{
name = bottom;
pos = (538,0);
},
{
name = top;
pos = (538,700);
}
);
associatedMasterId = m005;
layerId = "35BFCCC7-0127-485D-949D-7DB403A632BB";
shapes = (
{
closed = 1;
nodes = (
(145,0,l),
(237,171,l),
(479,171,l),
(479,0,l),
(864,0,l),
(864,97,l),
(596,97,l),
(596,305,l),
(774,305,l),
(774,402,l),
(596,402,l),
(596,603,l),
(864,603,l),
(864,700,l),
(402,700,l),
(21,0,l)
);
},
{
closed = 1;
nodes = (
(479,619,l),
(479,268,l),
(290,268,l)
);
}
);
userData = {
com.hugojourdan.ColorFlow = {
"0" = 0;
"1" = 0;
"10" = 0;
"11" = 0;
"2" = 0;
"3" = 0;
"4" = 0;
"5" = 1;
"6" = 0;
"7" = 0;
"8" = 0;
"9" = 0;
};
com.hugojourdan.ColorFlow_Color_5 = "5";
};
width = 902.85455;
},
{
anchors = (
{
name = bottom;
pos = (456,0);
},
{
name = top;
pos = (456,700);
}
);
associatedMasterId = m005;
layerId = "90AB47CF-B91A-4A16-8951-47B05D070D97";
shapes = (
{
closed = 1;
nodes = (
(134,0,l),
(207,171,l),
(399,171,l),
(399,0,l),
(730,0,l),
(730,97,l),
(515,97,l),
(515,305,l),
(653,305,l),
(653,402,l),
(515,402,l),
(515,603,l),
(730,603,l),
(730,700,l),
(324,700,l),
(13,0,l)
);
},
{
closed = 1;
nodes = (
(399,619,l),
(399,268,l),
(249,268,l)
);
}
);
userData = {
com.hugojourdan.ColorFlow = {
"0" = 0;
"1" = 0;
"10" = 0;
"11" = 0;
"2" = 0;
"3" = 0;
"4" = 0;
"5" = 1;
"6" = 0;
"7" = 0;
"8" = 0;
"9" = 0;
};
com.hugojourdan.ColorFlow_Color_5 = "5";
};
width = 758.86625;
},
{
anchors = (
{
name = bottom;
pos = (471,0);
},
{
name = top;
pos = (471,700);
}
);
associatedMasterId = m005;
layerId = "8FA82795-75ED-4170-83DB-662671B1FD8E";
shapes = (
{
closed = 1;
nodes = (
(153,0,l),
(220,160,l),
(403,160,l),
(403,0,l),
(749,0,l),
(749,114,l),
(539,114,l),
(539,299,l),
(667,299,l),
(667,409,l),
(539,409,l),
(539,586,l),
(749,586,l),
(749,700,l),
(314,700,l),
(11,0,l)
);
},
{
closed = 1;
nodes = (
(403,602,l),
(403,274,l),
(268,274,l)
);
}
);
userData = {
com.hugojourdan.ColorFlow = {
"0" = 0;
"1" = 0;
"10" = 0;
"11" = 0;
"2" = 0;
"3" = 0;
"4" = 0;
"5" = 1;
"6" = 0;
"7" = 0;
"8" = 0;
"9" = 0;
};
com.hugojourdan.ColorFlow_Color_5 = "5";
};
width = 775.73267;
},
{
anchors = (
{
name = bottom;
pos = (531,0);
},
{
name = top;
pos = (531,700);
}
);
layerId = "1458D1BF-5CC5-4794-B60B-1E4EBB5AAB71";
shapes = (
{
closed = 1;
nodes = (
(129,0,l),
(230,179,l),
(482,179,l),
(482,0,l),
(864,0,l),
(864,81,l),
(579,81,l),
(579,314,l),
(774,314,l),
(774,395,l),
(579,395,l),
(579,619,l),
(864,619,l),
(864,700,l),
(420,700,l),
(25,0,l)
);
},
{
closed = 1;
nodes = (
(482,629,l),
(482,260,l),
(275,260,l)
);
}
);
userData = {
com.hugojourdan.ColorFlow = {
"0" = 0;
"1" = 0;
"10" = 0;
"11" = 0;
"2" = 0;
"3" = 0;
"4" = 0;
"5" = 1;
"6" = 0;
"7" = 0;
"8" = 0;
"9" = 0;
};
com.hugojourdan.ColorFlow_Color_5 = "5";
};
width = 904;
},
{
anchors = (
{
name = bottom;
pos = (406,0);
},
{
name = top;
pos = (406,700);
}
);
layerId = "14AD7677-08C4-410F-BB6E-8A8C56BA4A50";
shapes = (
{
closed = 1;
nodes = (
(121,0,l),
(189,179,l),
(360,179,l),
(360,0,l),
(651,0,l),
(651,81,l),
(457,81,l),
(457,314,l),
(582,314,l),
(582,395,l),
(457,395,l),
(457,619,l),
(651,619,l),
(651,700,l),
(299,700,l),
(22,0,l)
);
},
{
closed = 1;
nodes = (
(360,629,l),
(360,260,l),
(219,260,l)
);
}
);
userData = {
com.hugojourdan.ColorFlow = {
"0" = 0;
"1" = 0;
"10" = 0;
"11" = 0;
"2" = 0;
"3" = 0;
"4" = 0;
"5" = 1;
"6" = 0;
"7" = 0;
"8" = 0;
"9" = 0;
};
com.hugojourdan.ColorFlow_Color_5 = "5";
};
width = 684;
}
);
unicode = 198;
},
{
color = 10;
glyphname = B;
kernLeft = KO_H;
kernRight = KO_S;
lastChange = "2023-12-26 15:15:52 +0000";
layers = (
{
layerId = "6E968933-CD79-43C6-9231-80D77C940F4D";
shapes = (
{
closed = 1;
nodes = (
(312,0,ls),
(422,0,o),
(473,82,o),
(473,185,cs),
(473,278,o),
(425,344,o),
(365,357,c),
(365,362,l),
(415,376,o),
(461,425,o),
(461,526,cs),
(461,621,o),
(418,700,o),
(312,700,cs),
(80,700,l),
(80,0,l)
);
},
{
closed = 1;
nodes = (
(102,350,l),
(305,350,ls),
(396,350,o),
(451,286,o),
(451,185,cs),
(451,83,o),
(398,20,o),
(306,20,cs),
(102,20,l)
);
},
{
closed = 1;
nodes = (
(102,680,l),
(305,680,ls),
(400,680,o),
(439,612,o),
(439,525,cs),
(439,432,o),
(395,370,o),
(310,370,cs),
(102,370,l)
);
}
);
userData = {
com.hugojourdan.ColorFlow = {
"0" = 0;
"1" = 0;
"10" = 0;
"11" = 0;
"2" = 0;
"3" = 0;
"4" = 0;
"5" = 1;
"6" = 0;
"7" = 0;
"8" = 0;
"9" = 0;
};
com.hugojourdan.ColorFlow_Color_5 = "5";
};
width = 524;
},
{
layerId = "BAF31694-0472-4296-B0EA-1654553C45D2";
shapes = (
{
closed = 1;
nodes = (
(349,0,ls),
(460,0,o),
(518,76,o),
(518,192,cs),
(518,286,o),
(480,344,o),
(400,355,c),
(400,363,l),
(466,375,o),
(507,422,o),
(507,515,cs),
(507,627,o),
(442,700,o),
(342,700,cs),
(45,700,l),
(45,0,l)
);
},
{
closed = 1;
nodes = (
(219,288,l),
(285,288,ls),
(320,288,o),
(342,265,o),
(342,217,cs),
(342,170,o),
(320,146,o),
(286,146,cs),
(219,146,l)
);
},
{
closed = 1;
nodes = (
(219,554,l),
(274,554,ls),
(307,554,o),
(330,535,o),
(330,489,cs),
(330,444,o),
(305,424,o),
(271,424,cs),
(219,424,l)
);
}
);
userData = {
com.hugojourdan.ColorFlow = {
"0" = 0;
"1" = 0;
"10" = 0;
"11" = 0;
"2" = 0;
"3" = 0;
"4" = 0;
"5" = 1;
"6" = 0;
"7" = 0;
"8" = 0;
"9" = 0;
};
com.hugojourdan.ColorFlow_Color_5 = "5";
};
width = 544;
},
{
layerId = m005;
shapes = (
{
closed = 1;
nodes = (
(397,0,ls),
(549,0,o),
(620,82,o),
(620,185,cs),
(620,278,o),
(554,344,o),
(471,357,c),
(471,362,l),
(540,376,o),
(604,425,o),
(604,526,cs),
(604,621,o),
(544,700,o),
(397,700,cs),
(104,700,l),
(104,0,l)
);
},
{
closed = 1;
nodes = (
(126,350,l),
(395,350,ls),
(522,350,o),
(598,286,o),
(598,185,cs),
(598,83,o),
(524,20,o),
(397,20,cs),
(126,20,l)
);
},
{
closed = 1;
nodes = (
(126,680,l),
(396,680,ls),
(527,680,o),
(582,612,o),
(582,525,cs),
(582,432,o),
(520,370,o),
(402,370,cs),
(126,370,l)
);
}
);
userData = {
com.hugojourdan.ColorFlow = {
"0" = 0;
"1" = 0;
"10" = 0;
"11" = 0;
"2" = 0;
"3" = 0;
"4" = 0;
"5" = 1;
"6" = 0;
"7" = 0;
"8" = 0;
"9" = 0;
};
com.hugojourdan.ColorFlow_Color_5 = "5";
};
width = 686;
},
{
layerId = m008;
shapes = (
{
closed = 1;
nodes = (
(429,0,ls),
(578,0,o),
(660,76,o),
(660,192,cs),
(660,286,o),
(605,344,o),
(505,355,c),
(505,363,l),
(587,375,o),
(644,422,o),
(644,515,cs),
(644,627,o),
(561,700,o),
(418,700,cs),
(57,700,l),
(57,0,l)
);
},
{
closed = 1;
nodes = (
(231,288,l),
(395,288,ls),
(451,288,o),
(485,265,o),
(485,217,cs),
(485,170,o),
(453,146,o),
(397,146,cs),
(231,146,l)
);
},
{
closed = 1;
nodes = (
(231,554,l),
(383,554,ls),
(437,554,o),
(468,535,o),
(468,489,cs),
(468,444,o),
(435,424,o),
(381,424,cs),
(231,424,l)
);
}
);
userData = {
com.hugojourdan.ColorFlow = {
"0" = 0;
"1" = 0;
"10" = 0;
"11" = 0;
"2" = 0;
"3" = 0;
"4" = 0;
"5" = 1;
"6" = 0;
"7" = 0;
"8" = 0;
"9" = 0;
};
com.hugojourdan.ColorFlow_Color_5 = "5";
};
width = 689;
},
{
associatedMasterId = m005;
layerId = "35BFCCC7-0127-485D-949D-7DB403A632BB";
shapes = (
{
closed = 1;
nodes = (
(400,0,ls),
(542,0,o),
(628,80,o),
(628,187,cs),
(628,292,o),
(570,341,o),
(484,353,c),
(484,361,l),
(556,378,o),
(611,425,o),
(611,517,cs),
(611,616,o),
(534,700,o),
(387,700,cs),
(80,700,l),
(80,0,l)
);
},
{
closed = 1;
nodes = (
(196,306,l),
(385,306,ls),
(461,306,o),
(512,269,o),
(512,200,cs),
(512,132,o),
(466,97,o),
(389,97,cs),
(196,97,l)
);
},
{
closed = 1;
nodes = (
(196,603,l),
(376,603,ls),
(450,603,o),
(494,566,o),
(494,502,cs),
(494,439,o),
(449,403,o),
(376,403,cs),
(196,403,l)
);
}
);
userData = {
com.hugojourdan.ColorFlow = {
"0" = 0;
"1" = 1;
"10" = 0;
"11" = 0;
"2" = 0;
"3" = 1;
"4" = 0;
"5" = 1;
"6" = 1;
"7" = 0;
"8" = 0;
"9" = 0;
};
com.hugojourdan.ColorFlow_Color_1 = "1";
com.hugojourdan.ColorFlow_Color_3 = "3";
com.hugojourdan.ColorFlow_Color_5 = "5";
com.hugojourdan.ColorFlow_Color_6 = "6";
};
width = 673.58182;
},
{
associatedMasterId = m005;
layerId = "90AB47CF-B91A-4A16-8951-47B05D070D97";
shapes = (
{
closed = 1;
nodes = (
(349,0,ls),
(468,0,o),
(539,80,o),
(539,187,cs),
(539,292,o),
(491,341,o),
(416,353,c),
(416,361,l),
(479,378,o),
(525,425,o),
(525,517,cs),
(525,616,o),
(459,700,o),
(338,700,cs),
(68,700,l),
(68,0,l)
);
},
{
closed = 1;
nodes = (
(184,306,l),
(327,306,ls),
(385,306,o),
(423,269,o),
(423,200,cs),
(423,132,o),
(388,97,o),
(330,97,cs),
(184,97,l)
);
},
{
closed = 1;
nodes = (
(184,603,l),
(318,603,ls),
(375,603,o),
(408,566,o),
(408,502,cs),
(408,439,o),
(374,403,o),
(318,403,cs),
(184,403,l)
);
}
);
userData = {
com.hugojourdan.ColorFlow = {
"0" = 0;
"1" = 0;
"10" = 0;
"11" = 0;
"2" = 0;
"3" = 0;
"4" = 0;
"5" = 1;
"6" = 0;
"7" = 0;
"8" = 0;
"9" = 0;
};
com.hugojourdan.ColorFlow_Color_5 = "5";
};
width = 575.87542;
},
{
associatedMasterId = m005;
layerId = "8FA82795-75ED-4170-83DB-662671B1FD8E";
shapes = (
{
closed = 1;
nodes = (
(359,0,ls),
(481,0,o),
(550,79,o),
(550,189,cs),
(550,290,o),
(504,342,o),
(424,354,c),
(424,362,l),
(490,377,o),
(537,424,o),
(537,516,cs),
(537,620,o),
(469,700,o),
(349,700,cs),
(61,700,l),
(61,0,l)
);
},
{
closed = 1;
nodes = (
(197,300,l),
(328,300,ls),
(380,300,o),
(414,268,o),
(414,206,cs),
(414,145,o),
(383,114,o),
(330,114,cs),
(197,114,l)
);
},
{
closed = 1;
nodes = (
(197,586,l),
(318,586,ls),
(369,586,o),
(400,555,o),
(400,498,cs),
(400,441,o),
(368,410,o),
(317,410,cs),
(197,410,l)
);
}
);
userData = {
com.hugojourdan.ColorFlow = {
"0" = 0;
"1" = 0;
"10" = 0;
"11" = 0;
"2" = 0;
"3" = 0;
"4" = 0;
"5" = 1;
"6" = 0;
"7" = 0;
"8" = 0;
"9" = 0;
};
com.hugojourdan.ColorFlow_Color_5 = "5";
};
width = 582.51588;
},
{
layerId = "1458D1BF-5CC5-4794-B60B-1E4EBB5AAB71";
shapes = (
{
closed = 1;
nodes = (
(398,0,ls),
(541,0,o),
(625,80,o),
(625,187,cs),
(625,289,o),
(565,342,o),
(480,354,c),
(480,361,l),
(551,378,o),
(608,425,o),
(608,519,cs),
(608,617,o),
(534,700,o),
(387,700,cs),
(84,700,l),
(84,0,l)
);
},
{
closed = 1;
nodes = (
(181,315,l),
(386,315,ls),
(471,315,o),
(528,272,o),
(528,196,cs),
(528,122,o),
(476,81,o),
(389,81,cs),
(181,81,l)
);
},
{
closed = 1;
nodes = (
(181,619,l),
(379,619,ls),
(463,619,o),
(510,575,o),
(510,507,cs),
(510,438,o),
(462,396,o),
(380,396,cs),
(181,396,l)
);
}
);
userData = {
com.hugojourdan.ColorFlow = {
"0" = 0;
"1" = 0;
"10" = 0;
"11" = 0;
"2" = 0;
"3" = 0;
"4" = 0;
"5" = 1;
"6" = 0;
"7" = 0;
"8" = 0;
"9" = 0;
};
com.hugojourdan.ColorFlow_Color_5 = "5";
};
width = 674;
},
{
layerId = "14AD7677-08C4-410F-BB6E-8A8C56BA4A50";
shapes = (
{
closed = 1;
nodes = (
(316,0,ls),
(422,0,o),
(481,80,o),
(481,187,cs),
(481,289,o),
(438,342,o),
(373,354,c),
(373,361,l),
(428,378,o),
(469,425,o),
(469,519,cs),
(469,617,o),
(413,700,o),
(309,700,cs),
(68,700,l),
(68,0,l)
);
},
{
closed = 1;
nodes = (
(165,315,l),
(295,315,ls),
(349,315,o),
(384,272,o),
(384,196,cs),
(384,122,o),
(352,81,o),
(297,81,cs),
(165,81,l)
);
},
{
closed = 1;
nodes = (
(165,619,l),
(288,619,ls),
(342,619,o),
(372,575,o),
(372,507,cs),
(372,438,o),
(341,396,o),
(289,396,cs),
(165,396,l)
);
}
);
userData = {
com.hugojourdan.ColorFlow = {
"0" = 0;
"1" = 0;
"10" = 0;
"11" = 0;
"2" = 0;
"3" = 0;
"4" = 0;
"5" = 1;
"6" = 0;
"7" = 0;
"8" = 0;
"9" = 0;
};
com.hugojourdan.ColorFlow_Color_5 = "5";
};
width = 523;
}
);
unicode = 66;
userData = {
KernOnName = B;
};
},
{
color = 10;
glyphname = C;
kernLeft = KO_O;
kernRight = KO_C;
lastChange = "2023-12-26 15:15:52 +0000";
layers = (
{
anchors = (
{
name = bottom;
pos = (290,0);
},
{
name = euroanchor;
pos = (136,350);
},
{
name = top;
pos = (290,700);
}
);
color = 5;
layerId = "6E968933-CD79-43C6-9231-80D77C940F4D";
shapes = (
{
closed = 1;
nodes = (
(439,-7,o),
(492,76,o),
(522,204,c),
(502,209,l),
(474,98,o),
(426,13,o),
(290,13,cs),
(143,13,o),
(75,121,o),
(75,350,cs),
(75,581,o),
(142,687,o),
(290,687,cs),
(425,687,o),
(469,609,o),
(499,500,c),
(518,506,l),
(488,628,o),
(435,707,o),
(290,707,cs),
(123,707,o),
(53,581,o),
(53,350,cs),
(53,121,o),
(123,-7,o),
(290,-7,cs)
);
}
);
userData = {
com.hugojourdan.ColorFlow = {
"0" = 0;
"1" = 0;
"10" = 0;
"11" = 0;
"2" = 1;
"3" = 0;
"4" = 0;
"5" = 1;
"6" = 0;
"7" = 1;
"8" = 0;
"9" = 1;
};
com.hugojourdan.ColorFlow_Color_2 = "2";
com.hugojourdan.ColorFlow_Color_5 = "5";
com.hugojourdan.ColorFlow_Color_7 = "7";
com.hugojourdan.ColorFlow_Color_9 = "9";
};
width = 558;
},
{
anchors = (
{
name = bottom;
pos = (280,0);
},
{
name = euroanchor;
pos = (114,350);
},
{
name = top;
pos = (280,700);
}
);
color = 5;
layerId = "BAF31694-0472-4296-B0EA-1654553C45D2";
shapes = (
{
closed = 1;
nodes = (
(430,-7,o),
(508,89,o),
(524,255,c),
(379,264,l),
(364,172,o),
(330,139,o),
(284,139,cs),
(225,139,o),
(201,208,o),
(201,350,cs),
(201,490,o),
(225,561,o),
(284,561,cs),
(329,561,o),
(363,528,o),
(372,450,c),
(523,461,l),
(505,613,o),
(427,707,o),
(280,707,cs),
(113,707,o),
(27,579,o),
(27,350,cs),
(27,119,o),
(113,-7,o),
(280,-7,cs)
);
}
);
userData = {
com.hugojourdan.ColorFlow = {
"0" = 0;
"1" = 0;
"10" = 0;
"11" = 0;
"2" = 1;
"3" = 0;
"4" = 0;
"5" = 1;
"6" = 0;
"7" = 1;
"8" = 0;
"9" = 1;
};
com.hugojourdan.ColorFlow_Color_2 = "2";
com.hugojourdan.ColorFlow_Color_5 = "5";
com.hugojourdan.ColorFlow_Color_7 = "7";
com.hugojourdan.ColorFlow_Color_9 = "9";
};
width = 546;
},
{
anchors = (
{
name = bottom;
pos = (391,0);
},
{
name = euroanchor;
pos = (214,350);
},
{
name = top;
pos = (391,700);
}
);
color = 5;
layerId = m005;
shapes = (
{
closed = 1;
nodes = (
(559,-7,o),
(658,77,o),
(706,204,c),
(687,209,l),
(646,97,o),
(548,13,o),
(391,13,cs),
(222,13,o),
(84,141,o),
(84,350,cs),
(84,561,o),
(222,687,o),
(391,687,cs),
(546,687,o),
(640,609,o),
(683,500,c),
(702,505,l),
(652,627,o),
(555,707,o),
(391,707,cs),
(200,707,o),
(62,561,o),
(62,350,cs),
(62,141,o),
(200,-7,o),
(391,-7,cs)
);
}
);
userData = {
com.hugojourdan.ColorFlow = {
"0" = 0;
"1" = 0;
"10" = 0;
"11" = 0;
"2" = 1;
"3" = 0;
"4" = 0;
"5" = 1;
"6" = 0;
"7" = 1;
"8" = 0;
"9" = 1;
};
com.hugojourdan.ColorFlow_Color_2 = "2";
com.hugojourdan.ColorFlow_Color_5 = "5";
com.hugojourdan.ColorFlow_Color_7 = "7";
com.hugojourdan.ColorFlow_Color_9 = "9";
};
width = 755;
},
{
anchors = (
{
name = bottom;
pos = (380,0);
},
{
name = euroanchor;
pos = (164,350);
},
{
name = top;
pos = (381,700);
}
);
color = 5;
layerId = m008;
shapes = (
{
closed = 1;
nodes = (
(555,-7,o),
(676,86,o),
(713,249,c),
(563,265,l),
(531,173,o),
(461,139,o),
(380,139,cs),
(269,139,o),
(202,228,o),
(202,350,cs),
(202,470,o),
(269,561,o),
(380,561,cs),
(460,561,o),
(525,527,o),
(554,448,c),
(708,466,l),
(672,615,o),
(551,707,o),
(380,707,cs),
(172,707,o),
(28,559,o),
(28,350,cs),
(28,139,o),
(172,-7,o),
(380,-7,cs)
);
}
);
userData = {
com.hugojourdan.ColorFlow = {
"0" = 0;
"1" = 0;
"10" = 0;
"11" = 0;
"2" = 1;
"3" = 0;
"4" = 0;
"5" = 1;
"6" = 0;
"7" = 1;
"8" = 0;
"9" = 1;
};
com.hugojourdan.ColorFlow_Color_2 = "2";
com.hugojourdan.ColorFlow_Color_5 = "5";
com.hugojourdan.ColorFlow_Color_7 = "7";
com.hugojourdan.ColorFlow_Color_9 = "9";
};
width = 735;
},
{
anchors = (
{
name = bottom;
pos = (397,1);
},
{
name = euroanchor;
pos = (178,350);
},
{
name = top;
pos = (399,700);
}
);
associatedMasterId = m005;
color = 5;
layerId = "35BFCCC7-0127-485D-949D-7DB403A632BB";
shapes = (
{
closed = 1;
nodes = (
(538,-7,o),
(648,59,o),
(710,203,c),
(616,234,l),
(564,126,o),
(480,92,o),
(400,92,cs),
(263,92,o),
(161,194,o),
(161,350,cs),
(161,507,o),
(263,608,o),
(400,608,cs),
(478,608,o),
(560,573,o),
(607,485,c),
(701,518,l),
(643,640,o),
(534,707,o),
(397,707,cs),
(201,707,o),
(42,560,o),
(42,350,cs),
(42,141,o),
(201,-7,o),
(397,-7,cs)
);
}
);
userData = {
com.hugojourdan.ColorFlow = {
"0" = 0;
"1" = 0;
"10" = 0;
"11" = 0;
"2" = 1;
"3" = 0;
"4" = 0;
"5" = 1;
"6" = 0;
"7" = 1;
"8" = 0;
"9" = 1;
};
com.hugojourdan.ColorFlow_Color_2 = "2";
com.hugojourdan.ColorFlow_Color_5 = "5";
com.hugojourdan.ColorFlow_Color_7 = "7";
com.hugojourdan.ColorFlow_Color_9 = "9";
};
width = 739.56364;
},
{
anchors = (
{
name = bottom;
pos = (331,0);
},
{
name = euroanchor;
pos = (146,350);
},
{
name = top;
pos = (332,700);
}
);
associatedMasterId = m005;
color = 5;
layerId = "90AB47CF-B91A-4A16-8951-47B05D070D97";
shapes = (
{
closed = 1;
nodes = (
(464,-7,o),
(550,59,o),
(597,203,c),
(504,234,l),
(467,126,o),
(403,92,o),
(333,92,cs),
(214,92,o),
(155,182,o),
(155,350,cs),
(155,519,o),
(214,608,o),
(333,608,cs),
(402,608,o),
(463,573,o),
(497,485,c),
(591,518,l),
(546,640,o),
(460,707,o),
(331,707,cs),
(147,707,o),
(36,572,o),
(36,350,cs),
(36,129,o),
(147,-7,o),
(331,-7,cs)
);
}
);
userData = {
com.hugojourdan.ColorFlow = {
"0" = 0;
"1" = 0;
"10" = 0;
"11" = 0;
"2" = 1;
"3" = 0;
"4" = 0;
"5" = 1;
"6" = 0;
"7" = 1;
"8" = 0;
"9" = 1;
};
com.hugojourdan.ColorFlow_Color_2 = "2";
com.hugojourdan.ColorFlow_Color_5 = "5";
com.hugojourdan.ColorFlow_Color_7 = "7";
com.hugojourdan.ColorFlow_Color_9 = "9";
};
width = 618.91683;
},
{
anchors = (
{
name = bottom;
pos = (326,0);
},
{
name = euroanchor;
pos = (140,350);
},
{
name = top;
pos = (326,700);
}
);
associatedMasterId = m005;
color = 5;
layerId = "8FA82795-75ED-4170-83DB-662671B1FD8E";
shapes = (
{
closed = 1;
nodes = (
(464,-7,o),
(553,65,o),
(595,211,c),
(485,242,l),
(452,141,o),
(394,108,o),
(328,108,cs),
(221,108,o),
(169,194,o),
(169,350,cs),
(169,506,o),
(221,592,o),
(328,592,cs),
(393,592,o),
(448,558,o),
(477,475,c),
(590,508,l),
(549,635,o),
(461,707,o),
(326,707,cs),
(141,707,o),
(32,572,o),
(32,350,cs),
(32,128,o),
(141,-7,o),
(326,-7,cs)
);
}
);
userData = {
com.hugojourdan.ColorFlow = {
"0" = 0;
"1" = 0;
"10" = 0;
"11" = 0;
"2" = 1;
"3" = 0;
"4" = 0;
"5" = 1;
"6" = 0;
"7" = 1;
"8" = 0;
"9" = 1;
};
com.hugojourdan.ColorFlow_Color_2 = "2";
com.hugojourdan.ColorFlow_Color_5 = "5";
com.hugojourdan.ColorFlow_Color_7 = "7";
com.hugojourdan.ColorFlow_Color_9 = "9";
};
width = 614.28751;
},
{
anchors = (
{
name = bottom;
pos = (398,1);
},
{
name = euroanchor;
pos = (186,350);
},
{
name = top;
pos = (399,700);
}
);
color = 5;
layerId = "1458D1BF-5CC5-4794-B60B-1E4EBB5AAB71";
shapes = (
{
closed = 1;
nodes = (
(544,-7,o),
(653,63,o),
(712,207,c),
(633,230,l),
(583,119,o),
(494,76,o),
(400,76,cs),
(256,76,o),
(146,183,o),
(146,350,cs),
(146,518,o),
(256,624,o),
(400,624,cs),
(493,624,o),
(578,580,o),
(625,487,c),
(704,512,l),
(648,637,o),
(540,707,o),
(398,707,cs),
(203,707,o),
(47,560,o),
(47,350,cs),
(47,141,o),
(203,-7,o),
(398,-7,cs)
);
}
);
userData = {
com.hugojourdan.ColorFlow = {
"0" = 0;
"1" = 0;
"10" = 0;
"11" = 0;
"2" = 1;
"3" = 0;
"4" = 0;
"5" = 1;
"6" = 0;
"7" = 1;
"8" = 0;
"9" = 1;
};
com.hugojourdan.ColorFlow_Color_2 = "2";
com.hugojourdan.ColorFlow_Color_5 = "5";
com.hugojourdan.ColorFlow_Color_7 = "7";
com.hugojourdan.ColorFlow_Color_9 = "9";
};
width = 747;
},
{
anchors = (
{
name = bottom;
pos = (295,0);
},
{
name = euroanchor;
pos = (133,350);
},
{
name = top;
pos = (295,700);
}
);
color = 5;
layerId = "14AD7677-08C4-410F-BB6E-8A8C56BA4A50";
shapes = (
{
closed = 1;
nodes = (
(429,-7,o),
(497,66,o),
(532,217,c),
(452,233,l),
(425,120,o),
(375,76,o),
(295,76,cs),
(179,76,o),
(142,163,o),
(142,350,cs),
(142,538,o),
(179,624,o),
(295,624,cs),
(373,624,o),
(421,579,o),
(448,484,c),
(527,502,l),
(494,633,o),
(426,707,o),
(295,707,cs),
(120,707,o),
(43,580,o),
(43,350,cs),
(43,121,o),
(120,-7,o),
(295,-7,cs)
);
}
);
userData = {
com.hugojourdan.ColorFlow = {
"0" = 0;
"1" = 0;
"10" = 0;
"11" = 0;
"2" = 1;
"3" = 0;
"4" = 0;
"5" = 1;
"6" = 0;
"7" = 1;
"8" = 0;
"9" = 1;
};
com.hugojourdan.ColorFlow_Color_2 = "2";
com.hugojourdan.ColorFlow_Color_5 = "5";
com.hugojourdan.ColorFlow_Color_7 = "7";
com.hugojourdan.ColorFlow_Color_9 = "9";
};
width = 562;
}
);
unicode = 67;
userData = {
KernOnName = C;
};
},
{
color = 10;
glyphname = D;
kernLeft = KO_H;
kernRight = KO_O;
lastChange = "2023-12-26 10:28:06 +0000";
layers = (
{
anchors = (
{
name = center;
pos = (102,350);
},
{
name = top;
pos = (243,700);
}
);
layerId = "6E968933-CD79-43C6-9231-80D77C940F4D";
shapes = (
{
closed = 1;
nodes = (
(228,0,ls),
(424,0,o),
(495,109,o),
(495,350,cs),
(495,591,o),
(424,700,o),
(228,700,cs),
(80,700,l),
(80,0,l)
);
},
{
closed = 1;
nodes = (
(102,680,l),
(228,680,ls),
(414,680,o),
(474,574,o),
(474,350,cs),
(474,126,o),
(414,20,o),
(228,20,cs),
(102,20,l)
);
}
);
userData = {
com.hugojourdan.ColorFlow = {
"0" = 0;
"1" = 0;
"10" = 0;
"11" = 0;
"2" = 0;
"3" = 0;
"4" = 0;
"5" = 1;
"6" = 0;
"7" = 0;
"8" = 0;
"9" = 0;
};
com.hugojourdan.ColorFlow_Color_5 = "5";
};
width = 547;
},
{
anchors = (
{
name = center;
pos = (156,350);
},
{
name = top;
pos = (265,700);
}
);
layerId = "BAF31694-0472-4296-B0EA-1654553C45D2";
shapes = (
{
closed = 1;
nodes = (
(277,0,ls),
(458,0,o),
(542,124,o),
(542,350,cs),
(542,578,o),
(458,700,o),
(277,700,cs),
(45,700,l),
(45,0,l)
);
},
{
closed = 1;
nodes = (
(219,554,l),
(263,554,ls),
(348,554,o),
(365,496,o),
(365,350,cs),
(365,204,o),
(348,146,o),
(263,146,cs),
(219,146,l)
);
}
);
userData = {
com.hugojourdan.ColorFlow = {
"0" = 0;
"1" = 0;
"10" = 0;
"11" = 0;
"2" = 0;
"3" = 0;
"4" = 0;
"5" = 1;
"6" = 0;
"7" = 0;
"8" = 0;
"9" = 0;
};
com.hugojourdan.ColorFlow_Color_5 = "5";
};
width = 569;
},
{
anchors = (
{
name = center;
pos = (126,350);
},
{
name = top;
pos = (330,700);
}
);
layerId = m005;
shapes = (
{
closed = 1;
nodes = (
(309,0,ls),
(554,0,o),
(681,129,o),
(681,350,cs),
(681,571,o),
(554,700,o),
(309,700,cs),
(104,700,l),
(104,0,l)
);
},
{
closed = 1;
nodes = (
(126,680,l),
(309,680,ls),
(544,680,o),
(659,554,o),
(659,350,cs),
(659,146,o),
(544,20,o),
(309,20,cs),
(126,20,l)
);
}
);
userData = {
com.hugojourdan.ColorFlow = {
"0" = 0;
"1" = 0;
"10" = 0;
"11" = 0;
"2" = 0;
"3" = 0;
"4" = 0;
"5" = 1;
"6" = 0;
"7" = 0;
"8" = 0;
"9" = 0;
};
com.hugojourdan.ColorFlow_Color_5 = "5";
};
width = 744;
},
{
anchors = (
{
name = center;
pos = (201,350);
},
{
name = top;
pos = (344,700);
}
);
layerId = m008;
shapes = (
{
closed = 1;
nodes = (
(343,0,ls),
(568,0,o),
(712,144,o),
(712,350,cs),
(712,558,o),
(568,700,o),
(343,700,cs),
(57,700,l),
(57,0,l)
);
},
{
closed = 1;
nodes = (
(231,554,l),
(332,554,ls),
(458,554,o),
(535,476,o),
(535,350,cs),
(535,224,o),
(458,146,o),
(332,146,cs),
(231,146,l)
);
}
);
userData = {
com.hugojourdan.ColorFlow = {
"0" = 0;
"1" = 0;
"10" = 0;
"11" = 0;
"2" = 0;
"3" = 0;
"4" = 0;
"5" = 1;
"6" = 0;
"7" = 0;
"8" = 0;
"9" = 0;
};
com.hugojourdan.ColorFlow_Color_5 = "5";
};
width = 740;
},
{
anchors = (
{
name = center;
pos = (195,350);
},
{
name = top;
pos = (351,700);
}
);
associatedMasterId = m005;
layerId = "35BFCCC7-0127-485D-949D-7DB403A632BB";
shapes = (
{
closed = 1;
nodes = (
(329,0,ls),
(552,0,o),
(698,135,o),
(698,350,cs),
(698,566,o),
(552,700,o),
(329,700,cs),
(80,700,l),
(80,0,l)
);
},
{
closed = 1;
nodes = (
(196,603,l),
(328,603,ls),
(491,603,o),
(579,509,o),
(579,350,cs),
(579,192,o),
(491,97,o),
(328,97,cs),
(196,97,l)
);
}
);
userData = {
com.hugojourdan.ColorFlow = {
"0" = 0;
"1" = 0;
"10" = 0;
"11" = 0;
"2" = 0;
"3" = 0;
"4" = 0;
"5" = 1;
"6" = 0;
"7" = 0;
"8" = 0;
"9" = 0;
};
com.hugojourdan.ColorFlow_Color_5 = "5";
};
width = 740.96364;
},
{
anchors = (
{
name = center;
pos = (182,350);
},
{
name = top;
pos = (298,700);
}
);
associatedMasterId = m005;
layerId = "90AB47CF-B91A-4A16-8951-47B05D070D97";
shapes = (
{
closed = 1;
nodes = (
(285,0,ls),
(483,0,o),
(592,123,o),
(592,350,cs),
(592,578,o),
(483,700,o),
(285,700,cs),
(68,700,l),
(68,0,l)
);
},
{
closed = 1;
nodes = (
(184,603,l),
(282,603,ls),
(413,603,o),
(474,521,o),
(474,350,cs),
(474,180,o),
(413,97,o),
(282,97,cs),
(184,97,l)
);
}
);
userData = {
com.hugojourdan.ColorFlow = {
"0" = 0;
"1" = 0;
"10" = 0;
"11" = 0;
"2" = 0;
"3" = 0;
"4" = 0;
"5" = 1;
"6" = 0;
"7" = 0;
"8" = 0;
"9" = 0;
};
com.hugojourdan.ColorFlow_Color_5 = "5";
};
width = 628.24554;
},
{
anchors = (
{
name = center;
pos = (180,350);
},
{
name = top;
pos = (297,700);
}
);
associatedMasterId = m005;
layerId = "8FA82795-75ED-4170-83DB-662671B1FD8E";
shapes = (
{
closed = 1;
nodes = (
(291,0,ls),
(489,0,o),
(598,126,o),
(598,350,cs),
(598,575,o),
(489,700,o),
(291,700,cs),
(61,700,l),
(61,0,l)
);
},
{
closed = 1;
nodes = (
(197,586,l),
(284,586,ls),
(405,586,o),
(459,510,o),
(459,350,cs),
(459,191,o),
(405,114,o),
(284,114,cs),
(197,114,l)
);
}
);
userData = {
com.hugojourdan.ColorFlow = {
"0" = 0;
"1" = 0;
"10" = 0;
"11" = 0;
"2" = 0;
"3" = 0;
"4" = 0;
"5" = 1;
"6" = 0;
"7" = 0;
"8" = 0;
"9" = 0;
};
com.hugojourdan.ColorFlow_Color_5 = "5";
};
width = 629.14685;
},
{
anchors = (
{
name = center;
pos = (181,350);
},
{
name = top;
pos = (346,700);
}
);
layerId = "1458D1BF-5CC5-4794-B60B-1E4EBB5AAB71";
shapes = (
{
closed = 1;
nodes = (
(324,0,ls),
(551,0,o),
(693,134,o),
(693,350,cs),
(693,567,o),
(551,700,o),
(324,700,cs),
(84,700,l),
(84,0,l)
);
},
{
closed = 1;
nodes = (
(181,619,l),
(324,619,ls),
(501,619,o),
(594,518,o),
(594,350,cs),
(594,183,o),
(501,81,o),
(324,81,cs),
(181,81,l)
);
}
);
userData = {
com.hugojourdan.ColorFlow = {
"0" = 0;
"1" = 0;
"10" = 0;
"11" = 0;
"2" = 0;
"3" = 0;
"4" = 0;
"5" = 1;
"6" = 0;
"7" = 0;
"8" = 0;
"9" = 0;
};
com.hugojourdan.ColorFlow_Color_5 = "5";
};
width = 741;
},
{
anchors = (
{
name = center;
pos = (164,350);
},
{
name = top;
pos = (263,700);
}
);
layerId = "14AD7677-08C4-410F-BB6E-8A8C56BA4A50";
shapes = (
{
closed = 1;
nodes = (
(254,0,ls),
(437,0,o),
(520,114,o),
(520,350,cs),
(520,587,o),
(437,700,o),
(254,700,cs),
(68,700,l),
(68,0,l)
);
},
{
closed = 1;
nodes = (
(165,619,l),
(250,619,ls),
(374,619,o),
(421,538,o),
(421,350,cs),
(421,163,o),
(374,81,o),
(250,81,cs),
(165,81,l)
);
}
);
userData = {
com.hugojourdan.ColorFlow = {
"0" = 0;
"1" = 0;
"10" = 0;
"11" = 0;
"2" = 0;
"3" = 0;
"4" = 0;
"5" = 1;
"6" = 0;
"7" = 0;
"8" = 0;
"9" = 0;
};
com.hugojourdan.ColorFlow_Color_5 = "5";
};
width = 563;
}
);
unicode = 68;
},
{
color = 10;
glyphname = E;
kernLeft = KO_H;
kernRight = KO_E;
lastChange = "2023-12-26 15:15:52 +0000";
layers = (
{
anchors = (
{
name = "#entry";
pos = (80,350);
},
{
name = bottom;
pos = (215,0);
},
{
name = ogonek;
pos = (356,0);
},
{
name = top;
pos = (236,700);
}
);
layerId = "6E968933-CD79-43C6-9231-80D77C940F4D";
shapes = (
{
closed = 1;
nodes = (
(422,0,l),
(422,20,l),
(102,20,l),
(102,350,l),
(348,350,l),
(348,370,l),
(102,370,l),
(102,680,l),
(422,680,l),
(422,700,l),
(80,700,l),
(80,0,l)
);
}
);
userData = {
com.hugojourdan.ColorFlow = {
"0" = 0;
"1" = 0;
"10" = 0;
"11" = 0;
"2" = 0;
"3" = 0;
"4" = 0;
"5" = 1;
"6" = 0;
"7" = 0;
"8" = 0;
"9" = 0;
};
com.hugojourdan.ColorFlow_Color_5 = "5";
};
width = 446;
},
{
anchors = (
{
name = "#entry";
pos = (45,350);
},
{
name = bottom;
pos = (245,1);
},
{
name = ogonek;
pos = (420,1);
},
{
name = top;
pos = (243,700);
}
);
layerId = "BAF31694-0472-4296-B0EA-1654553C45D2";
shapes = (
{
closed = 1;
nodes = (
(456,0,l),
(456,146,l),
(219,146,l),
(219,287,l),
(393,287,l),
(393,423,l),
(219,423,l),
(219,554,l),
(456,554,l),
(456,700,l),
(45,700,l),
(45,0,l)
);
}
);
userData = {
com.hugojourdan.ColorFlow = {
"0" = 0;
"1" = 0;
"10" = 0;
"11" = 0;
"2" = 0;
"3" = 0;
"4" = 0;
"5" = 1;
"6" = 0;
"7" = 0;
"8" = 0;
"9" = 0;
};
com.hugojourdan.ColorFlow_Color_5 = "5";
};
width = 485;
},
{
anchors = (
{
name = "#entry";
pos = (104,350);
},
{
name = bottom;
pos = (292,0);
},
{
name = ogonek;
pos = (488,0);
},
{
name = top;
pos = (321,700);
}
);
layerId = m005;
shapes = (
{
closed = 1;
nodes = (
(558,0,l),
(558,20,l),
(126,20,l),
(126,350,l),
(455,350,l),
(455,370,l),
(126,370,l),
(126,680,l),
(558,680,l),
(558,700,l),
(104,700,l),
(104,0,l)
);
}
);
userData = {
com.hugojourdan.ColorFlow = {
"0" = 0;
"1" = 0;
"10" = 0;
"11" = 0;
"2" = 0;
"3" = 0;
"4" = 0;
"5" = 1;
"6" = 0;
"7" = 0;
"8" = 0;
"9" = 0;
};
com.hugojourdan.ColorFlow_Color_5 = "5";
};
width = 595;
},
{
anchors = (
{
name = "#entry";
pos = (57,350);
},
{
name = bottom;
pos = (310,1);
},
{
name = ogonek;
pos = (532,1);
},
{
name = top;
pos = (314,700);
}
);
layerId = m008;
shapes = (
{
closed = 1;
nodes = (
(582,0,l),
(582,146,l),
(231,146,l),
(231,287,l),
(493,287,l),
(493,423,l),
(231,423,l),
(231,554,l),
(582,554,l),
(582,700,l),
(57,700,l),
(57,0,l)
);
}
);
userData = {
com.hugojourdan.ColorFlow = {
"0" = 0;
"1" = 0;
"10" = 0;
"11" = 0;
"2" = 0;
"3" = 0;
"4" = 0;
"5" = 1;
"6" = 0;
"7" = 0;
"8" = 0;
"9" = 0;
};
com.hugojourdan.ColorFlow_Color_5 = "5";
};
width = 615;
},
{
anchors = (
{
name = "#entry";
pos = (80,350);
},
{
name = bottom;
pos = (308,0);
},
{
name = ogonek;
pos = (506,0);
},
{
name = top;
pos = (318,700);
}
);
associatedMasterId = m005;
layerId = "35BFCCC7-0127-485D-949D-7DB403A632BB";
shapes = (
{
closed = 1;
nodes = (
(556,0,l),
(556,97,l),
(196,97,l),
(196,306,l),
(466,306,l),
(466,403,l),
(196,403,l),
(196,603,l),
(556,603,l),
(556,700,l),
(80,700,l),
(80,0,l)
);
}
);
userData = {
com.hugojourdan.ColorFlow = {
"0" = 0;
"1" = 0;
"10" = 0;
"11" = 0;
"2" = 0;
"3" = 0;
"4" = 0;
"5" = 1;
"6" = 0;
"7" = 0;
"8" = 0;
"9" = 0;
};
com.hugojourdan.ColorFlow_Color_5 = "5";
};
width = 594.76364;
},
{
anchors = (
{
name = "#entry";
pos = (68,350);
},
{
name = bottom;
pos = (264,0);
},
{
name = ogonek;
pos = (435,0);
},
{
name = top;
pos = (271,700);
}
);
associatedMasterId = m005;
layerId = "90AB47CF-B91A-4A16-8951-47B05D070D97";
shapes = (
{
closed = 1;
nodes = (
(477,0,l),
(477,97,l),
(184,97,l),
(184,306,l),
(402,306,l),
(402,403,l),
(184,403,l),
(184,603,l),
(477,603,l),
(477,700,l),
(68,700,l),
(68,0,l)
);
}
);
userData = {
com.hugojourdan.ColorFlow = {
"0" = 0;
"1" = 0;
"10" = 0;
"11" = 0;
"2" = 0;
"3" = 0;
"4" = 0;
"5" = 1;
"6" = 0;
"7" = 0;
"8" = 0;
"9" = 0;
};
com.hugojourdan.ColorFlow_Color_5 = "5";
};
width = 505.44554;
},
{
anchors = (
{
name = "#entry";
pos = (61,350);
},
{
name = bottom;
pos = (266,0);
},
{
name = ogonek;
pos = (445,0);
},
{
name = top;
pos = (271,700);
}
);
associatedMasterId = m005;
layerId = "8FA82795-75ED-4170-83DB-662671B1FD8E";
shapes = (
{
closed = 1;
nodes = (
(486,0,l),
(486,114,l),
(197,114,l),
(197,300,l),
(412,300,l),
(412,410,l),
(197,410,l),
(197,586,l),
(486,586,l),
(486,700,l),
(61,700,l),
(61,0,l)
);
}
);
userData = {
com.hugojourdan.ColorFlow = {
"0" = 0;
"1" = 0;
"10" = 0;
"11" = 0;
"2" = 0;
"3" = 0;
"4" = 0;
"5" = 1;
"6" = 0;
"7" = 0;
"8" = 0;
"9" = 0;
};
com.hugojourdan.ColorFlow_Color_5 = "5";
};
width = 513.54685;
},
{
anchors = (
{
name = "#entry";
pos = (84,350);
},
{
name = bottom;
pos = (304,0);
},
{
name = ogonek;
pos = (501,0);
},
{
name = top;
pos = (318,700);
}
);
layerId = "1458D1BF-5CC5-4794-B60B-1E4EBB5AAB71";
shapes = (
{
closed = 1;
nodes = (
(555,0,l),
(555,81,l),
(181,81,l),
(181,315,l),
(462,315,l),
(462,396,l),
(181,396,l),
(181,619,l),
(555,619,l),
(555,700,l),
(84,700,l),
(84,0,l)
);
}
);
userData = {
com.hugojourdan.ColorFlow = {
"0" = 0;
"1" = 0;
"10" = 0;
"11" = 0;
"2" = 0;
"3" = 0;
"4" = 0;
"5" = 1;
"6" = 0;
"7" = 0;
"8" = 0;
"9" = 0;
};
com.hugojourdan.ColorFlow_Color_5 = "5";
};
width = 595;
},
{
anchors = (
{
name = "#entry";
pos = (68,350);
},
{
name = bottom;
pos = (235,0);
},
{
name = ogonek;
pos = (385,0);
},
{
name = top;
pos = (243,700);
}
);
layerId = "14AD7677-08C4-410F-BB6E-8A8C56BA4A50";
shapes = (
{
closed = 1;
nodes = (
(426,0,l),
(426,81,l),
(165,81,l),
(165,315,l),
(361,315,l),
(361,396,l),
(165,396,l),
(165,619,l),
(426,619,l),
(426,700,l),
(68,700,l),
(68,0,l)
);
}
);
userData = {
com.hugojourdan.ColorFlow = {
"0" = 0;
"1" = 0;
"10" = 0;
"11" = 0;
"2" = 0;
"3" = 0;
"4" = 0;
"5" = 1;
"6" = 0;
"7" = 0;
"8" = 0;
"9" = 0;
};
com.hugojourdan.ColorFlow_Color_5 = "5";
};
width = 459;
}
);
unicode = 69;
userData = {
KernOnName = E;
};
},
{
color = 10;
glyphname = Schwa;
kernRight = KO_O;
lastChange = "2023-12-26 10:28:06 +0000";
layers = (
{
anchors = (
{
name = top;
pos = (279,706);
}
);
layerId = "6E968933-CD79-43C6-9231-80D77C940F4D";
shapes = (
{
closed = 1;
nodes = (
(418,-8,o),
(515,134,o),
(515,349,cs),
(515,559,o),
(419,706,o),
(279,706,cs),
(164,706,o),
(73,610,o),
(49,463,c),
(70,463,l),
(94,604,o),
(178,686,o),
(279,686,cs),
(402,686,o),
(494,560,o),
(494,351,cs),
(494,345,ls),
(494,130,o),
(400,12,o),
(275,12,cs),
(141,12,o),
(62,142,o),
(71,338,c),
(499,338,l),
(499,357,l),
(51,357,l),
(50,342,o),
(49,327,o),
(49,312,cs),
(49,110,o),
(143,-8,o),
(275,-8,cs)
);
}
);
userData = {
com.hugojourdan.ColorFlow = {
"0" = 0;
"1" = 0;
"10" = 0;
"11" = 0;
"2" = 0;
"3" = 0;
"4" = 0;
"5" = 1;
"6" = 0;
"7" = 0;
"8" = 0;
"9" = 0;
};
com.hugojourdan.ColorFlow_Color_5 = "5";
};
width = 563;
},
{
anchors = (
{
name = top;
pos = (282,714);
}
);
layerId = "BAF31694-0472-4296-B0EA-1654553C45D2";
shapes = (
{
closed = 1;
nodes = (
(438,-8,o),
(541,136,o),
(541,353,cs),
(541,572,o),
(437,714,o),
(282,714,cs),
(151,714,o),
(58,612,o),
(35,468,c),
(217,468,l),
(227,523,o),
(253,556,o),
(286,556,cs),
(326,556,o),
(365,494,o),
(365,385,cs),
(365,309,ls),
(365,210,o),
(323,153,o),
(279,153,cs),
(238,153,o),
(206,206,o),
(202,284,c),
(383,284,l),
(383,400,l),
(28,400,l),
(27,380,o),
(25,358,o),
(25,339,cs),
(25,122,o),
(126,-8,o),
(283,-8,cs)
);
}
);
userData = {
com.hugojourdan.ColorFlow = {
"0" = 0;
"1" = 0;
"10" = 0;
"11" = 0;
"2" = 0;
"3" = 0;
"4" = 0;
"5" = 1;
"6" = 0;
"7" = 0;
"8" = 0;
"9" = 0;
};
com.hugojourdan.ColorFlow_Color_5 = "5";
};
width = 567;
},
{
anchors = (
{
name = top;
pos = (384,706);
}
);
layerId = m005;
shapes = (
{
closed = 1;
nodes = (
(577,-8,o),
(712,134,o),
(712,349,cs),
(712,559,o),
(578,706,o),
(384,706,cs),
(225,706,o),
(98,610,o),
(65,463,c),
(88,463,l),
(121,604,o),
(244,686,o),
(384,686,cs),
(555,686,o),
(688,560.005,o),
(688,351,cs),
(688,345,ls),
(688,129.995,o),
(552,12,o),
(378,12,cs),
(193,12,o),
(77,142,o),
(89,338,c),
(695,338,l),
(695,357,l),
(67,357,l),
(66,342,o),
(65,327,o),
(65,312,cs),
(65,110,o),
(195,-8,o),
(378,-8,cs)
);
}
);
userData = {
com.hugojourdan.ColorFlow = {
"0" = 0;
"1" = 0;
"10" = 0;
"11" = 0;
"2" = 0;
"3" = 0;
"4" = 0;
"5" = 1;
"6" = 0;
"7" = 0;
"8" = 0;
"9" = 0;
};
com.hugojourdan.ColorFlow_Color_5 = "5";
};
width = 775;
},
{
anchors = (
{
name = top;
pos = (372,714);
}
);
layerId = m008;
shapes = (
{
closed = 1;
nodes = (
(582,-8,o),
(721,136,o),
(721,353,cs),
(721,572,o),
(580,714,o),
(372,714,cs),
(201,714,o),
(77,612,o),
(39,468,c),
(229,468,l),
(250,523,o),
(306,556,o),
(375,556,cs),
(465,556,o),
(538,494,o),
(538,385,cs),
(538,309,ls),
(538,210,o),
(460,153,o),
(370,153,cs),
(280,153,o),
(213,206,o),
(209,284,c),
(561,284,l),
(561,400,l),
(32,400,l),
(30,380,o),
(28,358,o),
(28,339,cs),
(28,122,o),
(166,-8,o),
(373,-8,cs)
);
}
);
userData = {
com.hugojourdan.ColorFlow = {
"0" = 0;
"1" = 0;
"10" = 0;
"11" = 0;
"2" = 0;
"3" = 0;
"4" = 0;
"5" = 1;
"6" = 0;
"7" = 0;
"8" = 0;
"9" = 0;
};
com.hugojourdan.ColorFlow_Color_5 = "5";
};
width = 750;
},
{
anchors = (
{
name = top;
pos = (375,709);
}
);
associatedMasterId = m005;
layerId = "35BFCCC7-0127-485D-949D-7DB403A632BB";
shapes = (
{
closed = 1;
nodes = (
(577,-7,o),
(710,140,o),
(710,351,cs),
(710,562,o),
(573,708,o),
(375,708,cs),
(216,708,o),
(100,623,o),
(52,487,c),
(187,487,l),
(217,560,o),
(284,602,o),
(375,602,cs),
(499,602,o),
(584,510,o),
(584,372,cs),
(584,307,ls),
(584,177,o),
(494,98,o),
(376,98,cs),
(254,98,o),
(170,173,o),
(166,286,c),
(605,286,l),
(605,393,l),
(48,393,l),
(45,369,o),
(44,346,o),
(44,326,cs),
(44,113,o),
(180,-7,o),
(376,-7,cs)
);
}
);
userData = {
com.hugojourdan.ColorFlow = {
"0" = 0;
"1" = 0;
"10" = 0;
"11" = 0;
"2" = 0;
"3" = 0;
"4" = 0;
"5" = 1;
"6" = 0;
"7" = 0;
"8" = 0;
"9" = 0;
};
com.hugojourdan.ColorFlow_Color_5 = "5";
};
width = 754.81818;
},
{
anchors = (
{
name = top;
pos = (314,709);
}
);
associatedMasterId = m005;
layerId = "90AB47CF-B91A-4A16-8951-47B05D070D97";
shapes = (
{
closed = 1;
nodes = (
(484,-7,o),
(596,140,o),
(596,351,cs),
(596,562,o),
(481,708,o),
(314,708,cs),
(179,708,o),
(80,623,o),
(43,487,c),
(176,487,l),
(199,560,o),
(245,602,o),
(315,602,cs),
(409,602,o),
(471,510,o),
(471,372,cs),
(471,307,ls),
(471,177,o),
(404,98,o),
(314,98,cs),
(221,98,o),
(162,173,o),
(159,286,c),
(490,286,l),
(490,393,l),
(39,393,l),
(36,369,o),
(35,346,o),
(35,326,cs),
(35,113,o),
(149,-7,o),
(315,-7,cs)
);
}
);
userData = {
com.hugojourdan.ColorFlow = {
"0" = 0;
"1" = 0;
"10" = 0;
"11" = 0;
"2" = 0;
"3" = 0;
"4" = 0;
"5" = 1;
"6" = 0;
"7" = 0;
"8" = 0;
"9" = 0;
};
com.hugojourdan.ColorFlow_Color_5 = "5";
};
width = 631.86498;
},
{
anchors = (
{
name = top;
pos = (313,711);
}
);
associatedMasterId = m005;
layerId = "8FA82795-75ED-4170-83DB-662671B1FD8E";
shapes = (
{
closed = 1;
nodes = (
(486,-7,o),
(600,139,o),
(600,352,cs),
(600,566,o),
(484,710,o),
(313,710,cs),
(174,710,o),
(73,619,o),
(39,481,c),
(190,481,l),
(210,547,o),
(253,586,o),
(315,586,cs),
(398,586,o),
(457,505,o),
(457,377,cs),
(457,308,ls),
(457,188,o),
(393,117,o),
(313,117,cs),
(231,117,o),
(176,184,o),
(172,285,c),
(476,285,l),
(476,395,l),
(34,395,l),
(32,373,o),
(30,350,o),
(30,330,cs),
(30,116,o),
(145,-7,o),
(314,-7,cs)
);
}
);
userData = {
com.hugojourdan.ColorFlow = {
"0" = 0;
"1" = 0;
"10" = 0;
"11" = 0;
"2" = 0;
"3" = 0;
"4" = 0;
"5" = 1;
"6" = 0;
"7" = 0;
"8" = 0;
"9" = 0;
};
com.hugojourdan.ColorFlow_Color_5 = "5";
};
width = 630.93067;
},
{
anchors = (
{
name = top;
pos = (377,708);
}
);
layerId = "1458D1BF-5CC5-4794-B60B-1E4EBB5AAB71";
shapes = (
{
closed = 1;
nodes = (
(577,-7,o),
(710,139,o),
(710,351,cs),
(710,561,o),
(574,708,o),
(377,708,cs),
(218,708,o),
(100,621,o),
(55,483,c),
(167,483,l),
(199,569,o),
(276,619,o),
(377,619,cs),
(510,619,o),
(605,520,o),
(605,368,cs),
(605,314,ls),
(605,168,o),
(505,81,o),
(376,81,cs),
(242,81,o),
(151,166,o),
(150,296,c),
(623,296,l),
(623,386,l),
(52,386,l),
(50,364,o),
(49,343,o),
(49,323,cs),
(49,112,o),
(184,-7,o),
(376,-7,cs)
);
}
);
userData = {
com.hugojourdan.ColorFlow = {
"0" = 0;
"1" = 0;
"10" = 0;
"11" = 0;
"2" = 0;
"3" = 0;
"4" = 0;
"5" = 1;
"6" = 0;
"7" = 0;
"8" = 0;
"9" = 0;
};
com.hugojourdan.ColorFlow_Color_5 = "5";
};
width = 758.67816;
},
{
anchors = (
{
name = top;
pos = (280,708);
}
);
layerId = "14AD7677-08C4-410F-BB6E-8A8C56BA4A50";
shapes = (
{
closed = 1;
nodes = (
(428,-7,o),
(525,139,o),
(525,351,cs),
(525,561,o),
(426,708,o),
(280,708,cs),
(162,708,o),
(75,621,o),
(45,483,c),
(155,483,l),
(175,569,o),
(217,619,o),
(282,619,cs),
(366,619,o),
(422,520,o),
(422,368,cs),
(422,314,ls),
(422,168,o),
(362,81,o),
(280,81,cs),
(194,81,o),
(144,166,o),
(143,296,c),
(436,296,l),
(436,386,l),
(43,386,l),
(41,364,o),
(40,343,o),
(40,323,cs),
(40,112,o),
(138,-7,o),
(280,-7,cs)
);
}
);
userData = {
com.hugojourdan.ColorFlow = {
"0" = 0;
"1" = 0;
"10" = 0;
"11" = 0;
"2" = 0;
"3" = 0;
"4" = 0;
"5" = 1;
"6" = 0;
"7" = 0;
"8" = 0;
"9" = 0;
};
com.hugojourdan.ColorFlow_Color_5 = "5";
};
width = 566;
}
);
unicode = 399;
},
{
color = 10;
glyphname = F;
kernLeft = KO_H;
kernRight = KO_F;
lastChange = "2023-12-26 15:15:52 +0000";
layers = (
{
layerId = "6E968933-CD79-43C6-9231-80D77C940F4D";
shapes = (
{
closed = 1;
nodes = (
(102,0,l),
(102,350,l),
(348,350,l),
(348,370,l),
(102,370,l),
(102,680,l),
(422,680,l),
(422,700,l),
(80,700,l),
(80,0,l)
);
}
);
userData = {
com.hugojourdan.ColorFlow = {
"0" = 0;
"1" = 0;
"10" = 0;
"11" = 0;
"2" = 0;
"3" = 0;
"4" = 0;
"5" = 1;
"6" = 0;
"7" = 0;
"8" = 0;
"9" = 0;
};
com.hugojourdan.ColorFlow_Color_5 = "5";
};
width = 441;
},
{
layerId = "BAF31694-0472-4296-B0EA-1654553C45D2";
shapes = (
{
closed = 1;
nodes = (
(219,0,l),
(219,287,l),
(393,287,l),
(393,423,l),
(219,423,l),
(219,554,l),
(456,554,l),
(456,700,l),
(45,700,l),
(45,0,l)
);
}
);
userData = {
com.hugojourdan.ColorFlow = {
"0" = 0;
"1" = 0;
"10" = 0;
"11" = 0;
"2" = 0;
"3" = 0;
"4" = 0;
"5" = 1;
"6" = 0;
"7" = 0;
"8" = 0;
"9" = 0;
};
com.hugojourdan.ColorFlow_Color_5 = "5";
};
width = 478;
},
{
layerId = m005;
shapes = (
{
closed = 1;
nodes = (
(126,0,l),
(126,350,l),
(455,350,l),
(455,370,l),
(126,370,l),
(126,680,l),
(558,680,l),
(558,700,l),
(104,700,l),
(104,0,l)
);
}
);
userData = {
com.hugojourdan.ColorFlow = {
"0" = 0;
"1" = 0;
"10" = 0;
"11" = 0;
"2" = 0;
"3" = 0;
"4" = 0;
"5" = 1;
"6" = 0;
"7" = 0;
"8" = 0;
"9" = 0;
};
com.hugojourdan.ColorFlow_Color_5 = "5";
};
width = 588;
},
{
layerId = m008;
shapes = (
{
closed = 1;
nodes = (
(231,0,l),
(231,287,l),
(493,287,l),
(493,423,l),
(231,423,l),
(231,554,l),
(582,554,l),
(582,700,l),
(57,700,l),
(57,0,l)
);
}
);
userData = {
com.hugojourdan.ColorFlow = {
"0" = 0;
"1" = 0;
"10" = 0;
"11" = 0;
"2" = 0;
"3" = 0;
"4" = 0;
"5" = 1;
"6" = 0;
"7" = 0;
"8" = 0;
"9" = 0;
};
com.hugojourdan.ColorFlow_Color_5 = "5";
};
width = 605;
},
{
associatedMasterId = m005;
layerId = "35BFCCC7-0127-485D-949D-7DB403A632BB";
shapes = (
{
closed = 1;
nodes = (
(196,0,l),
(196,306,l),
(466,306,l),
(466,403,l),
(196,403,l),
(196,603,l),
(556,603,l),
(556,700,l),
(80,700,l),
(80,0,l)
);
}
);
userData = {
com.hugojourdan.ColorFlow = {
"0" = 0;
"1" = 0;
"10" = 0;
"11" = 0;
"2" = 0;
"3" = 0;
"4" = 0;
"5" = 1;
"6" = 0;
"7" = 0;
"8" = 0;
"9" = 0;
};
com.hugojourdan.ColorFlow_Color_5 = "5";
};
width = 582.83636;
},
{
associatedMasterId = m005;
layerId = "90AB47CF-B91A-4A16-8951-47B05D070D97";
shapes = (
{
closed = 1;
nodes = (
(184,0,l),
(184,306,l),
(402,306,l),
(402,403,l),
(184,403,l),
(184,603,l),
(477,603,l),
(477,700,l),
(68,700,l),
(68,0,l)
);
}
);
userData = {
com.hugojourdan.ColorFlow = {
"0" = 0;
"1" = 0;
"10" = 0;
"11" = 0;
"2" = 0;
"3" = 0;
"4" = 0;
"5" = 1;
"6" = 0;
"7" = 0;
"8" = 0;
"9" = 0;
};
com.hugojourdan.ColorFlow_Color_5 = "5";
};
width = 494.09487;
},
{
associatedMasterId = m005;
layerId = "8FA82795-75ED-4170-83DB-662671B1FD8E";
shapes = (
{
closed = 1;
nodes = (
(197,0,l),
(197,300,l),
(412,300,l),
(412,410,l),
(197,410,l),
(197,586,l),
(486,586,l),
(486,700,l),
(61,700,l),
(61,0,l)
);
}
);
userData = {
com.hugojourdan.ColorFlow = {
"0" = 0;
"1" = 0;
"10" = 0;
"11" = 0;
"2" = 0;
"3" = 0;
"4" = 0;
"5" = 1;
"6" = 0;
"7" = 0;
"8" = 0;
"9" = 0;
};
com.hugojourdan.ColorFlow_Color_5 = "5";
};
width = 502.4997;
},
{
layerId = "1458D1BF-5CC5-4794-B60B-1E4EBB5AAB71";
shapes = (
{
closed = 1;
nodes = (
(181,0,l),
(181,315,l),
(462,315,l),
(462,396,l),
(181,396,l),
(181,619,l),
(555,619,l),
(555,700,l),
(84,700,l),
(84,0,l)
);
}
);
userData = {
com.hugojourdan.ColorFlow = {
"0" = 0;
"1" = 0;
"10" = 0;
"11" = 0;
"2" = 0;
"3" = 0;
"4" = 0;
"5" = 1;
"6" = 0;
"7" = 0;
"8" = 0;
"9" = 0;
};
com.hugojourdan.ColorFlow_Color_5 = "5";
};
width = 585;
},
{
layerId = "14AD7677-08C4-410F-BB6E-8A8C56BA4A50";
shapes = (
{
closed = 1;
nodes = (
(165,0,l),
(165,315,l),
(361,315,l),
(361,396,l),
(165,396,l),
(165,619,l),
(426,619,l),
(426,700,l),
(68,700,l),
(68,0,l)
);
}
);
userData = {
com.hugojourdan.ColorFlow = {
"0" = 0;
"1" = 0;
"10" = 0;
"11" = 0;
"2" = 0;
"3" = 0;
"4" = 0;
"5" = 1;
"6" = 0;
"7" = 0;
"8" = 0;
"9" = 0;
};
com.hugojourdan.ColorFlow_Color_5 = "5";
};
width = 451;
}
);
unicode = 70;
userData = {
KernOnName = F;
};
},
{
color = 10;
glyphname = G;
kernLeft = KO_O;
kernRight = KO_G;
lastChange = "2023-12-26 15:15:52 +0000";
layers = (
{
anchors = (
{
name = bottom;
pos = (306,0);
},
{
name = top;
pos = (306,700);
}
);
layerId = "6E968933-CD79-43C6-9231-80D77C940F4D";
shapes = (
{
closed = 1;
nodes = (
(430,-7,o),
(528,82,o),
(528,240,cs),
(528,359,l),
(296,359,l),
(296,339,l),
(506,339,l),
(506,242,ls),
(506,96,o),
(417,13,o),
(296,13,cs),
(142,13,o),
(75,121,o),
(75,350,cs),
(75,580,o),
(142,687,o),
(296,687,cs),
(412,687,o),
(469,609,o),
(496,502,c),
(514,509,l),
(485,629,o),
(422,707,o),
(296,707,cs),
(121,707,o),
(53,580,o),
(53,350,cs),
(53,120,o),
(121,-7,o),
(296,-7,cs)
);
}
);
userData = {
com.hugojourdan.ColorFlow = {
"0" = 0;
"1" = 0;
"10" = 0;
"11" = 0;
"2" = 0;
"3" = 0;
"4" = 0;
"5" = 1;
"6" = 0;
"7" = 0;
"8" = 0;
"9" = 0;
};
com.hugojourdan.ColorFlow_Color_5 = "5";
};
width = 576;
},
{
anchors = (
{
name = bottom;
pos = (277,1);
},
{
name = top;
pos = (277,700);
}
);
layerId = "BAF31694-0472-4296-B0EA-1654553C45D2";
shapes = (
{
closed = 1;
nodes = (
(429,-7,o),
(525,84,o),
(525,203,cs),
(525,401,l),
(284,401,l),
(284,265,l),
(365,265,l),
(365,236,ls),
(365,187,o),
(341,141,o),
(288,141,cs),
(216,141,o),
(204,203,o),
(204,350,cs),
(204,488,o),
(215,559,o),
(288,559,cs),
(336,559,o),
(363,526,o),
(368,470,c),
(526,508,l),
(503,634,o),
(418,707,o),
(285,707,cs),
(106,707,o),
(27,579,o),
(27,350,cs),
(27,121,o),
(108,-7,o),
(288,-7,cs)
);
}
);
userData = {
com.hugojourdan.ColorFlow = {
"0" = 0;
"1" = 0;
"10" = 0;
"11" = 0;
"2" = 0;
"3" = 0;
"4" = 0;
"5" = 1;
"6" = 0;
"7" = 0;
"8" = 0;
"9" = 0;
};
com.hugojourdan.ColorFlow_Color_5 = "5";
};
width = 556;
},
{
anchors = (
{
name = bottom;
pos = (413,0);
},
{
name = top;
pos = (413,700);
}
);
layerId = m005;
shapes = (
{
closed = 1;
nodes = (
(558,-7,o),
(681,91,o),
(721,240,c),
(721,359,l),
(399,359,l),
(399,339,l),
(699,339,l),
(699,242,l),
(659,98,o),
(540,13,o),
(399,13,cs),
(224,13,o),
(84,141,o),
(84,350,cs),
(84,560,o),
(224,687,o),
(399,687,cs),
(539,687,o),
(641,609,o),
(684,502,c),
(702,509,l),
(651,629,o),
(547,707,o),
(399,707,cs),
(203,707,o),
(62,560,o),
(62,350,cs),
(62,140,o),
(203,-7,o),
(399,-7,cs)
);
}
);
userData = {
com.hugojourdan.ColorFlow = {
"0" = 0;
"1" = 0;
"10" = 0;
"11" = 0;
"2" = 0;
"3" = 0;
"4" = 0;
"5" = 1;
"6" = 0;
"7" = 0;
"8" = 0;
"9" = 0;
};
com.hugojourdan.ColorFlow_Color_5 = "5";
};
width = 780;
},
{
anchors = (
{
name = bottom;
pos = (376,1);
},
{
name = top;
pos = (376,700);
}
);
layerId = m008;
shapes = (
{
closed = 1;
nodes = (
(557,-7,o),
(667,94,o),
(715,196,c),
(715,401,l),
(387,401,l),
(387,265,l),
(555,265,l),
(555,236,l),
(522,179,o),
(470,141,o),
(399,141,cs),
(278,141,o),
(205,223,o),
(205,350,cs),
(205,468,o),
(282,559,o),
(390,559,cs),
(461,559,o),
(513,531,o),
(545,470,c),
(709,508,l),
(665,631,o),
(539,707,o),
(384,707,cs),
(173,707,o),
(28,559,o),
(28,350,cs),
(28,141,o),
(174,-7,o),
(386,-7,cs)
);
}
);
userData = {
com.hugojourdan.ColorFlow = {
"0" = 0;
"1" = 0;
"10" = 0;
"11" = 0;
"2" = 0;
"3" = 0;
"4" = 0;
"5" = 1;
"6" = 0;
"7" = 0;
"8" = 0;
"9" = 0;
};
com.hugojourdan.ColorFlow_Color_5 = "5";
};
width = 747;
},
{
anchors = (
{
name = bottom;
pos = (391,0);
},
{
name = top;
pos = (391,700);
}
);
associatedMasterId = m005;
layerId = "35BFCCC7-0127-485D-949D-7DB403A632BB";
shapes = (
{
closed = 1;
nodes = (
(554,-7,o),
(679,89,o),
(727,213,c),
(727,387,l),
(406,387,l),
(406,291,l),
(609,291,l),
(609,220,l),
(574,144,o),
(491,92,o),
(398,92,cs),
(265,92,o),
(161,197,o),
(161,350,cs),
(161,503,o),
(268,608,o),
(401,608,cs),
(484,608,o),
(561,571,o),
(610,483,c),
(712,520,l),
(658,641,o),
(531,707,o),
(397,707,cs),
(201,707,o),
(42,559,o),
(42,350,cs),
(42,140,o),
(201,-7,o),
(398,-7,cs)
);
}
);
userData = {
com.hugojourdan.ColorFlow = {
"0" = 0;
"1" = 0;
"10" = 0;
"11" = 0;
"2" = 0;
"3" = 0;
"4" = 0;
"5" = 1;
"6" = 0;
"7" = 0;
"8" = 0;
"9" = 0;
};
com.hugojourdan.ColorFlow_Color_5 = "5";
};
width = 771.09091;
},
{
anchors = (
{
name = bottom;
pos = (327,0);
},
{
name = top;
pos = (327,700);
}
);
associatedMasterId = m005;
layerId = "90AB47CF-B91A-4A16-8951-47B05D070D97";
shapes = (
{
closed = 1;
nodes = (
(473,-7,o),
(588,87,o),
(607,213,cs),
(607,387,l),
(338,387,l),
(338,291,l),
(490,291,l),
(490,220,ls),
(476,144,o),
(415,92,o),
(331,92,cs),
(212,92,o),
(155,185,o),
(155,350,cs),
(155,515,o),
(215,608,o),
(332,608,cs),
(409,608,o),
(465,571,o),
(496,483,c),
(597,520,l),
(560,641,o),
(456,707,o),
(333,707,cs),
(145,707,o),
(37,571,o),
(37,350,cs),
(37,128,o),
(145,-7,o),
(334,-7,cs)
);
}
);
userData = {
com.hugojourdan.ColorFlow = {
"0" = 0;
"1" = 0;
"10" = 0;
"11" = 0;
"2" = 0;
"3" = 0;
"4" = 0;
"5" = 1;
"6" = 0;
"7" = 0;
"8" = 0;
"9" = 0;
};
com.hugojourdan.ColorFlow_Color_5 = "5";
};
width = 645.13771;
},
{
anchors = (
{
name = bottom;
pos = (322,0);
},
{
name = top;
pos = (322,700);
}
);
associatedMasterId = m005;
layerId = "8FA82795-75ED-4170-83DB-662671B1FD8E";
shapes = (
{
closed = 1;
nodes = (
(474,-7,o),
(584,87,o),
(604,209,cs),
(604,392,l),
(332,392,l),
(332,282,l),
(471,282,l),
(471,225,ls),
(458,158,o),
(406,109,o),
(330,109,cs),
(220,109,o),
(170,194,o),
(170,350,cs),
(170,503,o),
(222,591,o),
(329,591,cs),
(400,591,o),
(449,557,o),
(475,478,c),
(596,516,l),
(561,638,o),
(458,707,o),
(328,707,cs),
(139,707,o),
(32,571,o),
(32,350,cs),
(32,128,o),
(140,-7,o),
(330,-7,cs)
);
}
);
userData = {
com.hugojourdan.ColorFlow = {
"0" = 0;
"1" = 0;
"10" = 0;
"11" = 0;
"2" = 0;
"3" = 0;
"4" = 0;
"5" = 1;
"6" = 0;
"7" = 0;
"8" = 0;
"9" = 0;
};
com.hugojourdan.ColorFlow_Color_5 = "5";
};
width = 637.65794;
},
{
anchors = (
{
name = bottom;
pos = (397,0);
},
{
name = top;
pos = (397,700);
}
);
layerId = "1458D1BF-5CC5-4794-B60B-1E4EBB5AAB71";
shapes = (
{
closed = 1;
nodes = (
(556,-7,o),
(680,89,o),
(727,219,c),
(727,381,l),
(407,381,l),
(407,301,l),
(628,301,l),
(628,223,l),
(592,135,o),
(502,76,o),
(399,76,cs),
(258,76,o),
(146,186,o),
(146,350,cs),
(146,514,o),
(260,624,o),
(402,624,cs),
(496,624,o),
(578,580,o),
(626,486,c),
(711,518,l),
(658,639,o),
(535,707,o),
(399,707,cs),
(203,707,o),
(47,559,o),
(47,350,cs),
(47,140,o),
(203,-7,o),
(399,-7,cs)
);
}
);
userData = {
com.hugojourdan.ColorFlow = {
"0" = 0;
"1" = 0;
"10" = 0;
"11" = 0;
"2" = 0;
"3" = 0;
"4" = 0;
"5" = 1;
"6" = 0;
"7" = 0;
"8" = 0;
"9" = 0;
};
com.hugojourdan.ColorFlow_Color_5 = "5";
};
width = 775;
},
{
anchors = (
{
name = bottom;
pos = (294,0);
},
{
name = top;
pos = (294,700);
}
);
layerId = "14AD7677-08C4-410F-BB6E-8A8C56BA4A50";
shapes = (
{
closed = 1;
nodes = (
(426,-7,o),
(533,84,o),
(533,219,cs),
(533,381,l),
(300,381,l),
(300,301,l),
(435,301,l),
(435,223,ls),
(435,134,o),
(381,76,o),
(294,76,cs),
(175,76,o),
(141,166,o),
(141,350,cs),
(141,534,o),
(177,624,o),
(294,624,cs),
(375,624,o),
(420,580,o),
(441,486,c),
(525,518,l),
(498,639,o),
(413,707,o),
(296,707,cs),
(116,707,o),
(43,579,o),
(43,350,cs),
(43,120,o),
(116,-7,o),
(297,-7,cs)
);
}
);
userData = {
com.hugojourdan.ColorFlow = {
"0" = 0;
"1" = 0;
"10" = 0;
"11" = 0;
"2" = 0;
"3" = 0;
"4" = 0;
"5" = 1;
"6" = 0;
"7" = 0;
"8" = 0;
"9" = 0;
};
com.hugojourdan.ColorFlow_Color_5 = "5";
};
width = 576;
}
);
unicode = 71;
userData = {
KernOnName = G;
};
},
{
color = 10;
glyphname = H;
kernLeft = KO_H;
kernRight = KO_H;
lastChange = "2023-12-26 15:15:52 +0000";
layers = (
{
anchors = (
{
name = center;
pos = (280,535);
},
{
name = top;
pos = (280,700);
}
);
layerId = "6E968933-CD79-43C6-9231-80D77C940F4D";
shapes = (
{
closed = 1;
nodes = (
(102,0,l),
(102,350,l),
(458,350,l),
(458,0,l),
(480,0,l),
(480,700,l),
(458,700,l),
(458,370,l),
(102,370,l),
(102,700,l),
(80,700,l),
(80,0,l)
);
}
);
userData = {
com.hugojourdan.ColorFlow = {
"0" = 0;
"1" = 0;
"10" = 0;
"11" = 0;
"2" = 0;
"3" = 0;
"4" = 0;
"5" = 1;
"6" = 0;
"7" = 0;
"8" = 0;
"9" = 0;
};
com.hugojourdan.ColorFlow_Color_5 = "5";
};
width = 560;
},
{
anchors = (
{
name = center;
pos = (282,564);
},
{
name = top;
pos = (282,700);
}
);
layerId = "BAF31694-0472-4296-B0EA-1654553C45D2";
shapes = (
{
closed = 1;
nodes = (
(219,0,l),
(219,282,l),
(346,282,l),
(346,0,l),
(520,0,l),
(520,700,l),
(346,700,l),
(346,428,l),
(219,428,l),
(219,700,l),
(45,700,l),
(45,0,l)
);
}
);
userData = {
com.hugojourdan.ColorFlow = {
"0" = 0;
"1" = 0;
"10" = 0;
"11" = 0;
"2" = 0;
"3" = 0;
"4" = 0;
"5" = 1;
"6" = 0;
"7" = 0;
"8" = 0;
"9" = 0;
};
com.hugojourdan.ColorFlow_Color_5 = "5";
};
width = 565;
},
{
anchors = (
{
name = center;
pos = (372,535);
},
{
name = top;
pos = (372,700);
}
);
layerId = m005;
shapes = (
{
closed = 1;
nodes = (
(126,0,l),
(126,350,l),
(619,350,l),
(619,0,l),
(641,0,l),
(641,700,l),
(619,700,l),
(619,370,l),
(126,370,l),
(126,700,l),
(104,700,l),
(104,0,l)
);
}
);
userData = {
com.hugojourdan.ColorFlow = {
"0" = 0;
"1" = 0;
"10" = 0;
"11" = 0;
"2" = 0;
"3" = 0;
"4" = 0;
"5" = 1;
"6" = 0;
"7" = 0;
"8" = 0;
"9" = 0;
};
com.hugojourdan.ColorFlow_Color_5 = "5";
};
width = 744.99596;
},
{
anchors = (
{
name = center;
pos = (363,564);
},
{
name = top;
pos = (363,700);
}
);
layerId = m008;
shapes = (
{
closed = 1;
nodes = (
(231,0,l),
(231,282,l),
(495,282,l),
(495,0,l),
(669,0,l),
(669,700,l),
(495,700,l),
(495,428,l),
(231,428,l),
(231,700,l),
(57,700,l),
(57,0,l)
);
}
);
userData = {
com.hugojourdan.ColorFlow = {
"0" = 0;
"1" = 0;
"10" = 0;
"11" = 0;
"2" = 0;
"3" = 0;
"4" = 0;
"5" = 1;
"6" = 0;
"7" = 0;
"8" = 0;
"9" = 0;
};
com.hugojourdan.ColorFlow_Color_5 = "5";
};
width = 726;
},
{
anchors = (
{
name = center;
pos = (362,551);
},
{
name = top;
pos = (362,700);
}
);
associatedMasterId = m005;
layerId = "35BFCCC7-0127-485D-949D-7DB403A632BB";
shapes = (
{
closed = 1;
nodes = (
(196,0,l),
(196,306,l),
(529,306,l),
(529,0,l),
(645,0,l),
(645,700,l),
(529,700,l),
(529,403,l),
(196,403,l),
(196,700,l),
(80,700,l),
(80,0,l)
);
}
);
userData = {
com.hugojourdan.ColorFlow = {
"0" = 0;
"1" = 0;
"10" = 0;
"11" = 0;
"2" = 0;
"3" = 0;
"4" = 0;
"5" = 1;
"6" = 0;
"7" = 0;
"8" = 0;
"9" = 0;
};
com.hugojourdan.ColorFlow_Color_5 = "5";
};
width = 725.03636;
},
{
anchors = (
{
name = center;
pos = (309,551);
},
{
name = top;
pos = (309,700);
}
);
associatedMasterId = m005;
layerId = "90AB47CF-B91A-4A16-8951-47B05D070D97";
shapes = (
{
closed = 1;
nodes = (
(184,0,l),
(184,306,l),
(435,306,l),
(435,0,l),
(551,0,l),
(551,700,l),
(435,700,l),
(435,403,l),
(184,403,l),
(184,700,l),
(68,700,l),
(68,0,l)
);
}
);
userData = {
com.hugojourdan.ColorFlow = {
"0" = 0;
"1" = 0;
"10" = 0;
"11" = 0;
"2" = 0;
"3" = 0;
"4" = 0;
"5" = 1;
"6" = 0;
"7" = 0;
"8" = 0;
"9" = 0;
};
com.hugojourdan.ColorFlow_Color_5 = "5";
};
width = 618.97677;
},
{
anchors = (
{
name = center;
pos = (310,556);
},
{
name = top;
pos = (310,700);
}
);
associatedMasterId = m005;
layerId = "8FA82795-75ED-4170-83DB-662671B1FD8E";
shapes = (
{
closed = 1;
nodes = (
(197,0,l),
(197,298,l),
(424,298,l),
(424,0,l),
(560,0,l),
(560,700,l),
(424,700,l),
(424,411,l),
(197,411,l),
(197,700,l),
(61,700,l),
(61,0,l)
);
}
);
userData = {
com.hugojourdan.ColorFlow = {
"0" = 0;
"1" = 0;
"10" = 0;
"11" = 0;
"2" = 0;
"3" = 0;
"4" = 0;
"5" = 1;
"6" = 0;
"7" = 0;
"8" = 0;
"9" = 0;
};
com.hugojourdan.ColorFlow_Color_5 = "5";
};
width = 621.41018;
},
{
anchors = (
{
name = center;
pos = (363,548);
},
{
name = top;
pos = (363,700);
}
);
layerId = "1458D1BF-5CC5-4794-B60B-1E4EBB5AAB71";
shapes = (
{
closed = 1;
nodes = (
(181,0,l),
(181,315,l),
(545,315,l),
(545,0,l),
(642,0,l),
(642,700,l),
(545,700,l),
(545,396,l),
(181,396,l),
(181,700,l),
(84,700,l),
(84,0,l)
);
}
);
userData = {
com.hugojourdan.ColorFlow = {
"0" = 0;
"1" = 0;
"10" = 0;
"11" = 0;
"2" = 0;
"3" = 0;
"4" = 0;
"5" = 1;
"6" = 0;
"7" = 0;
"8" = 0;
"9" = 0;
};
com.hugojourdan.ColorFlow_Color_5 = "5";
};
width = 726;
},
{
anchors = (
{
name = center;
pos = (279,548);
},
{
name = top;
pos = (279,700);
}
);
layerId = "14AD7677-08C4-410F-BB6E-8A8C56BA4A50";
shapes = (
{
closed = 1;
nodes = (
(165,0,l),
(165,315,l),
(392,315,l),
(392,0,l),
(489,0,l),
(489,700,l),
(392,700,l),
(392,396,l),
(165,396,l),
(165,700,l),
(68,700,l),
(68,0,l)
);
}
);
userData = {
com.hugojourdan.ColorFlow = {
"0" = 0;
"1" = 0;
"10" = 0;
"11" = 0;
"2" = 0;
"3" = 0;
"4" = 0;
"5" = 1;
"6" = 0;
"7" = 0;
"8" = 0;
"9" = 0;
};
com.hugojourdan.ColorFlow_Color_5 = "5";
};
width = 557;
}
);
metricRight = "=|";
unicode = 72;
userData = {
KernOnName = H;
};
},
{
color = 10;
glyphname = I;
kernLeft = KO_H;
kernRight = KO_H;
lastChange = "2023-12-26 10:28:06 +0000";
layers = (
{
anchors = (
{
name = ogonek;
pos = (102,0);
},
{
name = top;
pos = (94,700);
}
);
layerId = "6E968933-CD79-43C6-9231-80D77C940F4D";
shapes = (
{
closed = 1;
nodes = (
(102,0,l),
(102,700,l),
(80,700,l),
(80,0,l)
);
}
);
userData = {
com.hugojourdan.ColorFlow = {
"0" = 0;
"1" = 0;
"10" = 0;
"11" = 0;
"2" = 0;
"3" = 0;
"4" = 0;
"5" = 1;
"6" = 0;
"7" = 0;
"8" = 0;
"9" = 0;
};
com.hugojourdan.ColorFlow_Color_5 = "5";
};
width = 182;
},
{
anchors = (
{
name = ogonek;
pos = (221,1);
},
{
name = top;
pos = (136,700);
}
);
layerId = "BAF31694-0472-4296-B0EA-1654553C45D2";
shapes = (
{
closed = 1;
nodes = (
(219,0,l),
(219,700,l),
(45,700,l),
(45,0,l)
);
}
);
userData = {
com.hugojourdan.ColorFlow = {
"0" = 0;
"1" = 0;
"10" = 0;
"11" = 0;
"2" = 0;
"3" = 0;
"4" = 0;
"5" = 1;
"6" = 0;
"7" = 0;
"8" = 0;
"9" = 0;
};
com.hugojourdan.ColorFlow_Color_5 = "5";
};
width = 264;
},
{
anchors = (
{
name = ogonek;
pos = (126,0);
},
{
name = top;
pos = (115,700);
}
);
layerId = m005;
shapes = (
{
closed = 1;
nodes = (
(126,0,l),
(126,700,l),
(104,700,l),
(104,0,l)
);
}
);
userData = {
com.hugojourdan.ColorFlow = {
"0" = 0;
"1" = 0;
"10" = 0;
"11" = 0;
"2" = 0;
"3" = 0;
"4" = 0;
"5" = 1;
"6" = 0;
"7" = 0;
"8" = 0;
"9" = 0;
};
com.hugojourdan.ColorFlow_Color_5 = "5";
};
width = 230;
},
{
anchors = (
{
name = ogonek;
pos = (232,1);
},
{
name = top;
pos = (144,700);
}
);
layerId = m008;
shapes = (
{
closed = 1;
nodes = (
(231,0,l),
(231,700,l),
(57,700,l),
(57,0,l)
);
}
);
userData = {
com.hugojourdan.ColorFlow = {
"0" = 0;
"1" = 0;
"10" = 0;
"11" = 0;
"2" = 0;
"3" = 0;
"4" = 0;
"5" = 1;
"6" = 0;
"7" = 0;
"8" = 0;
"9" = 0;
};
com.hugojourdan.ColorFlow_Color_5 = "5";
};
width = 288;
},
{
anchors = (
{
name = ogonek;
pos = (196,1);
},
{
name = top;
pos = (138,700);
}
);
associatedMasterId = m005;
layerId = "35BFCCC7-0127-485D-949D-7DB403A632BB";
shapes = (
{
closed = 1;
nodes = (
(196,0,l),
(196,700,l),
(80,700,l),
(80,0,l)
);
}
);
userData = {
com.hugojourdan.ColorFlow = {
"0" = 0;
"1" = 0;
"10" = 0;
"11" = 0;
"2" = 0;
"3" = 0;
"4" = 0;
"5" = 1;
"6" = 0;
"7" = 0;
"8" = 0;
"9" = 0;
};
com.hugojourdan.ColorFlow_Color_5 = "5";
};
width = 276.43636;
},
{
anchors = (
{
name = ogonek;
pos = (185,1);
},
{
name = top;
pos = (129,700);
}
);
associatedMasterId = m005;
layerId = "90AB47CF-B91A-4A16-8951-47B05D070D97";
shapes = (
{
closed = 1;
nodes = (
(184,0,l),
(184,700,l),
(68,700,l),
(68,0,l)
);
}
);
userData = {
com.hugojourdan.ColorFlow = {
"0" = 0;
"1" = 0;
"10" = 0;
"11" = 0;
"2" = 0;
"3" = 0;
"4" = 0;
"5" = 1;
"6" = 0;
"7" = 0;
"8" = 0;
"9" = 0;
};
com.hugojourdan.ColorFlow_Color_5 = "5";
};
width = 252.57677;
},
{
anchors = (
{
name = ogonek;
pos = (198,1);
},
{
name = top;
pos = (132,700);
}
);
associatedMasterId = m005;
layerId = "8FA82795-75ED-4170-83DB-662671B1FD8E";
shapes = (
{
closed = 1;
nodes = (
(197,0,l),
(197,700,l),
(61,700,l),
(61,0,l)
);
}
);
userData = {
com.hugojourdan.ColorFlow = {
"0" = 0;
"1" = 0;
"10" = 0;
"11" = 0;
"2" = 0;
"3" = 0;
"4" = 0;
"5" = 1;
"6" = 0;
"7" = 0;
"8" = 0;
"9" = 0;
};
com.hugojourdan.ColorFlow_Color_5 = "5";
};
width = 258.61018;
},
{
anchors = (
{
name = ogonek;
pos = (181,1);
},
{
name = top;
pos = (133,700);
}
);
layerId = "1458D1BF-5CC5-4794-B60B-1E4EBB5AAB71";
shapes = (
{
closed = 1;
nodes = (
(181,0,l),
(181,700,l),
(84,700,l),
(84,0,l)
);
}
);
userData = {
com.hugojourdan.ColorFlow = {
"0" = 0;
"1" = 0;
"10" = 0;
"11" = 0;
"2" = 0;
"3" = 0;
"4" = 0;
"5" = 1;
"6" = 0;
"7" = 0;
"8" = 0;
"9" = 0;
};
com.hugojourdan.ColorFlow_Color_5 = "5";
};
width = 265;
},
{
anchors = (
{
name = ogonek;
pos = (166,1);
},
{
name = top;
pos = (120,700);
}
);
layerId = "14AD7677-08C4-410F-BB6E-8A8C56BA4A50";
shapes = (
{
closed = 1;
nodes = (
(165,0,l),
(165,700,l),
(68,700,l),
(68,0,l)
);
}
);
userData = {
com.hugojourdan.ColorFlow = {
"0" = 0;
"1" = 0;
"10" = 0;
"11" = 0;
"2" = 0;
"3" = 0;
"4" = 0;
"5" = 1;
"6" = 0;
"7" = 0;
"8" = 0;
"9" = 0;
};
com.hugojourdan.ColorFlow_Color_5 = "5";
};
width = 233;
}
);
unicode = 73;
},
{
color = 10;
glyphname = J;
kernLeft = KO_J;
kernRight = KO_J;
lastChange = "2023-12-26 15:15:52 +0000";
layers = (
{
anchors = (
{
name = top;
pos = (250,700);
}
);
layerId = "6E968933-CD79-43C6-9231-80D77C940F4D";
shapes = (
{
closed = 1;
nodes = (
(234,-7,o),
(258,72,o),
(258,155,cs),
(258,700,l),
(236,700,l),
(236,155,ls),
(236,97,o),
(229,13,o),
(145,13,cs),
(65,13,o),
(54,72,o),
(48,144,c),
(27,141,l),
(35,49,o),
(59,-7,o),
(145,-7,cs)
);
}
);
userData = {
com.hugojourdan.ColorFlow = {
"0" = 0;
"1" = 0;
"10" = 0;
"11" = 0;
"2" = 0;
"3" = 0;
"4" = 0;
"5" = 1;
"6" = 0;
"7" = 0;
"8" = 0;
"9" = 0;
};
com.hugojourdan.ColorFlow_Color_5 = "5";
};
width = 334;
},
{
anchors = (
{
name = top;
pos = (325,700);
}
);
layerId = "BAF31694-0472-4296-B0EA-1654553C45D2";
shapes = (
{
closed = 1;
nodes = (
(348,-7,o),
(406,75,o),
(406,227,cs),
(406,700,l),
(231,700,l),
(231,218,ls),
(231,162,o),
(226,139,o),
(205,139,cs),
(183,139,o),
(176,157,o),
(173,212,c),
(19,201,l),
(28,64,o),
(83,-7,o),
(216,-7,cs)
);
}
);
userData = {
com.hugojourdan.ColorFlow = {
"0" = 0;
"1" = 0;
"10" = 0;
"11" = 0;
"2" = 0;
"3" = 0;
"4" = 0;
"5" = 1;
"6" = 0;
"7" = 0;
"8" = 0;
"9" = 0;
};
com.hugojourdan.ColorFlow_Color_5 = "5";
};
width = 446;
},
{
anchors = (
{
name = top;
pos = (347,700);
}
);
layerId = m005;
shapes = (
{
closed = 1;
nodes = (
(302,-7,o),
(358,72,o),
(358,155,cs),
(358,700,l),
(336,700,l),
(336,155,ls),
(336,97,o),
(303,13,o),
(201,13,cs),
(106,13,o),
(69,73,o),
(59,151,c),
(39,147,l),
(53,49,o),
(106,-7,o),
(201,-7,cs)
);
}
);
userData = {
com.hugojourdan.ColorFlow = {
"0" = 0;
"1" = 0;
"10" = 0;
"11" = 0;
"2" = 0;
"3" = 0;
"4" = 0;
"5" = 1;
"6" = 0;
"7" = 0;
"8" = 0;
"9" = 0;
};
com.hugojourdan.ColorFlow_Color_5 = "5";
};
width = 456;
},
{
anchors = (
{
name = top;
pos = (409,700);
}
);
layerId = m008;
shapes = (
{
closed = 1;
nodes = (
(397,-7,o),
(493,75,o),
(493,227,cs),
(493,700,l),
(319,700,l),
(319,218,ls),
(319,167,o),
(289,139,o),
(249,139,cs),
(210,139,o),
(179,164,o),
(176,219,c),
(19,199,l),
(28,63,o),
(116,-7,o),
(257,-7,cs)
);
}
);
userData = {
com.hugojourdan.ColorFlow = {
"0" = 0;
"1" = 0;
"10" = 0;
"11" = 0;
"2" = 0;
"3" = 0;
"4" = 0;
"5" = 1;
"6" = 0;
"7" = 0;
"8" = 0;
"9" = 0;
};
com.hugojourdan.ColorFlow_Color_5 = "5";
};
width = 542;
},
{
anchors = (
{
name = top;
pos = (369,700);
}
);
associatedMasterId = m005;
layerId = "35BFCCC7-0127-485D-949D-7DB403A632BB";
shapes = (
{
closed = 1;
nodes = (
(338,-7,o),
(427,73,o),
(427,201,cs),
(427,700,l),
(311,700,l),
(311,195,ls),
(311,137,o),
(277,90,o),
(217,90,cs),
(168,90,o),
(137,119,o),
(123,161,c),
(24,129,l),
(51,42,o),
(119,-7,o),
(217,-7,cs)
);
}
);
userData = {
com.hugojourdan.ColorFlow = {
"0" = 0;
"1" = 0;
"10" = 0;
"11" = 0;
"2" = 0;
"3" = 0;
"4" = 0;
"5" = 1;
"6" = 0;
"7" = 0;
"8" = 0;
"9" = 0;
};
com.hugojourdan.ColorFlow_Color_5 = "5";
};
width = 499.49091;
},
{
anchors = (
{
name = top;
pos = (315,700);
}
);
associatedMasterId = m005;
layerId = "90AB47CF-B91A-4A16-8951-47B05D070D97";
shapes = (
{
closed = 1;
nodes = (
(304,-7,o),
(369,73,o),
(369,201,cs),
(369,700,l),
(252,700,l),
(252,195,ls),
(252,137,o),
(234,90,o),
(185,90,cs),
(141,90,o),
(124,119,o),
(114,161,c),
(15,129,l),
(37,42,o),
(87,-7,o),
(187,-7,cs)
);
}
);
userData = {
com.hugojourdan.ColorFlow = {
"0" = 0;
"1" = 0;
"10" = 0;
"11" = 0;
"2" = 0;
"3" = 0;
"4" = 0;
"5" = 1;
"6" = 0;
"7" = 0;
"8" = 0;
"9" = 0;
};
com.hugojourdan.ColorFlow_Color_5 = "5";
};
width = 430.54941;
},
{
anchors = (
{
name = top;
pos = (327,700);
}
);
associatedMasterId = m005;
layerId = "8FA82795-75ED-4170-83DB-662671B1FD8E";
shapes = (
{
closed = 1;
nodes = (
(323,-7,o),
(390,74,o),
(390,210,cs),
(390,700,l),
(254,700,l),
(254,203,ls),
(254,147,o),
(237,107,o),
(195,107,cs),
(157,107,o),
(140,133,o),
(132,175,c),
(13,143,l),
(35,46,o),
(91,-7,o),
(200,-7,cs)
);
}
);
userData = {
com.hugojourdan.ColorFlow = {
"0" = 0;
"1" = 0;
"10" = 0;
"11" = 0;
"2" = 0;
"3" = 0;
"4" = 0;
"5" = 1;
"6" = 0;
"7" = 0;
"8" = 0;
"9" = 0;
};
com.hugojourdan.ColorFlow_Color_5 = "5";
};
width = 444.84515;
},
{
anchors = (
{
name = top;
pos = (374,700);
}
);
layerId = "1458D1BF-5CC5-4794-B60B-1E4EBB5AAB71";
shapes = (
{
closed = 1;
nodes = (
(340,-7,o),
(422,73,o),
(422,192,cs),
(422,700,l),
(325,700,l),
(325,187,ls),
(325,129,o),
(292,74,o),
(223,74,cs),
(155,74,o),
(124,121,o),
(115,178,c),
(30,159,l),
(47,54,o),
(117,-7,o),
(223,-7,cs)
);
}
);
userData = {
com.hugojourdan.ColorFlow = {
"0" = 0;
"1" = 0;
"10" = 0;
"11" = 0;
"2" = 0;
"3" = 0;
"4" = 0;
"5" = 1;
"6" = 0;
"7" = 0;
"8" = 0;
"9" = 0;
};
com.hugojourdan.ColorFlow_Color_5 = "5";
};
width = 499;
},
{
anchors = (
{
name = top;
pos = (291,700);
}
);
layerId = "14AD7677-08C4-410F-BB6E-8A8C56BA4A50";
shapes = (
{
closed = 1;
nodes = (
(291,-7,o),
(334,73,o),
(334,192,cs),
(334,700,l),
(236,700,l),
(236,187,ls),
(236,129,o),
(229,74,o),
(179,74,cs),
(124,74,o),
(115,119,o),
(111,176,c),
(26,168,l),
(34,55,o),
(72,-7,o),
(181,-7,cs)
);
}
);
userData = {
com.hugojourdan.ColorFlow = {
"0" = 0;
"1" = 0;
"10" = 0;
"11" = 0;
"2" = 0;
"3" = 0;
"4" = 0;
"5" = 1;
"6" = 0;
"7" = 0;
"8" = 0;
"9" = 0;
};
com.hugojourdan.ColorFlow_Color_5 = "5";
};
width = 396;
}
);
unicode = 74;
userData = {
KernOnName = J;
};
},
{
color = 10;
glyphname = K;
kernLeft = KO_H;
kernRight = KO_K;
lastChange = "2023-12-26 15:15:52 +0000";
layers = (
{
anchors = (
{
name = bottom;
pos = (233,0);
},
{
name = top;
pos = (233,700);
}
);
layerId = "6E968933-CD79-43C6-9231-80D77C940F4D";
shapes = (
{
closed = 1;
nodes = (
(102,0,l),
(102,350,l),
(136,350,l),
(434,0,l),
(461,0,l),
(155,360,l),
(461,700,l),
(434,700,l),
(137,370,l),
(102,370,l),
(102,700,l),
(80,700,l),
(80,0,l)
);
}
);
userData = {
com.hugojourdan.ColorFlow = {
"0" = 0;
"1" = 0;
"10" = 0;
"11" = 0;
"2" = 0;
"3" = 0;
"4" = 0;
"5" = 1;
"6" = 0;
"7" = 0;
"8" = 0;
"9" = 0;
};
com.hugojourdan.ColorFlow_Color_5 = "5";
};
width = 483;
},
{
anchors = (
{
name = bottom;
pos = (287,1);
},
{
name = top;
pos = (287,700);
}
);
layerId = "BAF31694-0472-4296-B0EA-1654553C45D2";
shapes = (
{
closed = 1;
nodes = (
(219,0,l),
(219,282,l),
(255,282,l),
(387,0,l),
(582,0,l),
(398,357,l),
(570,700,l),
(386,700,l),
(254,428,l),
(219,428,l),
(219,700,l),
(45,700,l),
(45,0,l)
);
}
);
userData = {
com.hugojourdan.ColorFlow = {
"0" = 0;
"1" = 0;
"10" = 0;
"11" = 0;
"2" = 0;
"3" = 0;
"4" = 0;
"5" = 1;
"6" = 0;
"7" = 0;
"8" = 0;
"9" = 0;
};
com.hugojourdan.ColorFlow_Color_5 = "5";
};
width = 599;
},
{
anchors = (
{
name = bottom;
pos = (315,0);
},
{
name = top;
pos = (315,700);
}
);
layerId = m005;
shapes = (
{
closed = 1;
nodes = (
(126,0,l),
(126,350,l),
(190,350,l),
(566,0,l),
(596,0,l),
(210,360,l),
(596,700,l),
(566,700,l),
(190,370,l),
(126,370,l),
(126,700,l),
(104,700,l),
(104,0,l)
);
}
);
userData = {
com.hugojourdan.ColorFlow = {
"0" = 0;
"1" = 0;
"10" = 0;
"11" = 0;
"2" = 0;
"3" = 0;
"4" = 0;
"5" = 1;
"6" = 0;
"7" = 0;
"8" = 0;
"9" = 0;
};
com.hugojourdan.ColorFlow_Color_5 = "5";
};
width = 629;
},
{
anchors = (
{
name = bottom;
pos = (347,1);
},
{
name = top;
pos = (347,700);
}
);
layerId = m008;
shapes = (
{
closed = 1;
nodes = (
(231,0,l),
(231,282,l),
(281,282,l),
(494,0,l),
(712,0,l),
(431,357,l),
(701,700,l),
(493,700,l),
(280,428,l),
(231,428,l),
(231,700,l),
(57,700,l),
(57,0,l)
);
}
);
userData = {
com.hugojourdan.ColorFlow = {
"0" = 0;
"1" = 0;
"10" = 0;
"11" = 0;
"2" = 0;
"3" = 0;
"4" = 0;
"5" = 1;
"6" = 0;
"7" = 0;
"8" = 0;
"9" = 0;
};
com.hugojourdan.ColorFlow_Color_5 = "5";
};
width = 727;
},
{
anchors = (
{
name = bottom;
pos = (324,0);
},
{
name = top;
pos = (324,700);
}
);
associatedMasterId = m005;
layerId = "35BFCCC7-0127-485D-949D-7DB403A632BB";
shapes = (
{
closed = 1;
nodes = (
(196,0,l),
(196,306,l),
(233,306,l),
(494,0,l),
(646,0,l),
(339,355,l),
(640,700,l),
(495,700,l),
(234,403,l),
(196,403,l),
(196,700,l),
(80,700,l),
(80,0,l)
);
}
);
userData = {
com.hugojourdan.ColorFlow = {
"0" = 0;
"1" = 0;
"10" = 0;
"11" = 0;
"2" = 0;
"3" = 0;
"4" = 0;
"5" = 1;
"6" = 0;
"7" = 0;
"8" = 0;
"9" = 0;
};
com.hugojourdan.ColorFlow_Color_5 = "5";
};
width = 668.21818;
},
{
anchors = (
{
name = bottom;
pos = (283,0);
},
{
name = top;
pos = (283,700);
}
);
associatedMasterId = m005;
layerId = "90AB47CF-B91A-4A16-8951-47B05D070D97";
shapes = (
{
closed = 1;
nodes = (
(184,0,l),
(184,306,l),
(216,306,l),
(421,0,l),
(563,0,l),
(315,355,l),
(557,700,l),
(421,700,l),
(216,403,l),
(184,403,l),
(184,700,l),
(68,700,l),
(68,0,l)
);
}
);
userData = {
com.hugojourdan.ColorFlow = {
"0" = 0;
"1" = 0;
"10" = 0;
"11" = 0;
"2" = 0;
"3" = 0;
"4" = 0;
"5" = 1;
"6" = 0;
"7" = 0;
"8" = 0;
"9" = 0;
};
com.hugojourdan.ColorFlow_Color_5 = "5";
};
width = 577.11179;
},
{
anchors = (
{
name = bottom;
pos = (292,0);
},
{
name = top;
pos = (292,700);
}
);
associatedMasterId = m005;
layerId = "8FA82795-75ED-4170-83DB-662671B1FD8E";
shapes = (
{
closed = 1;
nodes = (
(197,0,l),
(197,298,l),
(232,298,l),
(423,0,l),
(587,0,l),
(347,356,l),
(579,700,l),
(423,700,l),
(232,411,l),
(197,411,l),
(197,700,l),
(61,700,l),
(61,0,l)
);
}
);
userData = {
com.hugojourdan.ColorFlow = {
"0" = 0;
"1" = 0;
"10" = 0;
"11" = 0;
"2" = 0;
"3" = 0;
"4" = 0;
"5" = 1;
"6" = 0;
"7" = 0;
"8" = 0;
"9" = 0;
};
com.hugojourdan.ColorFlow_Color_5 = "5";
};
width = 598.47952;
},
{
anchors = (
{
name = bottom;
pos = (321,0);
},
{
name = top;
pos = (321,700);
}
);
layerId = "1458D1BF-5CC5-4794-B60B-1E4EBB5AAB71";
shapes = (
{
closed = 1;
nodes = (
(181,0,l),
(181,315,l),
(222,315,l),
(506,0,l),
(633,0,l),
(312,356,l),
(629,700,l),
(507,700,l),
(223,396,l),
(181,396,l),
(181,700,l),
(84,700,l),
(84,0,l)
);
}
);
userData = {
com.hugojourdan.ColorFlow = {
"0" = 0;
"1" = 0;
"10" = 0;
"11" = 0;
"2" = 0;
"3" = 0;
"4" = 0;
"5" = 1;
"6" = 0;
"7" = 0;
"8" = 0;
"9" = 0;
};
com.hugojourdan.ColorFlow_Color_5 = "5";
};
width = 659;
},
{
anchors = (
{
name = bottom;
pos = (255,0);
},
{
name = top;
pos = (255,700);
}
);
layerId = "14AD7677-08C4-410F-BB6E-8A8C56BA4A50";
shapes = (
{
closed = 1;
nodes = (
(165,0,l),
(165,315,l),
(193,315,l),
(387,0,l),
(501,0,l),
(273,356,l),
(496,700,l),
(387,700,l),
(194,396,l),
(165,396,l),
(165,700,l),
(68,700,l),
(68,0,l)
);
}
);
userData = {
com.hugojourdan.ColorFlow = {
"0" = 0;
"1" = 0;
"10" = 0;
"11" = 0;
"2" = 0;
"3" = 0;
"4" = 0;
"5" = 1;
"6" = 0;
"7" = 0;
"8" = 0;
"9" = 0;
};
com.hugojourdan.ColorFlow_Color_5 = "5";
};
width = 524;
}
);
unicode = 75;
userData = {
KernOnName = K;
};
},
{
color = 10;
glyphname = L;
kernLeft = KO_H;
kernRight = KO_L;
lastChange = "2023-12-26 10:28:06 +0000";
layers = (
{
anchors = (
{
name = middle;
pos = (91,1);
},
{
name = middleright;
pos = (255,360);
},
{
name = top;
pos = (91,700);
},
{
name = topright;
pos = (350,700);
}
);
layerId = "6E968933-CD79-43C6-9231-80D77C940F4D";
shapes = (
{
closed = 1;
nodes = (
(390,0,l),
(390,20,l),
(102,20,l),
(102,700,l),
(80,700,l),
(80,0,l)
);
}
);
userData = {
com.hugojourdan.ColorFlow = {
"0" = 0;
"1" = 0;
"10" = 0;
"11" = 0;
"2" = 0;
"3" = 0;
"4" = 0;
"5" = 1;
"6" = 0;
"7" = 0;
"8" = 0;
"9" = 0;
};
com.hugojourdan.ColorFlow_Color_5 = "5";
};
width = 410;
},
{
anchors = (
{
name = middle;
pos = (134,1);
},
{
name = middleright;
pos = (346,423);
},
{
name = top;
pos = (133,700);
},
{
name = topright;
pos = (454,700);
}
);
layerId = "BAF31694-0472-4296-B0EA-1654553C45D2";
shapes = (
{
closed = 1;
nodes = (
(424,0,l),
(424,146,l),
(219,146,l),
(219,700,l),
(45,700,l),
(45,0,l)
);
}
);
userData = {
com.hugojourdan.ColorFlow = {
"0" = 0;
"1" = 0;
"10" = 0;
"11" = 0;
"2" = 0;
"3" = 0;
"4" = 0;
"5" = 1;
"6" = 0;
"7" = 0;
"8" = 0;
"9" = 0;
};
com.hugojourdan.ColorFlow_Color_5 = "5";
};
width = 446;
},
{
anchors = (
{
name = middle;
pos = (114,1);
},
{
name = middleright;
pos = (324,360);
},
{
name = top;
pos = (116,700);
},
{
name = topright;
pos = (434,700);
}
);
layerId = m005;
shapes = (
{
closed = 1;
nodes = (
(514,0,l),
(514,20,l),
(126,20,l),
(126,700,l),
(104,700,l),
(104,0,l)
);
}
);
userData = {
com.hugojourdan.ColorFlow = {
"0" = 0;
"1" = 0;
"10" = 0;
"11" = 0;
"2" = 0;
"3" = 0;
"4" = 0;
"5" = 1;
"6" = 0;
"7" = 0;
"8" = 0;
"9" = 0;
};
com.hugojourdan.ColorFlow_Color_5 = "5";
};
width = 545;
},
{
anchors = (
{
name = middle;
pos = (142,1);
},
{
name = middleright;
pos = (404,423);
},
{
name = top;
pos = (142,700);
},
{
name = topright;
pos = (536,700);
}
);
layerId = m008;
shapes = (
{
closed = 1;
nodes = (
(536,0,l),
(536,146,l),
(231,146,l),
(231,700,l),
(57,700,l),
(57,0,l)
);
}
);
userData = {
com.hugojourdan.ColorFlow = {
"0" = 0;
"1" = 0;
"10" = 0;
"11" = 0;
"2" = 0;
"3" = 0;
"4" = 0;
"5" = 1;
"6" = 0;
"7" = 0;
"8" = 0;
"9" = 0;
};
com.hugojourdan.ColorFlow_Color_5 = "5";
};
width = 559;
},
{
anchors = (
{
name = middle;
pos = (138,1);
},
{
name = middleright;
pos = (365,398);
},
{
name = top;
pos = (139,700);
},
{
name = topright;
pos = (482,701);
}
);
associatedMasterId = m005;
layerId = "35BFCCC7-0127-485D-949D-7DB403A632BB";
shapes = (
{
closed = 1;
nodes = (
(511,0,l),
(511,97,l),
(196,97,l),
(196,700,l),
(80,700,l),
(80,0,l)
);
}
);
userData = {
com.hugojourdan.ColorFlow = {
"0" = 0;
"1" = 0;
"10" = 0;
"11" = 0;
"2" = 0;
"3" = 0;
"4" = 0;
"5" = 1;
"6" = 0;
"7" = 0;
"8" = 0;
"9" = 0;
};
com.hugojourdan.ColorFlow_Color_5 = "5";
};
width = 537.8;
},
{
anchors = (
{
name = middle;
pos = (128,1);
},
{
name = middleright;
pos = (318,399);
},
{
name = top;
pos = (129,700);
},
{
name = topright;
pos = (423,701);
}
);
associatedMasterId = m005;
layerId = "90AB47CF-B91A-4A16-8951-47B05D070D97";
shapes = (
{
closed = 1;
nodes = (
(440,0,l),
(440,97,l),
(184,97,l),
(184,700,l),
(68,700,l),
(68,0,l)
);
}
);
userData = {
com.hugojourdan.ColorFlow = {
"0" = 0;
"1" = 0;
"10" = 0;
"11" = 0;
"2" = 0;
"3" = 0;
"4" = 0;
"5" = 1;
"6" = 0;
"7" = 0;
"8" = 0;
"9" = 0;
};
com.hugojourdan.ColorFlow_Color_5 = "5";
};
width = 456.8702;
},
{
anchors = (
{
name = middle;
pos = (131,1);
},
{
name = middleright;
pos = (335,407);
},
{
name = top;
pos = (131,700);
},
{
name = topright;
pos = (444,701);
}
);
associatedMasterId = m005;
layerId = "8FA82795-75ED-4170-83DB-662671B1FD8E";
shapes = (
{
closed = 1;
nodes = (
(449.003,0,l),
(449,114,l),
(197,114,l),
(197,700,l),
(61,700,l),
(61,0,l)
);
}
);
userData = {
com.hugojourdan.ColorFlow = {
"0" = 0;
"1" = 0;
"10" = 0;
"11" = 0;
"2" = 0;
"3" = 0;
"4" = 0;
"5" = 1;
"6" = 0;
"7" = 0;
"8" = 0;
"9" = 0;
};
com.hugojourdan.ColorFlow_Color_5 = "5";
};
width = 465.12327;
},
{
anchors = (
{
name = middle;
pos = (133,1);
},
{
name = middleright;
pos = (356,390);
},
{
name = top;
pos = (134,700);
},
{
name = topright;
pos = (471,701);
}
);
layerId = "1458D1BF-5CC5-4794-B60B-1E4EBB5AAB71";
shapes = (
{
closed = 1;
nodes = (
(510,0,l),
(510,81,l),
(181,81,l),
(181,700,l),
(84,700,l),
(84,0,l)
);
}
);
userData = {
com.hugojourdan.ColorFlow = {
"0" = 0;
"1" = 0;
"10" = 0;
"11" = 0;
"2" = 0;
"3" = 0;
"4" = 0;
"5" = 1;
"6" = 0;
"7" = 0;
"8" = 0;
"9" = 0;
};
com.hugojourdan.ColorFlow_Color_5 = "5";
};
width = 540;
},
{
anchors = (
{
name = middle;
pos = (119,1);
},
{
name = middleright;
pos = (283,391);
},
{
name = top;
pos = (120,700);
},
{
name = topright;
pos = (379,701);
}
);
layerId = "14AD7677-08C4-410F-BB6E-8A8C56BA4A50";
shapes = (
{
closed = 1;
nodes = (
(394,0,l),
(394,81,l),
(165,81,l),
(165,700,l),
(68,700,l),
(68,0,l)
);
}
);
userData = {
com.hugojourdan.ColorFlow = {
"0" = 0;
"1" = 0;
"10" = 0;
"11" = 0;
"2" = 0;
"3" = 0;
"4" = 0;
"5" = 1;
"6" = 0;
"7" = 0;
"8" = 0;
"9" = 0;
};
com.hugojourdan.ColorFlow_Color_5 = "5";
};
width = 419;
}
);
unicode = 76;
},
{
color = 10;
glyphname = M;
kernLeft = KO_H;
kernRight = KO_H;
lastChange = "2023-12-26 10:28:06 +0000";
layers = (
{
layerId = "6E968933-CD79-43C6-9231-80D77C940F4D";
shapes = (
{
closed = 1;
nodes = (
(102,0,l),
(102,634,l),
(329,0,l),
(344,0,l),
(571,634,l),
(571,0,l),
(593,0,l),
(593,700,l),
(571,700,l),
(336,41,l),
(101,700,l),
(80,700,l),
(80,0,l)
);
}
);
userData = {
com.hugojourdan.ColorFlow = {
"0" = 0;
"1" = 0;
"10" = 0;
"11" = 0;
"2" = 0;
"3" = 0;
"4" = 0;
"5" = 1;
"6" = 0;
"7" = 0;
"8" = 0;
"9" = 0;
};
com.hugojourdan.ColorFlow_Color_5 = "5";
};
width = 673;
},
{
layerId = "BAF31694-0472-4296-B0EA-1654553C45D2";
shapes = (
{
closed = 1;
nodes = (
(219,0,l),
(219,362,l),
(284,0,l),
(425,0,l),
(489,362,l),
(489,0,l),
(663,0,l),
(663,700,l),
(425,700,l),
(354,318,l),
(284,700,l),
(45,700,l),
(45,0,l)
);
}
);
userData = {
com.hugojourdan.ColorFlow = {
"0" = 0;
"1" = 0;
"10" = 0;
"11" = 0;
"2" = 0;
"3" = 0;
"4" = 0;
"5" = 1;
"6" = 0;
"7" = 0;
"8" = 0;
"9" = 0;
};
com.hugojourdan.ColorFlow_Color_5 = "5";
};
width = 708;
},
{
layerId = m005;
shapes = (
{
closed = 1;
nodes = (
(126,0,l),
(126,651,l),
(438,0,l),
(459,0,l),
(771,651,l),
(771,0,l),
(793,0,l),
(793,700,l),
(771,700,l),
(449,25,l),
(126,700,l),
(104,700,l),
(104,0,l)
);
}
);
userData = {
com.hugojourdan.ColorFlow = {
"0" = 0;
"1" = 0;
"10" = 0;
"11" = 0;
"2" = 0;
"3" = 0;
"4" = 0;
"5" = 1;
"6" = 0;
"7" = 0;
"8" = 0;
"9" = 0;
};
com.hugojourdan.ColorFlow_Color_5 = "5";
};
width = 897.00298;
},
{
layerId = m008;
shapes = (
{
closed = 1;
nodes = (
(231,0,l),
(231,401,l),
(384,0,l),
(526,0,l),
(679,401,l),
(679,0,l),
(853,0,l),
(853,700,l),
(647,700,l),
(455,225,l),
(263,700,l),
(57,700,l),
(57,0,l)
);
}
);
userData = {
com.hugojourdan.ColorFlow = {
"0" = 0;
"1" = 0;
"10" = 0;
"11" = 0;
"2" = 0;
"3" = 0;
"4" = 0;
"5" = 1;
"6" = 0;
"7" = 0;
"8" = 0;
"9" = 0;
};
com.hugojourdan.ColorFlow_Color_5 = "5";
};
width = 910;
},
{
associatedMasterId = m005;
layerId = "35BFCCC7-0127-485D-949D-7DB403A632BB";
shapes = (
{
closed = 1;
nodes = (
(196,0,l),
(196,476,l),
(403,0,l),
(491,0,l),
(698,476,l),
(698,0,l),
(814,0,l),
(814,700,l),
(686,700,l),
(447,153,l),
(209,700,l),
(80,700,l),
(80,0,l)
);
}
);
userData = {
com.hugojourdan.ColorFlow = {
"0" = 0;
"1" = 0;
"10" = 0;
"11" = 0;
"2" = 0;
"3" = 0;
"4" = 0;
"5" = 1;
"6" = 0;
"7" = 0;
"8" = 0;
"9" = 0;
};
com.hugojourdan.ColorFlow_Color_5 = "5";
};
width = 894;
},
{
associatedMasterId = m005;
layerId = "90AB47CF-B91A-4A16-8951-47B05D070D97";
shapes = (
{
closed = 1;
nodes = (
(184,0,l),
(184,460,l),
(338,0,l),
(426,0,l),
(579,460,l),
(579,0,l),
(696,0,l),
(696,700,l),
(559,700,l),
(381,183,l),
(204,700,l),
(68,700,l),
(68,0,l)
);
}
);
userData = {
com.hugojourdan.ColorFlow = {
"0" = 0;
"1" = 0;
"10" = 0;
"11" = 0;
"2" = 0;
"3" = 0;
"4" = 0;
"5" = 1;
"6" = 0;
"7" = 0;
"8" = 0;
"9" = 0;
};
com.hugojourdan.ColorFlow_Color_5 = "5";
};
width = 763.92233;
},
{
associatedMasterId = m005;
layerId = "8FA82795-75ED-4170-83DB-662671B1FD8E";
shapes = (
{
closed = 1;
nodes = (
(197,0,l),
(197,433,l),
(333,0,l),
(439,0,l),
(574,433,l),
(574,0,l),
(710,0,l),
(710,700,l),
(544,700,l),
(385,215,l),
(227,700,l),
(61,700,l),
(61,0,l)
);
}
);
userData = {
com.hugojourdan.ColorFlow = {
"0" = 0;
"1" = 0;
"10" = 0;
"11" = 0;
"2" = 0;
"3" = 0;
"4" = 0;
"5" = 1;
"6" = 0;
"7" = 0;
"8" = 0;
"9" = 0;
};
com.hugojourdan.ColorFlow_Color_5 = "5";
};
width = 771.26543;
},
{
layerId = "1458D1BF-5CC5-4794-B60B-1E4EBB5AAB71";
shapes = (
{
closed = 1;
nodes = (
(181,0,l),
(181,511,l),
(409,0,l),
(483,0,l),
(711,511,l),
(711,0,l),
(808,0,l),
(808,700,l),
(701,700,l),
(446,127,l),
(191,700,l),
(84,700,l),
(84,0,l)
);
}
);
userData = {
com.hugojourdan.ColorFlow = {
"0" = 0;
"1" = 0;
"10" = 0;
"11" = 0;
"2" = 0;
"3" = 0;
"4" = 0;
"5" = 1;
"6" = 0;
"7" = 0;
"8" = 0;
"9" = 0;
};
com.hugojourdan.ColorFlow_Color_5 = "5";
};
width = 892;
},
{
layerId = "14AD7677-08C4-410F-BB6E-8A8C56BA4A50";
shapes = (
{
closed = 1;
nodes = (
(165,0,l),
(165,486,l),
(305,0,l),
(378,0,l),
(518,486,l),
(518,0,l),
(615,0,l),
(615,700,l),
(497,700,l),
(340,171,l),
(184,700,l),
(68,700,l),
(68,0,l)
);
}
);
userData = {
com.hugojourdan.ColorFlow = {
"0" = 0;
"1" = 0;
"10" = 0;
"11" = 0;
"2" = 0;
"3" = 0;
"4" = 0;
"5" = 1;
"6" = 0;
"7" = 0;
"8" = 0;
"9" = 0;
};
com.hugojourdan.ColorFlow_Color_5 = "5";
};
width = 683;
}
);
metricRight = "=|";
unicode = 77;
},
{
color = 10;
glyphname = N;
kernLeft = KO_H;
kernRight = KO_H;
lastChange = "2023-12-26 10:28:06 +0000";
layers = (
{
anchors = (
{
name = bottom;
pos = (277,0);
},
{
name = bottomright;
pos = (474,0);
},
{
name = top;
pos = (277,700);
}
);
layerId = "6E968933-CD79-43C6-9231-80D77C940F4D";
shapes = (
{
closed = 1;
nodes = (
(102,0,l),
(102,644,l),
(458,0,l),
(474,0,l),
(474,700,l),
(452,700,l),
(452,56,l),
(95,700,l),
(80,700,l),
(80,0,l)
);
}
);
userData = {
com.hugojourdan.ColorFlow = {
"0" = 0;
"1" = 0;
"10" = 0;
"11" = 0;
"2" = 0;
"3" = 0;
"4" = 0;
"5" = 1;
"6" = 0;
"7" = 0;
"8" = 0;
"9" = 0;
};
com.hugojourdan.ColorFlow_Color_5 = "5";
};
width = 554;
},
{
anchors = (
{
name = bottom;
pos = (281,1);
},
{
name = bottomright;
pos = (518,0);
},
{
name = top;
pos = (281,700);
}
);
layerId = "BAF31694-0472-4296-B0EA-1654553C45D2";
shapes = (
{
closed = 1;
nodes = (
(219,0,l),
(219,357,l),
(350,0,l),
(518,0,l),
(518,700,l),
(343,700,l),
(343,340,l),
(212,700,l),
(45,700,l),
(45,0,l)
);
}
);
userData = {
com.hugojourdan.ColorFlow = {
"0" = 0;
"1" = 0;
"10" = 0;
"11" = 0;
"2" = 0;
"3" = 0;
"4" = 0;
"5" = 1;
"6" = 0;
"7" = 0;
"8" = 0;
"9" = 0;
};
com.hugojourdan.ColorFlow_Color_5 = "5";
};
width = 563;
},
{
anchors = (
{
name = bottom;
pos = (369,0);
},
{
name = bottomright;
pos = (635,0);
},
{
name = top;
pos = (369,700);
}
);
layerId = m005;
shapes = (
{
closed = 1;
nodes = (
(126,0,l),
(126,663,l),
(614,0,l),
(635,0,l),
(635,700,l),
(613,700,l),
(613,37,l),
(125,700,l),
(104,700,l),
(104,0,l)
);
}
);
userData = {
com.hugojourdan.ColorFlow = {
"0" = 0;
"1" = 0;
"10" = 0;
"11" = 0;
"2" = 0;
"3" = 0;
"4" = 0;
"5" = 1;
"6" = 0;
"7" = 0;
"8" = 0;
"9" = 0;
};
com.hugojourdan.ColorFlow_Color_5 = "5";
};
width = 738.99894;
},
{
anchors = (
{
name = bottom;
pos = (362,1);
},
{
name = bottomright;
pos = (667,0);
},
{
name = top;
pos = (362,700);
}
);
layerId = m008;
shapes = (
{
closed = 1;
nodes = (
(231,0,l),
(231,424,l),
(492,0,l),
(667,0,l),
(667,700,l),
(493,700,l),
(493,273,l),
(232,700,l),
(57,700,l),
(57,0,l)
);
}
);
userData = {
com.hugojourdan.ColorFlow = {
"0" = 0;
"1" = 0;
"10" = 0;
"11" = 0;
"2" = 0;
"3" = 0;
"4" = 0;
"5" = 1;
"6" = 0;
"7" = 0;
"8" = 0;
"9" = 0;
};
com.hugojourdan.ColorFlow_Color_5 = "5";
};
width = 724;
},
{
anchors = (
{
name = bottom;
pos = (362,0);
},
{
name = bottomright;
pos = (644,0);
},
{
name = top;
pos = (362,700);
}
);
associatedMasterId = m005;
layerId = "35BFCCC7-0127-485D-949D-7DB403A632BB";
shapes = (
{
closed = 1;
nodes = (
(196,0,l),
(196,517,l),
(525,0,l),
(644,0,l),
(644,700,l),
(528,700,l),
(528,185,l),
(199,700,l),
(80,700,l),
(80,0,l)
);
}
);
userData = {
com.hugojourdan.ColorFlow = {
"0" = 0;
"1" = 0;
"10" = 0;
"11" = 0;
"2" = 0;
"3" = 0;
"4" = 0;
"5" = 1;
"6" = 0;
"7" = 0;
"8" = 0;
"9" = 0;
};
com.hugojourdan.ColorFlow_Color_5 = "5";
};
width = 724;
},
{
anchors = (
{
name = bottom;
pos = (309,0);
},
{
name = bottomright;
pos = (550,0);
},
{
name = top;
pos = (309,700);
}
);
associatedMasterId = m005;
layerId = "90AB47CF-B91A-4A16-8951-47B05D070D97";
shapes = (
{
closed = 1;
nodes = (
(184,0,l),
(184,479,l),
(436,0,l),
(550,0,l),
(550,700,l),
(434,700,l),
(434,222,l),
(182,700,l),
(68,700,l),
(68,0,l)
);
}
);
userData = {
com.hugojourdan.ColorFlow = {
"0" = 0;
"1" = 0;
"10" = 0;
"11" = 0;
"2" = 0;
"3" = 0;
"4" = 0;
"5" = 1;
"6" = 0;
"7" = 0;
"8" = 0;
"9" = 0;
};
com.hugojourdan.ColorFlow_Color_5 = "5";
};
width = 617.94045;
},
{
anchors = (
{
name = bottom;
pos = (310,0);
},
{
name = bottomright;
pos = (559,0);
},
{
name = top;
pos = (310,700);
}
);
associatedMasterId = m005;
layerId = "8FA82795-75ED-4170-83DB-662671B1FD8E";
shapes = (
{
closed = 1;
nodes = (
(197,0,l),
(197,447,l),
(425,0,l),
(559,0,l),
(559,700,l),
(423,700,l),
(423,253,l),
(195,700,l),
(61,700,l),
(61,0,l)
);
}
);
userData = {
com.hugojourdan.ColorFlow = {
"0" = 0;
"1" = 0;
"10" = 0;
"11" = 0;
"2" = 0;
"3" = 0;
"4" = 0;
"5" = 1;
"6" = 0;
"7" = 0;
"8" = 0;
"9" = 0;
};
com.hugojourdan.ColorFlow_Color_5 = "5";
};
width = 620.04718;
},
{
anchors = (
{
name = bottom;
pos = (362,0);
},
{
name = bottomright;
pos = (641,0);
},
{
name = top;
pos = (362,700);
}
);
layerId = "1458D1BF-5CC5-4794-B60B-1E4EBB5AAB71";
shapes = (
{
closed = 1;
nodes = (
(181,0,l),
(181,546,l),
(541,0,l),
(641,0,l),
(641,700,l),
(543,700,l),
(543,155,l),
(184,700,l),
(84,700,l),
(84,0,l)
);
}
);
userData = {
com.hugojourdan.ColorFlow = {
"0" = 0;
"1" = 0;
"10" = 0;
"11" = 0;
"2" = 0;
"3" = 0;
"4" = 0;
"5" = 1;
"6" = 0;
"7" = 0;
"8" = 0;
"9" = 0;
};
com.hugojourdan.ColorFlow_Color_5 = "5";
};
width = 725;
},
{
anchors = (
{
name = bottom;
pos = (277,0);
},
{
name = bottomright;
pos = (487,0);
},
{
name = top;
pos = (277,700);
}
);
layerId = "14AD7677-08C4-410F-BB6E-8A8C56BA4A50";
shapes = (
{
closed = 1;
nodes = (
(165,0,l),
(165,492,l),
(396,0,l),
(487,0,l),
(487,700,l),
(390,700,l),
(390,209,l),
(160,700,l),
(68,700,l),
(68,0,l)
);
}
);
userData = {
com.hugojourdan.ColorFlow = {
"0" = 0;
"1" = 0;
"10" = 0;
"11" = 0;
"2" = 0;
"3" = 0;
"4" = 0;
"5" = 1;
"6" = 0;
"7" = 0;
"8" = 0;
"9" = 0;
};
com.hugojourdan.ColorFlow_Color_5 = "5";
};
width = 555;
}
);
metricRight = "=|";
unicode = 78;
},
{
color = 10;
glyphname = O;
kernLeft = KO_O;
kernRight = KO_O;
lastChange = "2023-12-26 15:15:52 +0000";
layers = (
{
anchors = (
{
name = "#exit";
pos = (516,350);
},
{
name = center;
pos = (296,350);
},
{
name = ogonek;
pos = (360,0);
},
{
name = top;
pos = (295,700);
}
);
layerId = "6E968933-CD79-43C6-9231-80D77C940F4D";
shapes = (
{
closed = 1;
nodes = (
(471,-7,o),
(538,120,o),
(538,350,cs),
(538,580,o),
(471,707,o),
(296,707,cs),
(121,707,o),
(53,580,o),
(53,350,cs),
(53,120,o),
(121,-7,o),
(296,-7,cs)
);
},
{
closed = 1;
nodes = (
(142,13,o),
(75,120,o),
(75,350,cs),
(75,580,o),
(142,687,o),
(296,687,cs),
(449,687,o),
(516,580,o),
(516,350,cs),
(516,120,o),
(449,13,o),
(296,13,cs)
);
}
);
userData = {
com.hugojourdan.ColorFlow = {
"0" = 0;
"1" = 0;
"10" = 0;
"11" = 0;
"2" = 0;
"3" = 0;
"4" = 0;
"5" = 1;
"6" = 0;
"7" = 0;
"8" = 0;
"9" = 0;
};
com.hugojourdan.ColorFlow_Color_5 = "5";
};
width = 591;
},
{
anchors = (
{
name = "#exit";
pos = (377,350);
},
{
name = center;
pos = (291,350);
},
{
name = ogonek;
pos = (344,0);
},
{
name = top;
pos = (290,700);
}
);
layerId = "BAF31694-0472-4296-B0EA-1654553C45D2";
shapes = (
{
closed = 1;
nodes = (
(477,-7,o),
(554,120,o),
(554,350,cs),
(554,580,o),
(478,707,o),
(291,707,cs),
(107,707,o),
(27,580,o),
(27,350,cs),
(27,120,o),
(107,-7,o),
(291,-7,cs)
);
},
{
closed = 1;
nodes = (
(215,142,o),
(204,210,o),
(204,350,cs),
(204,491,o),
(215,558,o),
(291,558,cs),
(366,558,o),
(377,491,o),
(377,350,cs),
(377,210,o),
(366,142,o),
(291,142,cs)
);
}
);
userData = {
com.hugojourdan.ColorFlow = {
"0" = 0;
"1" = 0;
"10" = 0;
"11" = 0;
"2" = 0;
"3" = 0;
"4" = 0;
"5" = 1;
"6" = 0;
"7" = 0;
"8" = 0;
"9" = 0;
};
com.hugojourdan.ColorFlow_Color_5 = "5";
};
width = 581;
},
{
anchors = (
{
name = "#exit";
pos = (712,350);
},
{
name = center;
pos = (399,350);
},
{
name = ogonek;
pos = (448,0);
},
{
name = top;
pos = (398,700);
}
);
layerId = m005;
shapes = (
{
closed = 1;
nodes = (
(595,-7,o),
(735,140,o),
(735,350,cs),
(735,560,o),
(595,707,o),
(399,707,cs),
(203,707,o),
(62,560,o),
(62,350,cs),
(62,140,o),
(203,-7,o),
(399,-7,cs)
);
},
{
closed = 1;
nodes = (
(224,13,o),
(85,140,o),
(85,350,cs),
(85,560,o),
(224,687,o),
(399,687,cs),
(573,687,o),
(712,560,o),
(712,350,cs),
(712,140,o),
(573,13,o),
(399,13,cs)
);
}
);
userData = {
com.hugojourdan.ColorFlow = {
"0" = 0;
"1" = 0;
"10" = 0;
"11" = 0;
"2" = 0;
"3" = 0;
"4" = 0;
"5" = 1;
"6" = 0;
"7" = 0;
"8" = 0;
"9" = 0;
};
com.hugojourdan.ColorFlow_Color_5 = "5";
};
width = 797.00298;
},
{
anchors = (
{
name = "#exit";
pos = (571,350);
},
{
name = center;
pos = (388,350);
},
{
name = ogonek;
pos = (441,0);
},
{
name = top;
pos = (388,700);
}
);
layerId = m008;
shapes = (
{
closed = 1;
nodes = (
(588,-7,o),
(748,140,o),
(748,350,cs),
(748,560,o),
(589,707,o),
(388,707,cs),
(190,707,o),
(28,560,o),
(28,350,cs),
(28,140,o),
(190,-7,o),
(388,-7,cs)
);
},
{
closed = 1;
nodes = (
(277,142,o),
(205,230,o),
(205,350,cs),
(205,471,o),
(277,558,o),
(388,558,cs),
(498,558,o),
(571,471,o),
(571,350,cs),
(571,230,o),
(498,142,o),
(388,142,cs)
);
}
);
userData = {
com.hugojourdan.ColorFlow = {
"0" = 0;
"1" = 0;
"10" = 0;
"11" = 0;
"2" = 0;
"3" = 0;
"4" = 0;
"5" = 1;
"6" = 0;
"7" = 0;
"8" = 0;
"9" = 0;
};
com.hugojourdan.ColorFlow_Color_5 = "5";
};
width = 776;
},
{
anchors = (
{
name = "#exit";
pos = (635,350);
},
{
name = center;
pos = (398,350);
},
{
name = ogonek;
pos = (448,0);
},
{
name = top;
pos = (398,700);
}
);
associatedMasterId = m005;
layerId = "35BFCCC7-0127-485D-949D-7DB403A632BB";
shapes = (
{
closed = 1;
nodes = (
(596,-7,o),
(753,140,o),
(753,350,cs),
(753,559,o),
(596,707,o),
(398,707,cs),
(202,707,o),
(42,559,o),
(42,350,cs),
(42,140,o),
(202,-7,o),
(398,-7,cs)
);
},
{
closed = 1;
nodes = (
(261,92,o),
(161,193,o),
(161,350,cs),
(161,508,o),
(261,608,o),
(398,608,cs),
(535,608,o),
(635,508,o),
(635,350,cs),
(635,193,o),
(535,92,o),
(398,92,cs)
);
}
);
userData = {
com.hugojourdan.ColorFlow = {
"0" = 0;
"1" = 0;
"10" = 0;
"11" = 0;
"2" = 0;
"3" = 0;
"4" = 0;
"5" = 1;
"6" = 0;
"7" = 0;
"8" = 0;
"9" = 0;
};
com.hugojourdan.ColorFlow_Color_5 = "5";
};
width = 795.27291;
},
{
anchors = (
{
name = "#exit";
pos = (512,350);
},
{
name = center;
pos = (334,350);
},
{
name = ogonek;
pos = (384,0);
},
{
name = top;
pos = (334,700);
}
);
associatedMasterId = m005;
layerId = "90AB47CF-B91A-4A16-8951-47B05D070D97";
shapes = (
{
closed = 1;
nodes = (
(523,-7,o),
(631,128,o),
(631,350,cs),
(631,571,o),
(524,707,o),
(334,707,cs),
(147,707,o),
(37,571,o),
(37,350,cs),
(37,128,o),
(147,-7,o),
(334,-7,cs)
);
},
{
closed = 1;
nodes = (
(214,92,o),
(155,181,o),
(155,350,cs),
(155,520,o),
(214,608,o),
(334,608,cs),
(454,608,o),
(512,520,o),
(512,350,cs),
(512,181,o),
(454,92,o),
(334,92,cs)
);
}
);
userData = {
com.hugojourdan.ColorFlow = {
"0" = 0;
"1" = 0;
"10" = 0;
"11" = 0;
"2" = 0;
"3" = 0;
"4" = 0;
"5" = 1;
"6" = 0;
"7" = 0;
"8" = 0;
"9" = 0;
};
com.hugojourdan.ColorFlow_Color_5 = "5";
};
width = 668.08455;
},
{
anchors = (
{
name = "#exit";
pos = (491,350);
},
{
name = center;
pos = (331,350);
},
{
name = ogonek;
pos = (382,0);
},
{
name = top;
pos = (331,700);
}
);
associatedMasterId = m005;
layerId = "8FA82795-75ED-4170-83DB-662671B1FD8E";
shapes = (
{
closed = 1;
nodes = (
(521,-7,o),
(630,128,o),
(630,350,cs),
(630,571,o),
(522,707,o),
(331,707,cs),
(143,707,o),
(32,571,o),
(32,350,cs),
(32,128,o),
(143,-7,o),
(331,-7,cs)
);
},
{
closed = 1;
nodes = (
(221,109,o),
(170,194,o),
(170,350,cs),
(170,507,o),
(221,591,o),
(331,591,cs),
(441,591,o),
(491,507,o),
(491,350,cs),
(491,194,o),
(441,109,o),
(331,109,cs)
);
}
);
userData = {
com.hugojourdan.ColorFlow = {
"0" = 0;
"1" = 0;
"10" = 0;
"11" = 0;
"2" = 0;
"3" = 0;
"4" = 0;
"5" = 1;
"6" = 0;
"7" = 0;
"8" = 0;
"9" = 0;
};
com.hugojourdan.ColorFlow_Color_5 = "5";
};
width = 661.71535;
},
{
anchors = (
{
name = "#exit";
pos = (652,350);
},
{
name = center;
pos = (399,350);
},
{
name = ogonek;
pos = (449,0);
},
{
name = top;
pos = (399,700);
}
);
layerId = "1458D1BF-5CC5-4794-B60B-1E4EBB5AAB71";
shapes = (
{
closed = 1;
nodes = (
(597,-7,o),
(751,140,o),
(751,350,cs),
(751,559,o),
(597,707,o),
(399,707,cs),
(203,707,o),
(47,559,o),
(47,350,cs),
(47,140,o),
(203,-7,o),
(399,-7,cs)
);
},
{
closed = 1;
nodes = (
(254,76,o),
(146,182,o),
(146,350,cs),
(146,518,o),
(254,624,o),
(399,624,cs),
(544,624,o),
(652,518,o),
(652,350,cs),
(652,182,o),
(544,76,o),
(399,76,cs)
);
}
);
userData = {
com.hugojourdan.ColorFlow = {
"0" = 0;
"1" = 0;
"10" = 0;
"11" = 0;
"2" = 0;
"3" = 0;
"4" = 0;
"5" = 1;
"6" = 0;
"7" = 0;
"8" = 0;
"9" = 0;
};
com.hugojourdan.ColorFlow_Color_5 = "5";
};
width = 798;
},
{
anchors = (
{
name = "#exit";
pos = (454,350);
},
{
name = center;
pos = (298,350);
},
{
name = ogonek;
pos = (351,0);
},
{
name = top;
pos = (298,700);
}
);
layerId = "14AD7677-08C4-410F-BB6E-8A8C56BA4A50";
shapes = (
{
closed = 1;
nodes = (
(480,-7,o),
(553,120,o),
(553,350,cs),
(553,579,o),
(480,707,o),
(298,707,cs),
(117,707,o),
(43,579,o),
(43,350,cs),
(43,120,o),
(117,-7,o),
(298,-7,cs)
);
},
{
closed = 1;
nodes = (
(179,76,o),
(141,162,o),
(141,350,cs),
(141,538,o),
(179,624,o),
(298,624,cs),
(416,624,o),
(454,538,o),
(454,350,cs),
(454,162,o),
(416,76,o),
(298,76,cs)
);
}
);
userData = {
com.hugojourdan.ColorFlow = {
"0" = 0;
"1" = 0;
"10" = 0;
"11" = 0;
"2" = 0;
"3" = 0;
"4" = 0;
"5" = 1;
"6" = 0;
"7" = 0;
"8" = 0;
"9" = 0;
};
com.hugojourdan.ColorFlow_Color_5 = "5";
};
width = 596;
}
);
metricRight = "=|";
unicode = 79;
userData = {
KernOnName = O;
};
},
{
color = 10;
glyphname = P;
kernLeft = KO_H;
kernRight = KO_P;
lastChange = "2023-12-26 10:28:06 +0000";
layers = (
{
layerId = "6E968933-CD79-43C6-9231-80D77C940F4D";
shapes = (
{
closed = 1;
nodes = (
(102,0,l),
(102,305,l),
(280,305,ls),
(386,305,o),
(443,375,o),
(443,503,cs),
(443,619,o),
(402,700,o),
(280,700,cs),
(80,700,l),
(80,0,l)
);
},
{
closed = 1;
nodes = (
(102,680,l),
(274,680,ls),
(382,680,o),
(421,611,o),
(421,503,cs),
(421,401,o),
(382,325,o),
(274,325,cs),
(102,325,l)
);
}
);
userData = {
com.hugojourdan.ColorFlow = {
"0" = 0;
"1" = 0;
"10" = 0;
"11" = 0;
"2" = 0;
"3" = 0;
"4" = 0;
"5" = 1;
"6" = 0;
"7" = 0;
"8" = 0;
"9" = 0;
};
com.hugojourdan.ColorFlow_Color_5 = "5";
};
width = 481;
},
{
layerId = "BAF31694-0472-4296-B0EA-1654553C45D2";
shapes = (
{
closed = 1;
nodes = (
(222,0,l),
(222,243,l),
(312,243,ls),
(442,243,o),
(508,359,o),
(508,472,cs),
(508,594,o),
(442,700,o),
(312,700,cs),
(45,700,l),
(45,0,l)
);
},
{
closed = 1;
nodes = (
(222,554,l),
(272,554,ls),
(306,554,o),
(331,522,o),
(331,472,cs),
(331,419,o),
(306,389,o),
(272,389,cs),
(222,389,l)
);
}
);
userData = {
com.hugojourdan.ColorFlow = {
"0" = 0;
"1" = 0;
"10" = 0;
"11" = 0;
"2" = 0;
"3" = 0;
"4" = 0;
"5" = 1;
"6" = 0;
"7" = 0;
"8" = 0;
"9" = 0;
};
com.hugojourdan.ColorFlow_Color_5 = "5";
};
width = 530;
},
{
layerId = m005;
shapes = (
{
closed = 1;
nodes = (
(126,0,l),
(126,305,l),
(363,305,ls),
(510,305,o),
(589,375,o),
(589,503,cs),
(589,619,o),
(532,700,o),
(363,700,cs),
(104,700,l),
(104,0,l)
);
},
{
closed = 1;
nodes = (
(126,680,l),
(363,680,ls),
(513,680,o),
(567,611,o),
(567,503,cs),
(567,401,o),
(513,325,o),
(363,325,cs),
(126,325,l)
);
}
);
userData = {
com.hugojourdan.ColorFlow = {
"0" = 0;
"1" = 0;
"10" = 0;
"11" = 0;
"2" = 0;
"3" = 0;
"4" = 0;
"5" = 1;
"6" = 0;
"7" = 0;
"8" = 0;
"9" = 0;
};
com.hugojourdan.ColorFlow_Color_5 = "5";
};
width = 640;
},
{
layerId = m008;
shapes = (
{
closed = 1;
nodes = (
(231,0,l),
(231,243,l),
(379,243,ls),
(558,243,o),
(638,359,o),
(638,472,cs),
(638,594,o),
(552,700,o),
(379,700,cs),
(57,700,l),
(57,0,l)
);
},
{
closed = 1;
nodes = (
(231,554,l),
(368,554,ls),
(430,554,o),
(461,522,o),
(461,472,cs),
(461,419,o),
(430,389,o),
(368,389,cs),
(231,389,l)
);
}
);
userData = {
com.hugojourdan.ColorFlow = {
"0" = 0;
"1" = 0;
"10" = 0;
"11" = 0;
"2" = 0;
"3" = 0;
"4" = 0;
"5" = 1;
"6" = 0;
"7" = 0;
"8" = 0;
"9" = 0;
};
com.hugojourdan.ColorFlow_Color_5 = "5";
};
width = 662;
},
{
associatedMasterId = m005;
layerId = "35BFCCC7-0127-485D-949D-7DB403A632BB";
shapes = (
{
closed = 1;
nodes = (
(196,0,l),
(196,279,l),
(352,279,ls),
(533,279,o),
(598,390,o),
(598,489,cs),
(598,604,o),
(517,700,o),
(352,700,cs),
(80,700,l),
(80,0,l)
);
},
{
closed = 1;
nodes = (
(196,603,l),
(352,603,ls),
(440,603,o),
(480,562,o),
(480,489,cs),
(480,419,o),
(440,376,o),
(352,376,cs),
(196,376,l)
);
}
);
userData = {
com.hugojourdan.ColorFlow = {
"0" = 0;
"1" = 0;
"10" = 0;
"11" = 0;
"2" = 0;
"3" = 0;
"4" = 0;
"5" = 1;
"6" = 0;
"7" = 0;
"8" = 0;
"9" = 0;
};
com.hugojourdan.ColorFlow_Color_5 = "5";
};
width = 634.05455;
},
{
associatedMasterId = m005;
layerId = "90AB47CF-B91A-4A16-8951-47B05D070D97";
shapes = (
{
closed = 1;
nodes = (
(184,0,l),
(184,279,l),
(308,279,ls),
(458,279,o),
(516,390,o),
(516,489,cs),
(516,604,o),
(447,700,o),
(308,700,cs),
(68,700,l),
(68,0,l)
);
},
{
closed = 1;
nodes = (
(184,603,l),
(301,603,ls),
(367,603,o),
(398,562,o),
(398,489,cs),
(398,419,o),
(367,376,o),
(301,376,cs),
(184,376,l)
);
}
);
userData = {
com.hugojourdan.ColorFlow = {
"0" = 0;
"1" = 0;
"10" = 0;
"11" = 0;
"2" = 0;
"3" = 0;
"4" = 0;
"5" = 1;
"6" = 0;
"7" = 0;
"8" = 0;
"9" = 0;
};
com.hugojourdan.ColorFlow_Color_5 = "5";
};
width = 542.34815;
},
{
associatedMasterId = m005;
layerId = "8FA82795-75ED-4170-83DB-662671B1FD8E";
shapes = (
{
closed = 1;
nodes = (
(198,0,l),
(198,267,l),
(318,267,ls),
(468,267,o),
(531,379,o),
(531,483,cs),
(531,600,o),
(460,700,o),
(318,700,cs),
(61,700,l),
(61,0,l)
);
},
{
closed = 1;
nodes = (
(198,586,l),
(304,586,ls),
(363,586,o),
(392,548,o),
(392,483,cs),
(392,419,o),
(363,380,o),
(304,380,cs),
(198,380,l)
);
}
);
userData = {
com.hugojourdan.ColorFlow = {
"0" = 0;
"1" = 0;
"10" = 0;
"11" = 0;
"2" = 0;
"3" = 0;
"4" = 0;
"5" = 1;
"6" = 0;
"7" = 0;
"8" = 0;
"9" = 0;
};
com.hugojourdan.ColorFlow_Color_5 = "5";
};
width = 553.24315;
},
{
layerId = "1458D1BF-5CC5-4794-B60B-1E4EBB5AAB71";
shapes = (
{
closed = 1;
nodes = (
(181,0,l),
(181,285,l),
(352,285,ls),
(527,285,o),
(595,388,o),
(595,492,cs),
(595,607,o),
(518,700,o),
(352,700,cs),
(84,700,l),
(84,0,l)
);
},
{
closed = 1;
nodes = (
(181,619,l),
(352,619,ls),
(452,619,o),
(496,572,o),
(496,492,cs),
(496,416,o),
(452,366,o),
(352,366,cs),
(181,366,l)
);
}
);
userData = {
com.hugojourdan.ColorFlow = {
"0" = 0;
"1" = 0;
"10" = 0;
"11" = 0;
"2" = 0;
"3" = 0;
"4" = 0;
"5" = 1;
"6" = 0;
"7" = 0;
"8" = 0;
"9" = 0;
};
com.hugojourdan.ColorFlow_Color_5 = "5";
};
width = 634;
},
{
layerId = "14AD7677-08C4-410F-BB6E-8A8C56BA4A50";
shapes = (
{
closed = 1;
nodes = (
(165,0,l),
(165,285,l),
(281,285,ls),
(407,285,o),
(461,388,o),
(461,492,cs),
(461,607,o),
(403,700,o),
(281,700,cs),
(68,700,l),
(68,0,l)
);
},
{
closed = 1;
nodes = (
(165,619,l),
(272,619,ls),
(334,619,o),
(362,572,o),
(362,492,cs),
(362,416,o),
(334,366,o),
(272,366,cs),
(165,366,l)
);
}
);
userData = {
com.hugojourdan.ColorFlow = {
"0" = 0;
"1" = 0;
"10" = 0;
"11" = 0;
"2" = 0;
"3" = 0;
"4" = 0;
"5" = 1;
"6" = 0;
"7" = 0;
"8" = 0;
"9" = 0;
};
com.hugojourdan.ColorFlow_Color_5 = "5";
};
width = 494;
}
);
unicode = 80;
},
{
color = 10;
glyphname = Thorn;
kernLeft = KO_H;
kernRight = KO_Thorn;
lastChange = "2023-12-26 10:28:06 +0000";
layers = (
{
layerId = "6E968933-CD79-43C6-9231-80D77C940F4D";
shapes = (
{
closed = 1;
nodes = (
(102,0,l),
(102,158,l),
(209,158,ls),
(315,158,o),
(371,221,o),
(371,350,cs),
(371,466,o),
(324,543,o),
(209,543,cs),
(102,543,l),
(102,700,l),
(80,700,l),
(80,0,l)
);
},
{
closed = 1;
nodes = (
(102,522,l),
(203,522,ls),
(311,522,o),
(349,458,o),
(349,350,cs),
(349,247,o),
(311,180,o),
(203,180,cs),
(102,180,l)
);
}
);
userData = {
com.hugojourdan.ColorFlow = {
"0" = 0;
"1" = 0;
"10" = 0;
"11" = 0;
"2" = 0;
"3" = 0;
"4" = 0;
"5" = 1;
"6" = 0;
"7" = 0;
"8" = 0;
"9" = 0;
};
com.hugojourdan.ColorFlow_Color_5 = "5";
};
width = 409;
},
{
layerId = "BAF31694-0472-4296-B0EA-1654553C45D2";
shapes = (
{
closed = 1;
nodes = (
(222,0,l),
(222,132,l),
(276,132,ls),
(407,132,o),
(472,237,o),
(472,351,cs),
(472,477,o),
(404,572,o),
(276,572,cs),
(220,572,l),
(220,700,l),
(45,700,l),
(45,0,l)
);
},
{
closed = 1;
nodes = (
(222,437,l),
(250,437,ls),
(280,437,o),
(292,403,o),
(292,351,cs),
(292,299,o),
(280,264,o),
(250,264,cs),
(222,264,l)
);
}
);
userData = {
com.hugojourdan.ColorFlow = {
"0" = 0;
"1" = 0;
"10" = 0;
"11" = 0;
"2" = 0;
"3" = 0;
"4" = 0;
"5" = 1;
"6" = 0;
"7" = 0;
"8" = 0;
"9" = 0;
};
com.hugojourdan.ColorFlow_Color_5 = "5";
};
width = 494;
},
{
layerId = m005;
shapes = (
{
closed = 1;
nodes = (
(126,0,l),
(126,158,l),
(283,158,ls),
(430,158,o),
(508,221,o),
(508,350,cs),
(508,466,o),
(443,543,o),
(283,543,cs),
(126,543,l),
(126,700,l),
(104,700,l),
(104,0,l)
);
},
{
closed = 1;
nodes = (
(126,522,l),
(283,522,ls),
(433,522,o),
(486,458,o),
(486,350,cs),
(486,247,o),
(433,180,o),
(283,180,cs),
(126,180,l)
);
}
);
userData = {
com.hugojourdan.ColorFlow = {
"0" = 0;
"1" = 0;
"10" = 0;
"11" = 0;
"2" = 0;
"3" = 0;
"4" = 0;
"5" = 1;
"6" = 0;
"7" = 0;
"8" = 0;
"9" = 0;
};
com.hugojourdan.ColorFlow_Color_5 = "5";
};
width = 559;
},
{
layerId = m008;
shapes = (
{
closed = 1;
nodes = (
(234,0,l),
(234,132,l),
(338,132,ls),
(517,132,o),
(597,237,o),
(597,351,cs),
(597,477,o),
(510,572,o),
(338,572,cs),
(232,572,l),
(232,700,l),
(57,700,l),
(57,0,l)
);
},
{
closed = 1;
nodes = (
(234,437,l),
(323,437,ls),
(390,437,o),
(418,403,o),
(418,351,cs),
(418,299,o),
(390,264,o),
(323,264,cs),
(234,264,l)
);
}
);
userData = {
com.hugojourdan.ColorFlow = {
"0" = 0;
"1" = 0;
"10" = 0;
"11" = 0;
"2" = 0;
"3" = 0;
"4" = 0;
"5" = 1;
"6" = 0;
"7" = 0;
"8" = 0;
"9" = 0;
};
com.hugojourdan.ColorFlow_Color_5 = "5";
};
width = 621;
},
{
associatedMasterId = m005;
layerId = "35BFCCC7-0127-485D-949D-7DB403A632BB";
shapes = (
{
closed = 1;
nodes = (
(196,0,l),
(196,143,l),
(322,143,ls),
(503,143,o),
(568,250,o),
(568,350,cs),
(568,464,o),
(487,559,o),
(322,559,cs),
(195,559,l),
(195,700,l),
(80,700,l),
(80,0,l)
);
},
{
closed = 1;
nodes = (
(196,468,l),
(321,468,ls),
(409,468,o),
(449,421,o),
(449,350,cs),
(449,280,o),
(409,233,o),
(321,233,cs),
(196,233,l)
);
}
);
userData = {
com.hugojourdan.ColorFlow = {
"0" = 0;
"1" = 0;
"10" = 0;
"11" = 0;
"2" = 0;
"3" = 0;
"4" = 0;
"5" = 1;
"6" = 0;
"7" = 0;
"8" = 0;
"9" = 0;
};
com.hugojourdan.ColorFlow_Color_5 = "5";
};
width = 602.69091;
},
{
associatedMasterId = m005;
layerId = "90AB47CF-B91A-4A16-8951-47B05D070D97";
shapes = (
{
closed = 1;
nodes = (
(184,0,l),
(184,143,l),
(280,143,ls),
(430,143,o),
(488,250,o),
(488,350,cs),
(488,464,o),
(419,559,o),
(280,559,cs),
(183,559,l),
(183,700,l),
(68,700,l),
(68,0,l)
);
},
{
closed = 1;
nodes = (
(184,468,l),
(271,468,ls),
(339,468,o),
(369,421,o),
(369,350,cs),
(369,280,o),
(339,233,o),
(271,233,cs),
(184,233,l)
);
}
);
userData = {
com.hugojourdan.ColorFlow = {
"0" = 0;
"1" = 0;
"10" = 0;
"11" = 0;
"2" = 0;
"3" = 0;
"4" = 0;
"5" = 1;
"6" = 0;
"7" = 0;
"8" = 0;
"9" = 0;
};
com.hugojourdan.ColorFlow_Color_5 = "5";
};
width = 513.98452;
},
{
associatedMasterId = m005;
layerId = "8FA82795-75ED-4170-83DB-662671B1FD8E";
shapes = (
{
closed = 1;
nodes = (
(198,0,l),
(198,139,l),
(286,139,ls),
(437,139,o),
(499,246,o),
(499,350,cs),
(499,469,o),
(428,563,o),
(286,563,cs),
(196,563,l),
(196,700,l),
(61,700,l),
(61,0,l)
);
},
{
closed = 1;
nodes = (
(198,457,l),
(273,457,ls),
(333,457,o),
(359,415,o),
(359,350,cs),
(359,286,o),
(333,244,o),
(273,244,cs),
(198,244,l)
);
}
);
userData = {
com.hugojourdan.ColorFlow = {
"0" = 0;
"1" = 0;
"10" = 0;
"11" = 0;
"2" = 0;
"3" = 0;
"4" = 0;
"5" = 1;
"6" = 0;
"7" = 0;
"8" = 0;
"9" = 0;
};
com.hugojourdan.ColorFlow_Color_5 = "5";
};
width = 521.60679;
},
{
layerId = "1458D1BF-5CC5-4794-B60B-1E4EBB5AAB71";
shapes = (
{
closed = 1;
nodes = (
(181,0,l),
(181,146,l),
(313,146,ls),
(488,146,o),
(555,245,o),
(555,350,cs),
(555,464,o),
(477,555,o),
(313,555,cs),
(180,555,l),
(180,700,l),
(84,700,l),
(84,0,l)
);
},
{
closed = 1;
nodes = (
(181,479,l),
(313,479,ls),
(413,479,o),
(456,429,o),
(456,350,cs),
(456,273,o),
(413,222,o),
(313,222,cs),
(181,222,l)
);
}
);
userData = {
com.hugojourdan.ColorFlow = {
"0" = 0;
"1" = 0;
"10" = 0;
"11" = 0;
"2" = 0;
"3" = 0;
"4" = 0;
"5" = 1;
"6" = 0;
"7" = 0;
"8" = 0;
"9" = 0;
};
com.hugojourdan.ColorFlow_Color_5 = "5";
};
width = 594;
},
{
layerId = "14AD7677-08C4-410F-BB6E-8A8C56BA4A50";
shapes = (
{
closed = 1;
nodes = (
(165,0,l),
(165,146,l),
(247,146,ls),
(372,146,o),
(426,245,o),
(426,350,cs),
(426,464,o),
(368,555,o),
(247,555,cs),
(164,555,l),
(164,700,l),
(68,700,l),
(68,0,l)
);
},
{
closed = 1;
nodes = (
(165,479,l),
(235,479,ls),
(300,479,o),
(326,429,o),
(326,350,cs),
(326,273,o),
(300,222,o),
(235,222,cs),
(165,222,l)
);
}
);
userData = {
com.hugojourdan.ColorFlow = {
"0" = 0;
"1" = 0;
"10" = 0;
"11" = 0;
"2" = 0;
"3" = 0;
"4" = 0;
"5" = 1;
"6" = 0;
"7" = 0;
"8" = 0;
"9" = 0;
};
com.hugojourdan.ColorFlow_Color_5 = "5";
};
width = 459;
}
);
unicode = 222;
},
{
color = 10;
glyphname = R;
kernLeft = KO_H;
kernRight = KO_R;
lastChange = "2023-12-26 15:15:52 +0000";
layers = (
{
anchors = (
{
name = bottom;
pos = (241,0);
},
{
name = top;
pos = (268,700);
}
);
layerId = "6E968933-CD79-43C6-9231-80D77C940F4D";
shapes = (
{
closed = 1;
nodes = (
(102,0,l),
(102,315,l),
(280,315,ls),
(386,315,o),
(443,382,o),
(443,508,cs),
(443,624,o),
(401,700,o),
(279,700,cs),
(80,700,l),
(80,0,l)
);
},
{
closed = 1;
nodes = (
(450,0,l),
(309,323,l),
(286,323,l),
(427,0,l)
);
},
{
closed = 1;
nodes = (
(102,680,l),
(273,680,ls),
(381,680,o),
(421,615,o),
(421,508,cs),
(421,406,o),
(377,335,o),
(274,335,cs),
(102,335,l)
);
}
);
userData = {
com.hugojourdan.ColorFlow = {
"0" = 0;
"1" = 0;
"10" = 0;
"11" = 0;
"2" = 0;
"3" = 0;
"4" = 0;
"5" = 1;
"6" = 0;
"7" = 0;
"8" = 0;
"9" = 0;
};
com.hugojourdan.ColorFlow_Color_5 = "5";
};
width = 492;
},
{
anchors = (
{
name = bottom;
pos = (273,1);
},
{
name = top;
pos = (271,700);
}
);
layerId = "BAF31694-0472-4296-B0EA-1654553C45D2";
shapes = (
{
closed = 1;
nodes = (
(219,0,l),
(219,253,l),
(312,253,ls),
(442,253,o),
(508,364,o),
(508,477,cs),
(508,599,o),
(442,700,o),
(312,700,cs),
(45,700,l),
(45,0,l)
);
},
{
closed = 1;
nodes = (
(516,0,l),
(389,313,l),
(220,313,l),
(338,0,l)
);
},
{
closed = 1;
nodes = (
(219,554,l),
(271,554,ls),
(305,554,o),
(330,527,o),
(330,477,cs),
(330,424,o),
(305,399,o),
(271,399,cs),
(219,399,l)
);
}
);
userData = {
com.hugojourdan.ColorFlow = {
"0" = 0;
"1" = 0;
"10" = 0;
"11" = 0;
"2" = 0;
"3" = 0;
"4" = 0;
"5" = 1;
"6" = 0;
"7" = 0;
"8" = 0;
"9" = 0;
};
com.hugojourdan.ColorFlow_Color_5 = "5";
};
width = 538;
},
{
anchors = (
{
name = bottom;
pos = (315,0);
},
{
name = top;
pos = (346,700);
}
);
layerId = m005;
shapes = (
{
closed = 1;
nodes = (
(126,0,l),
(126,315,l),
(363,315,ls),
(510,315,o),
(589,382,o),
(589,508,cs),
(589,624,o),
(530,700,o),
(361,700,cs),
(104,700,l),
(104,0,l)
);
},
{
closed = 1;
nodes = (
(599,0,l),
(402,323,l),
(377,323,l),
(574,0,l)
);
},
{
closed = 1;
nodes = (
(126,680,l),
(361,680,ls),
(511,680,o),
(567,615,o),
(567,508,cs),
(567,406,o),
(506,335,o),
(363,335,cs),
(126,335,l)
);
}
);
userData = {
com.hugojourdan.ColorFlow = {
"0" = 0;
"1" = 0;
"10" = 0;
"11" = 0;
"2" = 0;
"3" = 0;
"4" = 0;
"5" = 1;
"6" = 0;
"7" = 0;
"8" = 0;
"9" = 0;
};
com.hugojourdan.ColorFlow_Color_5 = "5";
};
width = 654;
},
{
anchors = (
{
name = bottom;
pos = (338,1);
},
{
name = top;
pos = (335,700);
}
);
layerId = m008;
shapes = (
{
closed = 1;
nodes = (
(231,0,l),
(231,253,l),
(379,253,ls),
(558,253,o),
(638,364,o),
(638,477,cs),
(638,599,o),
(552,700,o),
(379,700,cs),
(57,700,l),
(57,0,l)
);
},
{
closed = 1;
nodes = (
(651,0,l),
(467,313,l),
(285,313,l),
(459,0,l)
);
},
{
closed = 1;
nodes = (
(231,554,l),
(368,554,ls),
(430,554,o),
(461,527,o),
(461,477,cs),
(461,424,o),
(430,399,o),
(368,399,cs),
(231,399,l)
);
}
);
userData = {
com.hugojourdan.ColorFlow = {
"0" = 0;
"1" = 0;
"10" = 0;
"11" = 0;
"2" = 0;
"3" = 0;
"4" = 0;
"5" = 1;
"6" = 0;
"7" = 0;
"8" = 0;
"9" = 0;
};
com.hugojourdan.ColorFlow_Color_5 = "5";
};
width = 674;
},
{
anchors = (
{
name = bottom;
pos = (332,0);
},
{
name = top;
pos = (322,700);
}
);
associatedMasterId = m005;
layerId = "35BFCCC7-0127-485D-949D-7DB403A632BB";
shapes = (
{
closed = 1;
nodes = (
(196,0,l),
(196,289,l),
(352,289,ls),
(533,289,o),
(598,395,o),
(598,494,cs),
(598,609,o),
(517,700,o),
(352,700,cs),
(80,700,l),
(80,0,l)
);
},
{
closed = 1;
nodes = (
(613,0,l),
(422,326,l),
(298,326,l),
(482,0,l)
);
},
{
closed = 1;
nodes = (
(196,603,l),
(352,603,ls),
(440,603,o),
(480,565,o),
(480,494,cs),
(480,425,o),
(440,386,o),
(352,386,cs),
(196,386,l)
);
}
);
userData = {
com.hugojourdan.ColorFlow = {
"0" = 0;
"1" = 0;
"10" = 0;
"11" = 0;
"2" = 0;
"3" = 0;
"4" = 0;
"5" = 1;
"6" = 0;
"7" = 0;
"8" = 0;
"9" = 0;
};
com.hugojourdan.ColorFlow_Color_5 = "5";
};
width = 648.94545;
},
{
anchors = (
{
name = bottom;
pos = (286,0);
},
{
name = top;
pos = (279,700);
}
);
associatedMasterId = m005;
layerId = "90AB47CF-B91A-4A16-8951-47B05D070D97";
shapes = (
{
closed = 1;
nodes = (
(184,0,l),
(184,289,l),
(308,289,ls),
(458,289,o),
(516,395,o),
(516,494,cs),
(516,609,o),
(447,700,o),
(308,700,cs),
(68,700,l),
(68,0,l)
);
},
{
closed = 1;
nodes = (
(528,0,l),
(371,326,l),
(252,326,l),
(402,0,l)
);
},
{
closed = 1;
nodes = (
(184,603,l),
(301,603,ls),
(367,603,o),
(399,565,o),
(399,494,cs),
(399,425,o),
(367,386,o),
(301,386,cs),
(184,386,l)
);
}
);
userData = {
com.hugojourdan.ColorFlow = {
"0" = 0;
"1" = 0;
"10" = 0;
"11" = 0;
"2" = 0;
"3" = 0;
"4" = 0;
"5" = 1;
"6" = 0;
"7" = 0;
"8" = 0;
"9" = 0;
};
com.hugojourdan.ColorFlow_Color_5 = "5";
};
width = 556.02736;
},
{
anchors = (
{
name = bottom;
pos = (290,0);
},
{
name = top;
pos = (285,700);
}
);
associatedMasterId = m005;
layerId = "8FA82795-75ED-4170-83DB-662671B1FD8E";
shapes = (
{
closed = 1;
nodes = (
(197,0,l),
(197,277,l),
(318,277,ls),
(468,277,o),
(531,384,o),
(531,488,cs),
(531,605,o),
(460,700,o),
(318,700,cs),
(61,700,l),
(61,0,l)
);
},
{
closed = 1;
nodes = (
(542,0,l),
(387,322,l),
(249,322,l),
(396,0,l)
);
},
{
closed = 1;
nodes = (
(197,586,l),
(304,586,ls),
(363,586,o),
(393,552,o),
(393,488,cs),
(393,425,o),
(363,390,o),
(304,390,cs),
(197,390,l)
);
}
);
userData = {
com.hugojourdan.ColorFlow = {
"0" = 0;
"1" = 0;
"10" = 0;
"11" = 0;
"2" = 0;
"3" = 0;
"4" = 0;
"5" = 1;
"6" = 0;
"7" = 0;
"8" = 0;
"9" = 0;
};
com.hugojourdan.ColorFlow_Color_5 = "5";
};
width = 565.76503;
},
{
anchors = (
{
name = bottom;
pos = (328,0);
},
{
name = top;
pos = (325,700);
}
);
layerId = "1458D1BF-5CC5-4794-B60B-1E4EBB5AAB71";
shapes = (
{
closed = 1;
nodes = (
(181,0,l),
(181,295,l),
(352,295,ls),
(527,295,o),
(595,393,o),
(595,497,cs),
(595,612,o),
(518,700,o),
(352,700,cs),
(84,700,l),
(84,0,l)
);
},
{
closed = 1;
nodes = (
(609,0,l),
(416,326,l),
(312,326,l),
(499,0,l)
);
},
{
closed = 1;
nodes = (
(181,619,l),
(352,619,ls),
(452,619,o),
(496,575,o),
(496,497,cs),
(496,422,o),
(451,376,o),
(352,376,cs),
(181,376,l)
);
}
);
userData = {
com.hugojourdan.ColorFlow = {
"0" = 0;
"1" = 0;
"10" = 0;
"11" = 0;
"2" = 0;
"3" = 0;
"4" = 0;
"5" = 1;
"6" = 0;
"7" = 0;
"8" = 0;
"9" = 0;
};
com.hugojourdan.ColorFlow_Color_5 = "5";
};
width = 649;
},
{
anchors = (
{
name = bottom;
pos = (256,0);
},
{
name = top;
pos = (257,700);
}
);
layerId = "14AD7677-08C4-410F-BB6E-8A8C56BA4A50";
shapes = (
{
closed = 1;
nodes = (
(165,0,l),
(165,295,l),
(281,295,ls),
(407,295,o),
(461,393,o),
(461,497,cs),
(461,612,o),
(403,700,o),
(281,700,cs),
(68,700,l),
(68,0,l)
);
},
{
closed = 1;
nodes = (
(470,0,l),
(334,326,l),
(237,326,l),
(368,0,l)
);
},
{
closed = 1;
nodes = (
(165,619,l),
(272,619,ls),
(334,619,o),
(363,575,o),
(363,497,cs),
(363,422,o),
(333,376,o),
(272,376,cs),
(165,376,l)
);
}
);
userData = {
com.hugojourdan.ColorFlow = {
"0" = 0;
"1" = 0;
"10" = 0;
"11" = 0;
"2" = 0;
"3" = 0;
"4" = 0;
"5" = 1;
"6" = 0;
"7" = 0;
"8" = 0;
"9" = 0;
};
com.hugojourdan.ColorFlow_Color_5 = "5";
};
width = 504;
}
);
unicode = 82;
userData = {
KernOnName = R;
};
},
{
color = 10;
glyphname = S;
kernLeft = KO_S;
kernRight = KO_S;
lastChange = "2023-12-26 15:15:52 +0000";
layers = (
{
anchors = (
{
name = bottom;
pos = (210,0);
},
{
name = center;
pos = (215,350);
},
{
name = top;
pos = (210,700);
}
);
layerId = "6E968933-CD79-43C6-9231-80D77C940F4D";
shapes = (
{
closed = 1;
nodes = (
(324,-7,o),
(385,55,o),
(385,160,cs),
(385,255,o),
(328,324,o),
(220,366,cs),
(130,401,o),
(70,461,o),
(70,537,cs),
(70,623,o),
(128,687,o),
(215,687,cs),
(292,687,o),
(338,649,o),
(356,571,c),
(376,575,l),
(359,661,o),
(303,707,o),
(214,707,cs),
(116,707,o),
(47,639,o),
(47,533,cs),
(47,452,o),
(108,383,o),
(213,344,cs),
(311,308,o),
(363,240,o),
(363,158,cs),
(363,65,o),
(311,14,o),
(217,14,cs),
(127,14,o),
(81,54,o),
(61,146,c),
(41,141,l),
(59,42,o),
(117,-7,o),
(218,-7,cs)
);
}
);
userData = {
com.hugojourdan.ColorFlow = {
"0" = 0;
"1" = 0;
"10" = 0;
"11" = 0;
"2" = 0;
"3" = 0;
"4" = 0;
"5" = 1;
"6" = 0;
"7" = 0;
"8" = 0;
"9" = 0;
};
com.hugojourdan.ColorFlow_Color_5 = "5";
};
width = 426;
},
{
anchors = (
{
name = bottom;
pos = (241,-2);
},
{
name = center;
pos = (239,350);
},
{
name = top;
pos = (241,700);
}
);
layerId = "BAF31694-0472-4296-B0EA-1654553C45D2";
shapes = (
{
closed = 1;
nodes = (
(373,-7,o),
(450,73,o),
(450,193,cs),
(450,321,o),
(363,377,o),
(303,409,cs),
(232,447,o),
(203,464,o),
(203,507,cs),
(203,546,o),
(218,568,o),
(245,568,cs),
(269,568,o),
(283,550,o),
(285,510,c),
(439,521,l),
(428,638,o),
(364,707,o),
(235,707,cs),
(113,707,o),
(33,629,o),
(33,509,cs),
(33,408,o),
(89,349,o),
(178,302,cs),
(258,260,o),
(276,239,o),
(276,194,cs),
(276,153,o),
(262,134,o),
(229,134,cs),
(195,134,o),
(181,158,o),
(178,213,c),
(23,202,l),
(26,72,o),
(105,-7,o),
(243,-7,cs)
);
}
);
userData = {
com.hugojourdan.ColorFlow = {
"0" = 0;
"1" = 0;
"10" = 0;
"11" = 0;
"2" = 0;
"3" = 0;
"4" = 0;
"5" = 1;
"6" = 0;
"7" = 0;
"8" = 0;
"9" = 0;
};
com.hugojourdan.ColorFlow_Color_5 = "5";
};
width = 473;
},
{
anchors = (
{
name = bottom;
pos = (284,0);
},
{
name = center;
pos = (294,350);
},
{
name = top;
pos = (284,700);
}
);
layerId = m005;
shapes = (
{
closed = 1;
nodes = (
(459,-7,o),
(520,76,o),
(520,170,cs),
(520,291,o),
(419,331,o),
(298,365,cs),
(184,397,o),
(87,424,o),
(87,527,cs),
(87,630,o),
(182,687,o),
(290,687,cs),
(412,687,o),
(467,624,o),
(486,571,c),
(506,576,l),
(487,639,o),
(419,707,o),
(290,707,cs),
(152,707,o),
(66,630,o),
(66,523,cs),
(66,407,o),
(169,378,o),
(288,345,cs),
(403,313,o),
(498,274,o),
(498,168,cs),
(498,77,o),
(428,14,o),
(293,14,cs),
(139,14,o),
(89,96,o),
(75,154,c),
(56,149,l),
(73,68,o),
(142,-7,o),
(295,-7,cs)
);
}
);
userData = {
com.hugojourdan.ColorFlow = {
"0" = 0;
"1" = 0;
"10" = 0;
"11" = 0;
"2" = 0;
"3" = 0;
"4" = 0;
"5" = 1;
"6" = 0;
"7" = 0;
"8" = 0;
"9" = 0;
};
com.hugojourdan.ColorFlow_Color_5 = "5";
};
width = 576;
},
{
anchors = (
{
name = bottom;
pos = (306,-2);
},
{
name = center;
pos = (302,350);
},
{
name = top;
pos = (304,700);
}
);
layerId = m008;
shapes = (
{
closed = 1;
nodes = (
(487,-7,o),
(572,85,o),
(572,202,cs),
(572,350,o),
(435,388,o),
(326,420,cs),
(264,438,o),
(217,459,o),
(217,502,cs),
(217,542,o),
(258,568,o),
(306,568,cs),
(345,568,o),
(391,549,o),
(397,501,c),
(559,521,l),
(540,642,o),
(444,707,o),
(299,707,cs),
(150,707,o),
(40,635,o),
(40,502,cs),
(40,358,o),
(167,321,o),
(273,291,cs),
(344,271,o),
(395,254,o),
(395,204,cs),
(395,163,o),
(360,134,o),
(297,134,cs),
(242,134,o),
(196,155,o),
(188,218,c),
(25,198,l),
(35,64,o),
(147,-7,o),
(309,-7,cs)
);
}
);
userData = {
com.hugojourdan.ColorFlow = {
"0" = 0;
"1" = 0;
"10" = 0;
"11" = 0;
"2" = 0;
"3" = 0;
"4" = 0;
"5" = 1;
"6" = 0;
"7" = 0;
"8" = 0;
"9" = 0;
};
com.hugojourdan.ColorFlow_Color_5 = "5";
};
width = 598;
},
{
anchors = (
{
name = bottom;
pos = (292,-7);
},
{
name = center;
pos = (290,350);
},
{
name = top;
pos = (288,700);
}
);
associatedMasterId = m005;
layerId = "35BFCCC7-0127-485D-949D-7DB403A632BB";
shapes = (
{
closed = 1;
nodes = (
(453,-7,o),
(533,86,o),
(533,201,cs),
(533,345,o),
(408,384,o),
(298,417,cs),
(225,439,o),
(166,458,o),
(166,518,cs),
(166,575,o),
(218,608,o),
(286,608,cs),
(350,608,o),
(400,574,o),
(413,530,c),
(520,567,l),
(488,658,o),
(402,707,o),
(285,707,cs),
(145,707,o),
(48,636,o),
(48,509,cs),
(48,384,o),
(151,347,o),
(260,315,cs),
(354,287,o),
(415,258,o),
(415,191,cs),
(415,137,o),
(374,92,o),
(289,92,cs),
(206,92,o),
(159,135,o),
(147,191,c),
(40,154,l),
(62,55,o),
(163,-7,o),
(293,-7,cs)
);
}
);
userData = {
com.hugojourdan.ColorFlow = {
"0" = 0;
"1" = 0;
"10" = 0;
"11" = 0;
"2" = 0;
"3" = 0;
"4" = 0;
"5" = 1;
"6" = 0;
"7" = 0;
"8" = 0;
"9" = 0;
};
com.hugojourdan.ColorFlow_Color_5 = "5";
};
width = 573.8;
},
{
anchors = (
{
name = bottom;
pos = (247,-7);
},
{
name = center;
pos = (244,350);
},
{
name = top;
pos = (245,700);
}
);
associatedMasterId = m005;
layerId = "90AB47CF-B91A-4A16-8951-47B05D070D97";
shapes = (
{
closed = 1;
nodes = (
(381,-7,o),
(455,76,o),
(455,198,cs),
(455,314,o),
(369,373,o),
(256,418,cs),
(195,441,o),
(154,469,o),
(154,521,cs),
(154,578,o),
(191,608,o),
(244,608,cs),
(292,608,o),
(325,580,o),
(336,532,c),
(443,567,l),
(418,657,o),
(344,707,o),
(241,707,cs),
(118,707,o),
(38,635,o),
(38,512,cs),
(38,411,o),
(111,356,o),
(220,315,cs),
(294,287,o),
(337,250,o),
(337,188,cs),
(337,130,o),
(304,92,o),
(244,92,cs),
(187,92,o),
(150,125,o),
(138,191,c),
(31,159,l),
(49,60,o),
(131,-7,o),
(249,-7,cs)
);
}
);
userData = {
com.hugojourdan.ColorFlow = {
"0" = 0;
"1" = 0;
"10" = 0;
"11" = 0;
"2" = 0;
"3" = 0;
"4" = 0;
"5" = 1;
"6" = 0;
"7" = 0;
"8" = 0;
"9" = 0;
};
com.hugojourdan.ColorFlow_Color_5 = "5";
};
width = 485.6351;
},
{
anchors = (
{
name = bottom;
pos = (251,-5);
},
{
name = center;
pos = (248,350);
},
{
name = top;
pos = (249,700);
}
);
associatedMasterId = m005;
layerId = "8FA82795-75ED-4170-83DB-662671B1FD8E";
shapes = (
{
closed = 1;
nodes = (
(391,-7,o),
(467,77,o),
(467,198,cs),
(467,319,o),
(375,376,o),
(272,416,cs),
(209,442,o),
(170,467,o),
(170,516,cs),
(170,567,o),
(203,595,o),
(250,595,cs),
(291,595,o),
(322,570,o),
(331,524,c),
(454,555,l),
(431,653,o),
(354,707,o),
(245,707,cs),
(119,707,o),
(34,634,o),
(34,510,cs),
(34,403,o),
(112,350,o),
(216,309,cs),
(290,280,o),
(329,248,o),
(329,192,cs),
(329,139,o),
(300,106,o),
(245,106,cs),
(194,106,o),
(161,135,o),
(150,197,c),
(26,167,l),
(44,61,o),
(130,-7,o),
(253,-7,cs)
);
}
);
userData = {
com.hugojourdan.ColorFlow = {
"0" = 0;
"1" = 0;
"10" = 0;
"11" = 0;
"2" = 0;
"3" = 0;
"4" = 0;
"5" = 1;
"6" = 0;
"7" = 0;
"8" = 0;
"9" = 0;
};
com.hugojourdan.ColorFlow_Color_5 = "5";
};
width = 493.36164;
},
{
anchors = (
{
name = bottom;
pos = (292,-6);
},
{
name = center;
pos = (293,350);
},
{
name = top;
pos = (288,700);
}
);
layerId = "1458D1BF-5CC5-4794-B60B-1E4EBB5AAB71";
shapes = (
{
closed = 1;
nodes = (
(455,-7,o),
(532,84,o),
(532,195,cs),
(532,335,o),
(411,374,o),
(299,407,cs),
(218,431,o),
(152,452,o),
(152,520,cs),
(152,586,o),
(212,624,o),
(288,624,cs),
(363,624,o),
(416,582,o),
(430,537,c),
(520,565,l),
(491,653,o),
(408,707,o),
(288,707,cs),
(148,707,o),
(53,635,o),
(53,512,cs),
(53,389,o),
(156,354,o),
(267,321,cs),
(365,293,o),
(433,261,o),
(433,187,cs),
(433,125,o),
(387,76,o),
(292,76,cs),
(194,76,o),
(146,128,o),
(135,185,c),
(44,159,l),
(61,60,o),
(158,-7,o),
(295,-7,cs)
);
}
);
userData = {
com.hugojourdan.ColorFlow = {
"0" = 0;
"1" = 0;
"10" = 0;
"11" = 0;
"2" = 0;
"3" = 0;
"4" = 0;
"5" = 1;
"6" = 0;
"7" = 0;
"8" = 0;
"9" = 0;
};
com.hugojourdan.ColorFlow_Color_5 = "5";
};
width = 576;
},
{
anchors = (
{
name = bottom;
pos = (224,-6);
},
{
name = center;
pos = (222,350);
},
{
name = top;
pos = (223,700);
}
);
layerId = "14AD7677-08C4-410F-BB6E-8A8C56BA4A50";
shapes = (
{
closed = 1;
nodes = (
(339,-7,o),
(407,68,o),
(407,189,cs),
(407,285,o),
(349,358,o),
(234,408,cs),
(175,434,o),
(140,474,o),
(140,526,cs),
(140,587,o),
(173,624,o),
(224,624,cs),
(272,624,o),
(302,593,o),
(308,538,c),
(399,556,l),
(387,651,o),
(321,707,o),
(221,707,cs),
(113,707,o),
(43,634,o),
(43,517,cs),
(43,433,o),
(98,367,o),
(205,320,cs),
(273,292,o),
(308,244,o),
(308,181,cs),
(308,115,o),
(276,76,o),
(222,76,cs),
(170,76,o),
(135,108,o),
(125,184,c),
(36,166,l),
(44,64,o),
(113,-7,o),
(228,-7,cs)
);
}
);
userData = {
com.hugojourdan.ColorFlow = {
"0" = 0;
"1" = 0;
"10" = 0;
"11" = 0;
"2" = 0;
"3" = 0;
"4" = 0;
"5" = 1;
"6" = 0;
"7" = 0;
"8" = 0;
"9" = 0;
};
com.hugojourdan.ColorFlow_Color_5 = "5";
};
width = 444;
}
);
unicode = 83;
userData = {
KernOnName = S;
};
},
{
color = 0;
glyphname = Germandbls;
kernLeft = KO_H;
lastChange = "2023-12-26 10:28:06 +0000";
layers = (
{
layerId = "6E968933-CD79-43C6-9231-80D77C940F4D";
shapes = (
{
closed = 1;
nodes = (
(441,-7,o),
(485,82,o),
(485,177,cs),
(485,305,o),
(410,370,o),
(255,370,c),
(446,680,l),
(446,700,l),
(80,700,l),
(80,0,l),
(102,0,l),
(102,680,l),
(424,680,l),
(232,370,l),
(232,350,l),
(255,350,ls),
(389,350,o),
(464,296,o),
(464,176,cs),
(464,95,o),
(429,13,o),
(321,13,cs),
(228,13,o),
(188,72,o),
(185,151,c),
(163,151,l),
(167,60,o),
(219,-7,o),
(322,-7,cs)
);
}
);
userData = {
com.hugojourdan.ColorFlow = {
"0" = 0;
"1" = 0;
"10" = 0;
"11" = 0;
"2" = 0;
"3" = 0;
"4" = 0;
"5" = 0;
"6" = 0;
"7" = 0;
"8" = 0;
"9" = 0;
};
};
width = 522;
},
{
layerId = "BAF31694-0472-4296-B0EA-1654553C45D2";
shapes = (
{
closed = 1;
nodes = (
(507,-7,o),
(554,100,o),
(554,218,cs),
(554,364,o),
(483,422,o),
(395,422,c),
(482,582,l),
(482,700,l),
(45,700,l),
(45,0,l),
(219,0,l),
(219,555,l),
(344,555,l),
(252,390,l),
(252,290,l),
(327,290,ls),
(379,290,o),
(402,261,o),
(402,215,cs),
(402,162,o),
(390,139,o),
(368,139,cs),
(347,139,o),
(335,159,o),
(331,194,c),
(185,194,l),
(185,50,o),
(280,-7,o),
(367,-7,cs)
);
}
);
userData = {
com.hugojourdan.ColorFlow = {
"0" = 0;
"1" = 0;
"10" = 0;
"11" = 0;
"2" = 0;
"3" = 0;
"4" = 0;
"5" = 0;
"6" = 0;
"7" = 0;
"8" = 0;
"9" = 0;
};
};
width = 577;
},
{
layerId = m005;
shapes = (
{
closed = 1;
nodes = (
(574,-7,o),
(628,82,o),
(628,177,cs),
(628,305,o),
(531,370,o),
(331,370,c),
(581,680,l),
(581,700,l),
(104,700,l),
(104,0,l),
(126,0,l),
(126,680,l),
(556,680,l),
(305,370,l),
(305,350,l),
(332,350,ls),
(506,350,o),
(606,296,o),
(606,176,cs),
(606,95,o),
(560,13,o),
(418,13,cs),
(296,13,o),
(239,72,o),
(234,151,c),
(212,151,l),
(218,60,o),
(285,-7,o),
(419,-7,cs)
);
}
);
userData = {
com.hugojourdan.ColorFlow = {
"0" = 0;
"1" = 0;
"10" = 0;
"11" = 0;
"2" = 0;
"3" = 0;
"4" = 0;
"5" = 0;
"6" = 0;
"7" = 0;
"8" = 0;
"9" = 0;
};
};
width = 679;
},
{
layerId = m008;
shapes = (
{
closed = 1;
nodes = (
(602,-7,o),
(662,100,o),
(662,218,cs),
(662,364,o),
(570,422,o),
(470,422,c),
(595,582,l),
(595,700,l),
(57,700,l),
(57,0,l),
(231,0,l),
(231,555,l),
(430,555,l),
(299,390,l),
(299,290,l),
(404,290,ls),
(460,290,o),
(492,266,o),
(492,210,cs),
(492,162,o),
(476,139,o),
(448,139,cs),
(422,139,o),
(409,159,o),
(404,194,c),
(246,194,l),
(246,50,o),
(335,-7,o),
(448,-7,cs)
);
}
);
userData = {
com.hugojourdan.ColorFlow = {
"0" = 0;
"1" = 0;
"10" = 0;
"11" = 0;
"2" = 0;
"3" = 0;
"4" = 0;
"5" = 0;
"6" = 0;
"7" = 0;
"8" = 0;
"9" = 0;
};
};
width = 687;
},
{
associatedMasterId = m005;
layerId = "35BFCCC7-0127-485D-949D-7DB403A632BB";
shapes = (
{
closed = 1;
nodes = (
(544,-7,o),
(631,52,o),
(631,196,cs),
(631,346,o),
(536,402,o),
(402,402,c),
(571,630,l),
(571,700,l),
(80,700,l),
(80,0,l),
(191,0,l),
(191,603,l),
(436,603,l),
(275,377,l),
(275,307,l),
(375,307,ls),
(465,307,o),
(512,274,o),
(512,194,cs),
(512,118,o),
(469,90,o),
(423,90,cs),
(378,90,o),
(349,116,o),
(348,165,c),
(231,165,l),
(231,42,o),
(315,-7,o),
(425,-7,cs)
);
}
);
userData = {
com.hugojourdan.ColorFlow = {
"0" = 0;
"1" = 0;
"10" = 0;
"11" = 0;
"2" = 0;
"3" = 0;
"4" = 0;
"5" = 0;
"6" = 0;
"7" = 0;
"8" = 0;
"9" = 0;
};
};
width = 668.69091;
},
{
associatedMasterId = m005;
layerId = "90AB47CF-B91A-4A16-8951-47B05D070D97";
shapes = (
{
closed = 1;
nodes = (
(477,-8,o),
(543,51,o),
(543,195,cs),
(543,345,o),
(465,401,o),
(360,401,c),
(493,630,l),
(493,699,l),
(68,699,l),
(68,-1,l),
(182,-1,l),
(182,603,l),
(374,603,l),
(247,376,l),
(247,307,l),
(330,307,ls),
(396,307,o),
(429,270,o),
(429,196,cs),
(429,113,o),
(403,89,o),
(371,89,cs),
(337,89,o),
(319,115,o),
(318,164,c),
(208,164,l),
(208,42,o),
(280,-8,o),
(371,-8,cs)
);
}
);
userData = {
com.hugojourdan.ColorFlow = {
"0" = 0;
"1" = 0;
"10" = 0;
"11" = 0;
"2" = 0;
"3" = 0;
"4" = 0;
"5" = 0;
"6" = 0;
"7" = 0;
"8" = 0;
"9" = 0;
};
};
width = 572.53554;
},
{
associatedMasterId = m005;
layerId = "8FA82795-75ED-4170-83DB-662671B1FD8E";
shapes = (
{
closed = 1;
nodes = (
(499,-7,o),
(560,68,o),
(560,203,cs),
(560,352,o),
(481,408,o),
(382,408,c),
(504,613,l),
(504,700,l),
(61,700,l),
(61,0,l),
(196,0,l),
(196,586,l),
(375,586,l),
(255,381,l),
(255,301,l),
(339,301,ls),
(400,301,o),
(430,267,o),
(430,202,cs),
(430,130,o),
(410,106,o),
(381,106,cs),
(350,106,o),
(335,130,o),
(333,174,c),
(209,174,l),
(209,44,o),
(287,-7,o),
(380,-7,cs)
);
}
);
userData = {
com.hugojourdan.ColorFlow = {
"0" = 0;
"1" = 0;
"10" = 0;
"11" = 0;
"2" = 0;
"3" = 0;
"4" = 0;
"5" = 0;
"6" = 0;
"7" = 0;
"8" = 0;
"9" = 0;
};
};
width = 585.42316;
},
{
layerId = "1458D1BF-5CC5-4794-B60B-1E4EBB5AAB71";
shapes = (
{
closed = 1;
nodes = (
(547,-7,o),
(629,56,o),
(629,192,cs),
(629,338,o),
(533,395,o),
(385,395,c),
(571,641,l),
(571,700,l),
(84,700,l),
(84,0,l),
(177,0,l),
(177,619,l),
(457,619,l),
(279,375,l),
(279,316,l),
(365,316,ls),
(472,316,o),
(529,278,o),
(529,190,cs),
(529,112,o),
(485,74,o),
(420,74,cs),
(360,74,o),
(326,106,o),
(324,162,c),
(226,162,l),
(227,45,o),
(308,-7,o),
(422,-7,cs)
);
}
);
userData = {
com.hugojourdan.ColorFlow = {
"0" = 0;
"1" = 0;
"10" = 0;
"11" = 0;
"2" = 0;
"3" = 0;
"4" = 0;
"5" = 0;
"6" = 0;
"7" = 0;
"8" = 0;
"9" = 0;
};
};
width = 670;
},
{
layerId = "14AD7677-08C4-410F-BB6E-8A8C56BA4A50";
shapes = (
{
closed = 1;
nodes = (
(435,-8,o),
(486,55,o),
(486,191,cs),
(486,337,o),
(418,394,o),
(320,394,c),
(444,640,l),
(444,699,l),
(68,699,l),
(68,-1,l),
(165,-1,l),
(165,618,l),
(353,618,l),
(232,374,l),
(232,315,l),
(295,315,ls),
(361,315,o),
(393,272,o),
(393,193,cs),
(393,106,o),
(376,73,o),
(337,73,cs),
(297,73,o),
(281,105,o),
(280,161,c),
(191,161,l),
(192,44,o),
(253,-8,o),
(335,-8,cs)
);
}
);
userData = {
com.hugojourdan.ColorFlow = {
"0" = 0;
"1" = 0;
"10" = 0;
"11" = 0;
"2" = 0;
"3" = 0;
"4" = 0;
"5" = 0;
"6" = 0;
"7" = 0;
"8" = 0;
"9" = 0;
};
};
width = 522;
}
);
unicode = 7838;
},
{
color = 10;
glyphname = T;
kernLeft = KO_T;
kernRight = KO_T;
lastChange = "2023-12-26 15:15:52 +0000";
layers = (
{
anchors = (
{
name = bottom;
pos = (214,0);
},
{
name = top;
pos = (214,700);
}
);
layerId = "6E968933-CD79-43C6-9231-80D77C940F4D";
shapes = (
{
closed = 1;
nodes = (
(226,0,l),
(226,680,l),
(409,680,l),
(409,700,l),
(20,700,l),
(20,680,l),
(204,680,l),
(204,0,l)
);
}
);
userData = {
com.hugojourdan.ColorFlow = {
"0" = 0;
"1" = 0;
"10" = 0;
"11" = 0;
"2" = 0;
"3" = 0;
"4" = 0;
"5" = 1;
"6" = 0;
"7" = 0;
"8" = 0;
"9" = 0;
};
com.hugojourdan.ColorFlow_Color_5 = "5";
};
width = 429;
},
{
anchors = (
{
name = bottom;
pos = (262,1);
},
{
name = top;
pos = (262,700);
}
);
layerId = "BAF31694-0472-4296-B0EA-1654553C45D2";
shapes = (
{
closed = 1;
nodes = (
(350,0,l),
(350,554,l),
(502,554,l),
(502,700,l),
(22,700,l),
(22,554,l),
(175,554,l),
(175,0,l)
);
}
);
userData = {
com.hugojourdan.ColorFlow = {
"0" = 0;
"1" = 0;
"10" = 0;
"11" = 0;
"2" = 0;
"3" = 0;
"4" = 0;
"5" = 1;
"6" = 0;
"7" = 0;
"8" = 0;
"9" = 0;
};
com.hugojourdan.ColorFlow_Color_5 = "5";
};
width = 524;
},
{
anchors = (
{
name = bottom;
pos = (286,0);
},
{
name = top;
pos = (286,700);
}
);
layerId = m005;
shapes = (
{
closed = 1;
nodes = (
(298,0,l),
(298,680,l),
(542,680,l),
(542,700,l),
(31,700,l),
(31,680,l),
(276,680,l),
(276,0,l)
);
}
);
userData = {
com.hugojourdan.ColorFlow = {
"0" = 0;
"1" = 0;
"10" = 0;
"11" = 0;
"2" = 0;
"3" = 0;
"4" = 0;
"5" = 1;
"6" = 0;
"7" = 0;
"8" = 0;
"9" = 0;
};
com.hugojourdan.ColorFlow_Color_5 = "5";
};
width = 572.99635;
},
{
anchors = (
{
name = bottom;
pos = (327,1);
},
{
name = top;
pos = (327,700);
}
);
layerId = m008;
shapes = (
{
closed = 1;
nodes = (
(415,0,l),
(415,554,l),
(632,554,l),
(632,700,l),
(23,700,l),
(23,554,l),
(241,554,l),
(241,0,l)
);
}
);
userData = {
com.hugojourdan.ColorFlow = {
"0" = 0;
"1" = 0;
"10" = 0;
"11" = 0;
"2" = 0;
"3" = 0;
"4" = 0;
"5" = 1;
"6" = 0;
"7" = 0;
"8" = 0;
"9" = 0;
};
com.hugojourdan.ColorFlow_Color_5 = "5";
};
width = 655;
},
{
anchors = (
{
name = bottom;
pos = (299,0);
},
{
name = top;
pos = (301,700);
}
);
associatedMasterId = m005;
layerId = "35BFCCC7-0127-485D-949D-7DB403A632BB";
shapes = (
{
closed = 1;
nodes = (
(359,0,l),
(359,603,l),
(574,603,l),
(574,700,l),
(27,700,l),
(27,603,l),
(243,603,l),
(243,0,l)
);
}
);
userData = {
com.hugojourdan.ColorFlow = {
"0" = 0;
"1" = 0;
"10" = 0;
"11" = 0;
"2" = 0;
"3" = 0;
"4" = 0;
"5" = 1;
"6" = 0;
"7" = 0;
"8" = 0;
"9" = 0;
};
com.hugojourdan.ColorFlow_Color_5 = "5";
};
width = 601.03626;
},
{
anchors = (
{
name = bottom;
pos = (251,0);
},
{
name = top;
pos = (252,700);
}
);
associatedMasterId = m005;
layerId = "90AB47CF-B91A-4A16-8951-47B05D070D97";
shapes = (
{
closed = 1;
nodes = (
(311,0,l),
(311,603,l),
(489,603,l),
(489,700,l),
(17,700,l),
(17,603,l),
(196,603,l),
(196,0,l)
);
}
);
userData = {
com.hugojourdan.ColorFlow = {
"0" = 0;
"1" = 0;
"10" = 0;
"11" = 0;
"2" = 0;
"3" = 0;
"4" = 0;
"5" = 1;
"6" = 0;
"7" = 0;
"8" = 0;
"9" = 0;
};
com.hugojourdan.ColorFlow_Color_5 = "5";
};
width = 506.22459;
},
{
anchors = (
{
name = bottom;
pos = (259,0);
},
{
name = top;
pos = (260,700);
}
);
associatedMasterId = m005;
layerId = "8FA82795-75ED-4170-83DB-662671B1FD8E";
shapes = (
{
closed = 1;
nodes = (
(330,0,l),
(330,586,l),
(508,586,l),
(508,700,l),
(16,700,l),
(16,586,l),
(195,586,l),
(195,0,l)
);
}
);
userData = {
com.hugojourdan.ColorFlow = {
"0" = 0;
"1" = 0;
"10" = 0;
"11" = 0;
"2" = 0;
"3" = 0;
"4" = 0;
"5" = 1;
"6" = 0;
"7" = 0;
"8" = 0;
"9" = 0;
};
com.hugojourdan.ColorFlow_Color_5 = "5";
};
width = 524.37591;
},
{
anchors = (
{
name = bottom;
pos = (299,0);
},
{
name = top;
pos = (299,700);
}
);
layerId = "1458D1BF-5CC5-4794-B60B-1E4EBB5AAB71";
shapes = (
{
closed = 1;
nodes = (
(348,0,l),
(348,619,l),
(568,619,l),
(568,700,l),
(30,700,l),
(30,619,l),
(251,619,l),
(251,0,l)
);
}
);
userData = {
com.hugojourdan.ColorFlow = {
"0" = 0;
"1" = 0;
"10" = 0;
"11" = 0;
"2" = 0;
"3" = 0;
"4" = 0;
"5" = 1;
"6" = 0;
"7" = 0;
"8" = 0;
"9" = 0;
};
com.hugojourdan.ColorFlow_Color_5 = "5";
};
width = 598;
},
{
anchors = (
{
name = bottom;
pos = (231,0);
},
{
name = top;
pos = (231,700);
}
);
layerId = "14AD7677-08C4-410F-BB6E-8A8C56BA4A50";
shapes = (
{
closed = 1;
nodes = (
(280,0,l),
(280,619,l),
(438,619,l),
(438,700,l),
(25,700,l),
(25,619,l),
(183,619,l),
(183,0,l)
);
}
);
userData = {
com.hugojourdan.ColorFlow = {
"0" = 0;
"1" = 0;
"10" = 0;
"11" = 0;
"2" = 0;
"3" = 0;
"4" = 0;
"5" = 1;
"6" = 0;
"7" = 0;
"8" = 0;
"9" = 0;
};
com.hugojourdan.ColorFlow_Color_5 = "5";
};
width = 463;
}
);
metricRight = "=|";
unicode = 84;
userData = {
KernOnName = T;
};
},
{
color = 10;
glyphname = U;
kernLeft = KO_U;
kernRight = KO_U;
lastChange = "2023-12-26 15:15:52 +0000";
layers = (
{
anchors = (
{
name = ogonek;
pos = (311,0);
},
{
name = top;
pos = (265,700);
}
);
layerId = "6E968933-CD79-43C6-9231-80D77C940F4D";
shapes = (
{
closed = 1;
nodes = (
(377,-7,o),
(464,73,o),
(464,265,cs),
(464,700,l),
(442,700,l),
(442,265,ls),
(442,80,o),
(360,13,o),
(267,13,cs),
(174,13,o),
(92,80,o),
(92,265,cs),
(92,700,l),
(70,700,l),
(70,265,ls),
(70,73,o),
(157,-7,o),
(267,-7,cs)
);
}
);
userData = {
com.hugojourdan.ColorFlow = {
"0" = 0;
"1" = 0;
"10" = 0;
"11" = 0;
"2" = 0;
"3" = 0;
"4" = 0;
"5" = 1;
"6" = 0;
"7" = 0;
"8" = 0;
"9" = 0;
};
com.hugojourdan.ColorFlow_Color_5 = "5";
};
width = 534;
},
{
anchors = (
{
name = ogonek;
pos = (337,2);
},
{
name = top;
pos = (271,700);
}
);
layerId = "BAF31694-0472-4296-B0EA-1654553C45D2";
shapes = (
{
closed = 1;
nodes = (
(422,-7,o),
(510,90,o),
(510,284,cs),
(510,700,l),
(336,700,l),
(336,268,ls),
(336,187,o),
(322,142,o),
(274,142,cs),
(226,142,o),
(212,187,o),
(212,268,cs),
(212,700,l),
(38,700,l),
(38,284,ls),
(38,90,o),
(126,-7,o),
(274,-7,cs)
);
}
);
userData = {
com.hugojourdan.ColorFlow = {
"0" = 0;
"1" = 0;
"10" = 0;
"11" = 0;
"2" = 0;
"3" = 0;
"4" = 0;
"5" = 1;
"6" = 0;
"7" = 0;
"8" = 0;
"9" = 0;
};
com.hugojourdan.ColorFlow_Color_5 = "5";
};
width = 548;
},
{
anchors = (
{
name = ogonek;
pos = (416,0);
},
{
name = top;
pos = (352,700);
}
);
layerId = m005;
shapes = (
{
closed = 1;
nodes = (
(493,-7,o),
(620,72.995,o),
(620,265,cs),
(620,700,l),
(598,700,l),
(598,265,ls),
(598,79.995,o),
(478,13,o),
(355,13,cs),
(232,13,o),
(112,79.995,o),
(112,265,cs),
(112,700,l),
(90,700,l),
(90,265,ls),
(90,72.995,o),
(217,-7,o),
(355,-7,cs)
);
}
);
userData = {
com.hugojourdan.ColorFlow = {
"0" = 0;
"1" = 0;
"10" = 0;
"11" = 0;
"2" = 0;
"3" = 0;
"4" = 0;
"5" = 1;
"6" = 0;
"7" = 0;
"8" = 0;
"9" = 0;
};
com.hugojourdan.ColorFlow_Color_5 = "5";
};
width = 710.00046;
},
{
anchors = (
{
name = ogonek;
pos = (431,2);
},
{
name = top;
pos = (348,700);
}
);
layerId = m008;
shapes = (
{
closed = 1;
nodes = (
(513,-7,o),
(656,90,o),
(656,284,cs),
(656,700,l),
(482,700,l),
(482,268,ls),
(482,187,o),
(431,142,o),
(351,142,cs),
(271,142,o),
(220,187,o),
(220,268,cs),
(220,700,l),
(46,700,l),
(46,284,ls),
(46,90,o),
(189,-7,o),
(351,-7,cs)
);
}
);
userData = {
com.hugojourdan.ColorFlow = {
"0" = 0;
"1" = 0;
"10" = 0;
"11" = 0;
"2" = 0;
"3" = 0;
"4" = 0;
"5" = 1;
"6" = 0;
"7" = 0;
"8" = 0;
"9" = 0;
};
com.hugojourdan.ColorFlow_Color_5 = "5";
};
width = 702;
},
{
anchors = (
{
name = ogonek;
pos = (423,0);
},
{
name = top;
pos = (350,700);
}
);
associatedMasterId = m005;
layerId = "35BFCCC7-0127-485D-949D-7DB403A632BB";
shapes = (
{
closed = 1;
nodes = (
(496,-7,o),
(633,77,o),
(633,256,cs),
(633,700,l),
(517,700,l),
(517,254,ls),
(517,146,o),
(447,92,o),
(351,92,cs),
(255,92,o),
(184,146,o),
(184,254,cs),
(184,700,l),
(68,700,l),
(68,256,ls),
(68,77,o),
(206,-7,o),
(351,-7,cs)
);
}
);
userData = {
com.hugojourdan.ColorFlow = {
"0" = 0;
"1" = 0;
"10" = 0;
"11" = 0;
"2" = 0;
"3" = 0;
"4" = 0;
"5" = 1;
"6" = 0;
"7" = 0;
"8" = 0;
"9" = 0;
};
com.hugojourdan.ColorFlow_Color_5 = "5";
};
width = 701.03636;
},
{
anchors = (
{
name = ogonek;
pos = (360,0);
},
{
name = top;
pos = (297,700);
}
);
associatedMasterId = m005;
layerId = "90AB47CF-B91A-4A16-8951-47B05D070D97";
shapes = (
{
closed = 1;
nodes = (
(435,-7,o),
(539,77,o),
(539,256,cs),
(539,700,l),
(423,700,l),
(423,254,ls),
(423,146,o),
(376,92,o),
(299,92,cs),
(222,92,o),
(174,146,o),
(174,254,cs),
(174,700,l),
(57,700,l),
(57,256,ls),
(57,77,o),
(163,-7,o),
(299,-7,cs)
);
}
);
userData = {
com.hugojourdan.ColorFlow = {
"0" = 0;
"1" = 0;
"10" = 0;
"11" = 0;
"2" = 0;
"3" = 0;
"4" = 0;
"5" = 1;
"6" = 0;
"7" = 0;
"8" = 0;
"9" = 0;
};
com.hugojourdan.ColorFlow_Color_5 = "5";
};
width = 596;
},
{
anchors = (
{
name = ogonek;
pos = (364,1);
},
{
name = top;
pos = (298,700);
}
);
associatedMasterId = m005;
layerId = "8FA82795-75ED-4170-83DB-662671B1FD8E";
shapes = (
{
closed = 1;
nodes = (
(442,-7,o),
(548,82,o),
(548,266,cs),
(548,700,l),
(412,700,l),
(412,259,ls),
(412,160,o),
(371,109,o),
(300,109,cs),
(228,109,o),
(187,160,o),
(187,259,cs),
(187,700,l),
(51,700,l),
(51,266,ls),
(51,82,o),
(158,-7,o),
(300,-7,cs)
);
}
);
userData = {
com.hugojourdan.ColorFlow = {
"0" = 0;
"1" = 0;
"10" = 0;
"11" = 0;
"2" = 0;
"3" = 0;
"4" = 0;
"5" = 1;
"6" = 0;
"7" = 0;
"8" = 0;
"9" = 0;
};
com.hugojourdan.ColorFlow_Color_5 = "5";
};
width = 598.83573;
},
{
anchors = (
{
name = ogonek;
pos = (421,0);
},
{
name = top;
pos = (349,700);
}
);
layerId = "1458D1BF-5CC5-4794-B60B-1E4EBB5AAB71";
shapes = (
{
closed = 1;
nodes = (
(494,-7,o),
(629,76,o),
(629,257,cs),
(629,700,l),
(532,700,l),
(532,255,ls),
(532,132,o),
(453,76,o),
(351,76,cs),
(249,76,o),
(169,132,o),
(169,255,cs),
(169,700,l),
(72,700,l),
(72,257,ls),
(72,76,o),
(208,-7,o),
(351,-7,cs)
);
}
);
userData = {
com.hugojourdan.ColorFlow = {
"0" = 0;
"1" = 0;
"10" = 0;
"11" = 0;
"2" = 0;
"3" = 0;
"4" = 0;
"5" = 1;
"6" = 0;
"7" = 0;
"8" = 0;
"9" = 0;
};
com.hugojourdan.ColorFlow_Color_5 = "5";
};
width = 701;
},
{
anchors = (
{
name = ogonek;
pos = (321,0);
},
{
name = top;
pos = (267,700);
}
);
layerId = "14AD7677-08C4-410F-BB6E-8A8C56BA4A50";
shapes = (
{
closed = 1;
nodes = (
(395,-7,o),
(478,76,o),
(478,257,cs),
(478,700,l),
(380,700,l),
(380,255,ls),
(380,132,o),
(339,76,o),
(269,76,cs),
(199,76,o),
(156,132,o),
(156,255,cs),
(156,700,l),
(59,700,l),
(59,257,ls),
(59,76,o),
(143,-7,o),
(269,-7,cs)
);
}
);
userData = {
com.hugojourdan.ColorFlow = {
"0" = 0;
"1" = 0;
"10" = 0;
"11" = 0;
"2" = 0;
"3" = 0;
"4" = 0;
"5" = 1;
"6" = 0;
"7" = 0;
"8" = 0;
"9" = 0;
};
com.hugojourdan.ColorFlow_Color_5 = "5";
};
width = 537;
}
);
metricRight = "=|";
unicode = 85;
userData = {
KernOnName = U;
};
},
{
color = 10;
glyphname = V;
kernLeft = KO_V;
kernRight = KO_V;
lastChange = "2023-12-26 15:15:52 +0000";
layers = (
{
layerId = "6E968933-CD79-43C6-9231-80D77C940F4D";
shapes = (
{
closed = 1;
nodes = (
(264,0,l),
(488,700,l),
(465,700,l),
(256,47,l),
(47,700,l),
(24,700,l),
(248,0,l)
);
}
);
userData = {
com.hugojourdan.ColorFlow = {
"0" = 0;
"1" = 0;
"10" = 0;
"11" = 0;
"2" = 0;
"3" = 0;
"4" = 0;
"5" = 1;
"6" = 0;
"7" = 0;
"8" = 0;
"9" = 0;
};
com.hugojourdan.ColorFlow_Color_5 = "5";
};
width = 512;
},
{
layerId = "BAF31694-0472-4296-B0EA-1654553C45D2";
shapes = (
{
closed = 1;
nodes = (
(400,0,l),
(570,700,l),
(397,700,l),
(298,186,l),
(199,700,l),
(18,700,l),
(189,0,l)
);
}
);
userData = {
com.hugojourdan.ColorFlow = {
"0" = 0;
"1" = 0;
"10" = 0;
"11" = 0;
"2" = 0;
"3" = 0;
"4" = 0;
"5" = 1;
"6" = 0;
"7" = 0;
"8" = 0;
"9" = 0;
};
com.hugojourdan.ColorFlow_Color_5 = "5";
};
width = 588;
},
{
layerId = m005;
shapes = (
{
closed = 1;
nodes = (
(357,0,l),
(656,700,l),
(631,700,l),
(346,30,l),
(60,700,l),
(35,700,l),
(335,0,l)
);
}
);
userData = {
com.hugojourdan.ColorFlow = {
"0" = 0;
"1" = 0;
"10" = 0;
"11" = 0;
"2" = 0;
"3" = 0;
"4" = 0;
"5" = 1;
"6" = 0;
"7" = 0;
"8" = 0;
"9" = 0;
};
com.hugojourdan.ColorFlow_Color_5 = "5";
};
width = 691.00496;
},
{
layerId = m008;
shapes = (
{
closed = 1;
nodes = (
(477,0,l),
(725,700,l),
(546,700,l),
(375,176,l),
(203,700,l),
(16,700,l),
(264,0,l)
);
}
);
userData = {
com.hugojourdan.ColorFlow = {
"0" = 0;
"1" = 0;
"10" = 0;
"11" = 0;
"2" = 0;
"3" = 0;
"4" = 0;
"5" = 1;
"6" = 0;
"7" = 0;
"8" = 0;
"9" = 0;
};
com.hugojourdan.ColorFlow_Color_5 = "5";
};
width = 741;
},
{
associatedMasterId = m005;
layerId = "35BFCCC7-0127-485D-949D-7DB403A632BB";
shapes = (
{
closed = 1;
nodes = (
(415,0,l),
(676,700,l),
(558,700,l),
(353,119,l),
(147,700,l),
(24,700,l),
(285,0,l)
);
}
);
userData = {
com.hugojourdan.ColorFlow = {
"0" = 0;
"1" = 0;
"10" = 0;
"11" = 0;
"2" = 0;
"3" = 0;
"4" = 0;
"5" = 1;
"6" = 0;
"7" = 0;
"8" = 0;
"9" = 0;
};
com.hugojourdan.ColorFlow_Color_5 = "5";
};
width = 699.56357;
},
{
associatedMasterId = m005;
layerId = "90AB47CF-B91A-4A16-8951-47B05D070D97";
shapes = (
{
closed = 1;
nodes = (
(360,0,l),
(573,700,l),
(458,700,l),
(298,130,l),
(137,700,l),
(16,700,l),
(229,0,l)
);
}
);
userData = {
com.hugojourdan.ColorFlow = {
"0" = 0;
"1" = 0;
"10" = 0;
"11" = 0;
"2" = 0;
"3" = 0;
"4" = 0;
"5" = 1;
"6" = 0;
"7" = 0;
"8" = 0;
"9" = 0;
};
com.hugojourdan.ColorFlow_Color_5 = "5";
};
width = 589.19869;
},
{
associatedMasterId = m005;
layerId = "8FA82795-75ED-4170-83DB-662671B1FD8E";
shapes = (
{
closed = 1;
nodes = (
(381,0,l),
(590,700,l),
(454,700,l),
(305,148,l),
(156,700,l),
(14,700,l),
(223,0,l)
);
}
);
userData = {
com.hugojourdan.ColorFlow = {
"0" = 0;
"1" = 0;
"10" = 0;
"11" = 0;
"2" = 0;
"3" = 0;
"4" = 0;
"5" = 1;
"6" = 0;
"7" = 0;
"8" = 0;
"9" = 0;
};
com.hugojourdan.ColorFlow_Color_5 = "5";
};
width = 603.79767;
},
{
layerId = "1458D1BF-5CC5-4794-B60B-1E4EBB5AAB71";
shapes = (
{
closed = 1;
nodes = (
(405,0,l),
(673,700,l),
(573,700,l),
(353,101,l),
(131,700,l),
(28,700,l),
(297,0,l)
);
}
);
userData = {
com.hugojourdan.ColorFlow = {
"0" = 0;
"1" = 0;
"10" = 0;
"11" = 0;
"2" = 0;
"3" = 0;
"4" = 0;
"5" = 1;
"6" = 0;
"7" = 0;
"8" = 0;
"9" = 0;
};
com.hugojourdan.ColorFlow_Color_5 = "5";
};
width = 701;
},
{
layerId = "14AD7677-08C4-410F-BB6E-8A8C56BA4A50";
shapes = (
{
closed = 1;
nodes = (
(322,0,l),
(512,700,l),
(416,700,l),
(271,119,l),
(125,700,l),
(25,700,l),
(215,0,l)
);
}
);
userData = {
com.hugojourdan.ColorFlow = {
"0" = 0;
"1" = 0;
"10" = 0;
"11" = 0;
"2" = 0;
"3" = 0;
"4" = 0;
"5" = 1;
"6" = 0;
"7" = 0;
"8" = 0;
"9" = 0;
};
com.hugojourdan.ColorFlow_Color_5 = "5";
};
width = 537;
}
);
metricRight = "=|";
unicode = 86;
userData = {
KernOnName = V;
};
},
{
color = 10;
glyphname = W;
kernLeft = KO_W;
kernRight = KO_W;
lastChange = "2023-12-26 10:28:06 +0000";
layers = (
{
anchors = (
{
name = bottom;
pos = (346,0);
},
{
name = top;
pos = (346,700);
}
);
layerId = "6E968933-CD79-43C6-9231-80D77C940F4D";
shapes = (
{
closed = 1;
nodes = (
(200,0,l),
(346,644,l),
(492,0,l),
(511,0,l),
(662,700,l),
(639,700,l),
(501,57,l),
(356,700,l),
(335,700,l),
(191,56,l),
(52,700,l),
(29,700,l),
(181,0,l)
);
}
);
userData = {
com.hugojourdan.ColorFlow = {
"0" = 0;
"1" = 0;
"10" = 0;
"11" = 0;
"2" = 0;
"3" = 0;
"4" = 0;
"5" = 1;
"6" = 0;
"7" = 0;
"8" = 0;
"9" = 0;
};
com.hugojourdan.ColorFlow_Color_5 = "5";
};
width = 691;
},
{
anchors = (
{
name = bottom;
pos = (400,0);
},
{
name = top;
pos = (400,700);
}
);
layerId = "BAF31694-0472-4296-B0EA-1654553C45D2";
shapes = (
{
closed = 1;
nodes = (
(348,0,l),
(400,453,l),
(452,0,l),
(664,0,l),
(781,700,l),
(597,700,l),
(555,206,l),
(495,700,l),
(309,700,l),
(245,205,l),
(203,700,l),
(19,700,l),
(136,0,l)
);
}
);
userData = {
com.hugojourdan.ColorFlow = {
"0" = 0;
"1" = 0;
"10" = 0;
"11" = 0;
"2" = 0;
"3" = 0;
"4" = 0;
"5" = 1;
"6" = 0;
"7" = 0;
"8" = 0;
"9" = 0;
};
com.hugojourdan.ColorFlow_Color_5 = "5";
};
width = 800;
},
{
anchors = (
{
name = bottom;
pos = (468,0);
},
{
name = top;
pos = (468,700);
}
);
layerId = m005;
shapes = (
{
closed = 1;
nodes = (
(261,0,l),
(469,664,l),
(677,0,l),
(698,0,l),
(897,700,l),
(874,700,l),
(687,41,l),
(481,700,l),
(457,700,l),
(251,41,l),
(64,700,l),
(40,700,l),
(240,0,l)
);
}
);
userData = {
com.hugojourdan.ColorFlow = {
"0" = 0;
"1" = 0;
"10" = 0;
"11" = 0;
"2" = 0;
"3" = 0;
"4" = 0;
"5" = 1;
"6" = 0;
"7" = 0;
"8" = 0;
"9" = 0;
};
com.hugojourdan.ColorFlow_Color_5 = "5";
};
width = 937.00298;
},
{
anchors = (
{
name = bottom;
pos = (522,0);
},
{
name = top;
pos = (522,700);
}
);
layerId = m008;
shapes = (
{
closed = 1;
nodes = (
(410,0,l),
(521,453,l),
(632,0,l),
(846,0,l),
(1025,700,l),
(835,700,l),
(737,206,l),
(620,700,l),
(426,700,l),
(306,205,l),
(207,700,l),
(18,700,l),
(197,0,l)
);
}
);
userData = {
com.hugojourdan.ColorFlow = {
"0" = 0;
"1" = 0;
"10" = 0;
"11" = 0;
"2" = 0;
"3" = 0;
"4" = 0;
"5" = 1;
"6" = 0;
"7" = 0;
"8" = 0;
"9" = 0;
};
com.hugojourdan.ColorFlow_Color_5 = "5";
};
width = 1043;
},
{
anchors = (
{
name = bottom;
pos = (509,0);
},
{
name = top;
pos = (509,700);
}
);
associatedMasterId = m005;
layerId = "35BFCCC7-0127-485D-949D-7DB403A632BB";
shapes = (
{
closed = 1;
nodes = (
(359,0,l),
(508,526,l),
(657,0,l),
(788,0,l),
(989,700,l),
(865,700,l),
(723,135,l),
(573,700,l),
(442,700,l),
(293,133,l),
(150,700,l),
(27,700,l),
(227,0,l)
);
}
);
userData = {
com.hugojourdan.ColorFlow = {
"0" = 0;
"1" = 0;
"10" = 0;
"11" = 0;
"2" = 0;
"3" = 0;
"4" = 0;
"5" = 1;
"6" = 0;
"7" = 0;
"8" = 0;
"9" = 0;
};
com.hugojourdan.ColorFlow_Color_5 = "5";
};
width = 1016.01806;
},
{
anchors = (
{
name = bottom;
pos = (426,0);
},
{
name = top;
pos = (426,700);
}
);
associatedMasterId = m005;
layerId = "90AB47CF-B91A-4A16-8951-47B05D070D97";
shapes = (
{
closed = 1;
nodes = (
(312,0,l),
(426,520,l),
(539,0,l),
(671,0,l),
(832,700,l),
(711,700,l),
(604,141,l),
(488,700,l),
(363,700,l),
(247,139,l),
(139,700,l),
(19,700,l),
(180,0,l)
);
}
);
userData = {
com.hugojourdan.ColorFlow = {
"0" = 0;
"1" = 0;
"10" = 0;
"11" = 0;
"2" = 0;
"3" = 0;
"4" = 0;
"5" = 1;
"6" = 0;
"7" = 0;
"8" = 0;
"9" = 0;
};
com.hugojourdan.ColorFlow_Color_5 = "5";
};
width = 851.11171;
},
{
anchors = (
{
name = bottom;
pos = (431,0);
},
{
name = top;
pos = (431,700);
}
);
associatedMasterId = m005;
layerId = "8FA82795-75ED-4170-83DB-662671B1FD8E";
shapes = (
{
closed = 1;
nodes = (
(330,0,l),
(431,497,l),
(531,0,l),
(691,0,l),
(845,700,l),
(702,700,l),
(610,163,l),
(505,700,l),
(358,700,l),
(252,161,l),
(158.995,700,l),
(16,700,l),
(171,0,l)
);
}
);
userData = {
com.hugojourdan.ColorFlow = {
"0" = 0;
"1" = 0;
"10" = 0;
"11" = 0;
"2" = 0;
"3" = 0;
"4" = 0;
"5" = 1;
"6" = 0;
"7" = 0;
"8" = 0;
"9" = 0;
};
com.hugojourdan.ColorFlow_Color_5 = "5";
};
width = 861;
},
{
anchors = (
{
name = bottom;
pos = (502,0);
},
{
name = top;
pos = (502,700);
}
);
layerId = "1458D1BF-5CC5-4794-B60B-1E4EBB5AAB71";
shapes = (
{
closed = 1;
nodes = (
(340,0,l),
(501,554,l),
(662,0,l),
(771,0,l),
(972,700,l),
(868,700,l),
(717,115,l),
(555,700,l),
(447,700,l),
(286,114,l),
(134,700,l),
(30,700,l),
(231,0,l)
);
}
);
userData = {
com.hugojourdan.ColorFlow = {
"0" = 0;
"1" = 0;
"10" = 0;
"11" = 0;
"2" = 0;
"3" = 0;
"4" = 0;
"5" = 1;
"6" = 0;
"7" = 0;
"8" = 0;
"9" = 0;
};
com.hugojourdan.ColorFlow_Color_5 = "5";
};
width = 1002;
},
{
anchors = (
{
name = bottom;
pos = (376,0);
},
{
name = top;
pos = (376,700);
}
);
layerId = "14AD7677-08C4-410F-BB6E-8A8C56BA4A50";
shapes = (
{
closed = 1;
nodes = (
(274,0,l),
(376,542,l),
(477,0,l),
(586,0,l),
(725,700,l),
(626,700,l),
(530,126,l),
(427,700,l),
(325,700,l),
(221,125,l),
(126,700,l),
(27,700,l),
(166,0,l)
);
}
);
userData = {
com.hugojourdan.ColorFlow = {
"0" = 0;
"1" = 0;
"10" = 0;
"11" = 0;
"2" = 0;
"3" = 0;
"4" = 0;
"5" = 1;
"6" = 0;
"7" = 0;
"8" = 0;
"9" = 0;
};
com.hugojourdan.ColorFlow_Color_5 = "5";
};
width = 752;
}
);
metricRight = "=|";
unicode = 87;
},
{
color = 10;
glyphname = X;
kernLeft = KO_X;
kernRight = KO_X;
lastChange = "2023-12-26 15:15:52 +0000";
layers = (
{
layerId = "6E968933-CD79-43C6-9231-80D77C940F4D";
shapes = (
{
closed = 1;
nodes = (
(49,0,l),
(245,329,l),
(442,0,l),
(466,0,l),
(256,350,l),
(466,700,l),
(442,700,l),
(245,371,l),
(49,700,l),
(25,700,l),
(235,350,l),
(25,0,l)
);
}
);
userData = {
com.hugojourdan.ColorFlow = {
"0" = 0;
"1" = 0;
"10" = 0;
"11" = 0;
"2" = 0;
"3" = 0;
"4" = 0;
"5" = 1;
"6" = 0;
"7" = 0;
"8" = 0;
"9" = 0;
};
com.hugojourdan.ColorFlow_Color_5 = "5";
};
width = 491;
},
{
layerId = "BAF31694-0472-4296-B0EA-1654553C45D2";
shapes = (
{
closed = 1;
nodes = (
(206,0,l),
(304,221,l),
(394,0,l),
(579,0,l),
(413,350,l),
(579,700,l),
(394,700,l),
(304,479,l),
(206,700,l),
(17,700,l),
(196,350,l),
(17,0,l)
);
}
);
userData = {
com.hugojourdan.ColorFlow = {
"0" = 0;
"1" = 0;
"10" = 0;
"11" = 0;
"2" = 0;
"3" = 0;
"4" = 0;
"5" = 1;
"6" = 0;
"7" = 0;
"8" = 0;
"9" = 0;
};
com.hugojourdan.ColorFlow_Color_5 = "5";
};
width = 597;
},
{
layerId = m005;
shapes = (
{
closed = 1;
nodes = (
(62,0,l),
(329,332,l),
(596,0,l),
(623,0,l),
(341,350,l),
(623,700,l),
(596,700,l),
(329,368,l),
(62,700,l),
(35,700,l),
(317,350,l),
(35,0,l)
);
}
);
userData = {
com.hugojourdan.ColorFlow = {
"0" = 0;
"1" = 0;
"10" = 0;
"11" = 0;
"2" = 0;
"3" = 0;
"4" = 0;
"5" = 1;
"6" = 0;
"7" = 0;
"8" = 0;
"9" = 0;
};
com.hugojourdan.ColorFlow_Color_5 = "5";
};
width = 658;
},
{
layerId = m008;
shapes = (
{
closed = 1;
nodes = (
(219,0,l),
(376,224,l),
(523,0,l),
(726,0,l),
(482,350,l),
(726,700,l),
(523,700,l),
(376,476,l),
(219,700,l),
(16,700,l),
(269,350,l),
(16,0,l)
);
}
);
userData = {
com.hugojourdan.ColorFlow = {
"0" = 0;
"1" = 0;
"10" = 0;
"11" = 0;
"2" = 0;
"3" = 0;
"4" = 0;
"5" = 1;
"6" = 0;
"7" = 0;
"8" = 0;
"9" = 0;
};
com.hugojourdan.ColorFlow_Color_5 = "5";
};
width = 742;
},
{
associatedMasterId = m005;
layerId = "35BFCCC7-0127-485D-949D-7DB403A632BB";
shapes = (
{
closed = 1;
nodes = (
(153,0,l),
(345,266,l),
(536,0,l),
(665,0,l),
(411,350,l),
(665,700,l),
(536,700,l),
(345,434,l),
(153,700,l),
(24,700,l),
(280,350,l),
(24,0,l)
);
}
);
userData = {
com.hugojourdan.ColorFlow = {
"0" = 0;
"1" = 0;
"10" = 0;
"11" = 0;
"2" = 0;
"3" = 0;
"4" = 0;
"5" = 1;
"6" = 0;
"7" = 0;
"8" = 0;
"9" = 0;
};
com.hugojourdan.ColorFlow_Color_5 = "5";
};
width = 689;
},
{
associatedMasterId = m005;
layerId = "90AB47CF-B91A-4A16-8951-47B05D070D97";
shapes = (
{
closed = 1;
nodes = (
(139,0,l),
(294,260,l),
(445,0,l),
(568,0,l),
(359,350,l),
(568,700,l),
(445,700,l),
(294,440,l),
(139,700,l),
(16,700,l),
(228,350,l),
(16,0,l)
);
}
);
userData = {
com.hugojourdan.ColorFlow = {
"0" = 0;
"1" = 0;
"10" = 0;
"11" = 0;
"2" = 0;
"3" = 0;
"4" = 0;
"5" = 1;
"6" = 0;
"7" = 0;
"8" = 0;
"9" = 0;
};
com.hugojourdan.ColorFlow_Color_5 = "5";
};
width = 584.0234;
},
{
associatedMasterId = m005;
layerId = "8FA82795-75ED-4170-83DB-662671B1FD8E";
shapes = (
{
closed = 1;
nodes = (
(161,0,l),
(304,247,l),
(442,0,l),
(589,0,l),
(384,350,l),
(589,700,l),
(442,700,l),
(304,453,l),
(161,700,l),
(13,700,l),
(224,350,l),
(13,0,l)
);
}
);
userData = {
com.hugojourdan.ColorFlow = {
"0" = 0;
"1" = 0;
"10" = 0;
"11" = 0;
"2" = 0;
"3" = 0;
"4" = 0;
"5" = 1;
"6" = 0;
"7" = 0;
"8" = 0;
"9" = 0;
};
com.hugojourdan.ColorFlow_Color_5 = "5";
};
width = 602.37442;
},
{
layerId = "1458D1BF-5CC5-4794-B60B-1E4EBB5AAB71";
shapes = (
{
closed = 1;
nodes = (
(137,0,l),
(343,280,l),
(549,0,l),
(658,0,l),
(398,350,l),
(658,700,l),
(549,700,l),
(343,420,l),
(137,700,l),
(28,700,l),
(289,350,l),
(28,0,l)
);
}
);
userData = {
com.hugojourdan.ColorFlow = {
"0" = 0;
"1" = 0;
"10" = 0;
"11" = 0;
"2" = 0;
"3" = 0;
"4" = 0;
"5" = 1;
"6" = 0;
"7" = 0;
"8" = 0;
"9" = 0;
};
com.hugojourdan.ColorFlow_Color_5 = "5";
};
width = 686;
},
{
layerId = "14AD7677-08C4-410F-BB6E-8A8C56BA4A50";
shapes = (
{
closed = 1;
nodes = (
(124,0,l),
(266,271,l),
(405,0,l),
(505,0,l),
(320,350,l),
(505,700,l),
(405,700,l),
(266,429,l),
(124,700,l),
(24,700,l),
(212,350,l),
(24,0,l)
);
}
);
userData = {
com.hugojourdan.ColorFlow = {
"0" = 0;
"1" = 0;
"10" = 0;
"11" = 0;
"2" = 0;
"3" = 0;
"4" = 0;
"5" = 1;
"6" = 0;
"7" = 0;
"8" = 0;
"9" = 0;
};
com.hugojourdan.ColorFlow_Color_5 = "5";
};
width = 529;
}
);
unicode = 88;
userData = {
KernOnName = X;
};
},
{
color = 10;
glyphname = Y;
kernLeft = KO_Y;
kernRight = KO_Y;
lastChange = "2023-12-26 15:15:52 +0000";
layers = (
{
anchors = (
{
name = center;
pos = (241,0);
},
{
name = top;
pos = (242,700);
}
);
layerId = "6E968933-CD79-43C6-9231-80D77C940F4D";
shapes = (
{
closed = 1;
nodes = (
(252,0,l),
(252,303,l),
(461,700,l),
(436,700,l),
(241,327,l),
(46,700,l),
(21,700,l),
(230,303,l),
(230,0,l)
);
}
);
userData = {
com.hugojourdan.ColorFlow = {
"0" = 0;
"1" = 0;
"10" = 0;
"11" = 0;
"2" = 0;
"3" = 0;
"4" = 0;
"5" = 1;
"6" = 0;
"7" = 0;
"8" = 0;
"9" = 0;
};
com.hugojourdan.ColorFlow_Color_5 = "5";
};
width = 481;
},
{
anchors = (
{
name = center;
pos = (296,0);
},
{
name = top;
pos = (296,700);
}
);
layerId = "BAF31694-0472-4296-B0EA-1654553C45D2";
shapes = (
{
closed = 1;
nodes = (
(383,0,l),
(383,234,l),
(574,700,l),
(388,700,l),
(296,421,l),
(204,700,l),
(17,700,l),
(209,234,l),
(209,0,l)
);
}
);
userData = {
com.hugojourdan.ColorFlow = {
"0" = 0;
"1" = 0;
"10" = 0;
"11" = 0;
"2" = 0;
"3" = 0;
"4" = 0;
"5" = 1;
"6" = 0;
"7" = 0;
"8" = 0;
"9" = 0;
};
com.hugojourdan.ColorFlow_Color_5 = "5";
};
width = 590;
},
{
anchors = (
{
name = center;
pos = (321,0);
},
{
name = top;
pos = (322,700);
}
);
layerId = m005;
shapes = (
{
closed = 1;
nodes = (
(332,0,l),
(332,294,l),
(611,700,l),
(584,700,l),
(321,315,l),
(58,700,l),
(31,700,l),
(310,294,l),
(310,0,l)
);
}
);
userData = {
com.hugojourdan.ColorFlow = {
"0" = 0;
"1" = 0;
"10" = 0;
"11" = 0;
"2" = 0;
"3" = 0;
"4" = 0;
"5" = 1;
"6" = 0;
"7" = 0;
"8" = 0;
"9" = 0;
};
com.hugojourdan.ColorFlow_Color_5 = "5";
};
width = 641;
},
{
anchors = (
{
name = center;
pos = (368,0);
},
{
name = top;
pos = (367,700);
}
);
layerId = m008;
shapes = (
{
closed = 1;
nodes = (
(455,0,l),
(455,230,l),
(720,700,l),
(521,700,l),
(368,411,l),
(214,700,l),
(15,700,l),
(281,230,l),
(281,0,l)
);
}
);
userData = {
com.hugojourdan.ColorFlow = {
"0" = 0;
"1" = 0;
"10" = 0;
"11" = 0;
"2" = 0;
"3" = 0;
"4" = 0;
"5" = 1;
"6" = 0;
"7" = 0;
"8" = 0;
"9" = 0;
};
com.hugojourdan.ColorFlow_Color_5 = "5";
};
width = 734;
},
{
anchors = (
{
name = center;
pos = (340,0);
},
{
name = top;
pos = (339,700);
}
);
associatedMasterId = m005;
layerId = "35BFCCC7-0127-485D-949D-7DB403A632BB";
shapes = (
{
closed = 1;
nodes = (
(398,0,l),
(398,253,l),
(658,700,l),
(530,700,l),
(340,358,l),
(150,700,l),
(21,700,l),
(282,253,l),
(282,0,l)
);
}
);
userData = {
com.hugojourdan.ColorFlow = {
"0" = 0;
"1" = 0;
"10" = 0;
"11" = 0;
"2" = 0;
"3" = 0;
"4" = 0;
"5" = 1;
"6" = 0;
"7" = 0;
"8" = 0;
"9" = 0;
};
com.hugojourdan.ColorFlow_Color_5 = "5";
};
width = 679.07273;
},
{
anchors = (
{
name = center;
pos = (287,0);
},
{
name = top;
pos = (287,700);
}
);
associatedMasterId = m005;
layerId = "90AB47CF-B91A-4A16-8951-47B05D070D97";
shapes = (
{
closed = 1;
nodes = (
(345,0,l),
(345,256,l),
(561,700,l),
(436,700,l),
(287,369,l),
(138,700,l),
(12,700,l),
(229,256,l),
(229,0,l)
);
}
);
userData = {
com.hugojourdan.ColorFlow = {
"0" = 0;
"1" = 0;
"10" = 0;
"11" = 0;
"2" = 0;
"3" = 0;
"4" = 0;
"5" = 1;
"6" = 0;
"7" = 0;
"8" = 0;
"9" = 0;
};
com.hugojourdan.ColorFlow_Color_5 = "5";
};
width = 573.48443;
},
{
anchors = (
{
name = center;
pos = (297,0);
},
{
name = top;
pos = (296,700);
}
);
associatedMasterId = m005;
layerId = "8FA82795-75ED-4170-83DB-662671B1FD8E";
shapes = (
{
closed = 1;
nodes = (
(365,0,l),
(365,248,l),
(581.997,700,l),
(435,700,l),
(297,385,l),
(158,700,l),
(10,700,l),
(228,248,l),
(228,0,l)
);
}
);
userData = {
com.hugojourdan.ColorFlow = {
"0" = 0;
"1" = 0;
"10" = 0;
"11" = 0;
"2" = 0;
"3" = 0;
"4" = 0;
"5" = 1;
"6" = 0;
"7" = 0;
"8" = 0;
"9" = 0;
};
com.hugojourdan.ColorFlow_Color_5 = "5";
};
width = 592.31449;
},
{
anchors = (
{
name = center;
pos = (338,0);
},
{
name = top;
pos = (337,700);
}
);
layerId = "1458D1BF-5CC5-4794-B60B-1E4EBB5AAB71";
shapes = (
{
closed = 1;
nodes = (
(386,0,l),
(386,261,l),
(650,700,l),
(542,700,l),
(338,348,l),
(133,700,l),
(25,700,l),
(289,261,l),
(289,0,l)
);
}
);
userData = {
com.hugojourdan.ColorFlow = {
"0" = 0;
"1" = 0;
"10" = 0;
"11" = 0;
"2" = 0;
"3" = 0;
"4" = 0;
"5" = 1;
"6" = 0;
"7" = 0;
"8" = 0;
"9" = 0;
};
com.hugojourdan.ColorFlow_Color_5 = "5";
};
width = 675;
},
{
anchors = (
{
name = center;
pos = (261,0);
},
{
name = top;
pos = (262,700);
}
);
layerId = "14AD7677-08C4-410F-BB6E-8A8C56BA4A50";
shapes = (
{
closed = 1;
nodes = (
(310,0,l),
(310,267,l),
(500,700,l),
(398,700,l),
(261,365,l),
(124,700,l),
(22,700,l),
(212,267,l),
(212,0,l)
);
}
);
userData = {
com.hugojourdan.ColorFlow = {
"0" = 0;
"1" = 0;
"10" = 0;
"11" = 0;
"2" = 0;
"3" = 0;
"4" = 0;
"5" = 1;
"6" = 0;
"7" = 0;
"8" = 0;
"9" = 0;
};
com.hugojourdan.ColorFlow_Color_5 = "5";
};
width = 522;
}
);
unicode = 89;
userData = {
KernOnName = Y;
};
},
{
color = 10;
glyphname = Z;
kernLeft = KO_Z;
kernRight = KO_E;
lastChange = "2023-12-26 10:28:06 +0000";
layers = (
{
anchors = (
{
name = top;
pos = (202,700);
}
);
layerId = "6E968933-CD79-43C6-9231-80D77C940F4D";
shapes = (
{
closed = 1;
nodes = (
(376,0,l),
(376,20,l),
(51,20,l),
(369,679,l),
(369,700,l),
(35,700,l),
(35,680,l),
(345,680,l),
(27,20,l),
(27,0,l)
);
}
);
userData = {
com.hugojourdan.ColorFlow = {
"0" = 0;
"1" = 0;
"10" = 0;
"11" = 0;
"2" = 0;
"3" = 0;
"4" = 0;
"5" = 1;
"6" = 0;
"7" = 0;
"8" = 0;
"9" = 0;
};
com.hugojourdan.ColorFlow_Color_5 = "5";
};
width = 402;
},
{
anchors = (
{
name = top;
pos = (237,700);
}
);
layerId = "BAF31694-0472-4296-B0EA-1654553C45D2";
shapes = (
{
closed = 1;
nodes = (
(444,0,l),
(444,146,l),
(210,146,l),
(445,563,l),
(445,700,l),
(28,700,l),
(28,554,l),
(261,554,l),
(29,136,l),
(29,0,l)
);
}
);
userData = {
com.hugojourdan.ColorFlow = {
"0" = 0;
"1" = 0;
"10" = 0;
"11" = 0;
"2" = 0;
"3" = 0;
"4" = 0;
"5" = 1;
"6" = 0;
"7" = 0;
"8" = 0;
"9" = 0;
};
com.hugojourdan.ColorFlow_Color_5 = "5";
};
width = 473;
},
{
anchors = (
{
name = top;
pos = (278,700);
}
);
layerId = m005;
shapes = (
{
closed = 1;
nodes = (
(516,0,l),
(516,20,l),
(64,20,l),
(506,679,l),
(506,700,l),
(50,700,l),
(50,680,l),
(480,680,l),
(38,20,l),
(38,0,l)
);
}
);
userData = {
com.hugojourdan.ColorFlow = {
"0" = 0;
"1" = 0;
"10" = 0;
"11" = 0;
"2" = 0;
"3" = 0;
"4" = 0;
"5" = 1;
"6" = 0;
"7" = 0;
"8" = 0;
"9" = 0;
};
com.hugojourdan.ColorFlow_Color_5 = "5";
};
width = 554;
},
{
anchors = (
{
name = top;
pos = (303,700);
}
);
layerId = m008;
shapes = (
{
closed = 1;
nodes = (
(572,0,l),
(572,146,l),
(233,146,l),
(572,563,l),
(572,700,l),
(33,700,l),
(33,554,l),
(369,554,l),
(33,136,l),
(33,0,l)
);
}
);
userData = {
com.hugojourdan.ColorFlow = {
"0" = 0;
"1" = 0;
"10" = 0;
"11" = 0;
"2" = 0;
"3" = 0;
"4" = 0;
"5" = 1;
"6" = 0;
"7" = 0;
"8" = 0;
"9" = 0;
};
com.hugojourdan.ColorFlow_Color_5 = "5";
};
width = 605;
},
{
anchors = (
{
name = top;
pos = (290,700);
}
);
associatedMasterId = m005;
layerId = "35BFCCC7-0127-485D-949D-7DB403A632BB";
shapes = (
{
closed = 1;
nodes = (
(539,0,l),
(539,97,l),
(177,97,l),
(539,613,l),
(539,700,l),
(40,700,l),
(40,603,l),
(401,603,l),
(40,87,l),
(40,0,l)
);
}
);
userData = {
com.hugojourdan.ColorFlow = {
"0" = 0;
"1" = 0;
"10" = 0;
"11" = 0;
"2" = 0;
"3" = 0;
"4" = 0;
"5" = 1;
"6" = 0;
"7" = 0;
"8" = 0;
"9" = 0;
};
com.hugojourdan.ColorFlow_Color_5 = "5";
};
width = 578.98182;
},
{
anchors = (
{
name = top;
pos = (244,700);
}
);
associatedMasterId = m005;
layerId = "90AB47CF-B91A-4A16-8951-47B05D070D97";
shapes = (
{
closed = 1;
nodes = (
(456,0,l),
(456,97,l),
(160,97,l),
(456,613,l),
(456,700,l),
(30,700,l),
(30,603,l),
(326,603,l),
(30,87,l),
(30,0,l)
);
}
);
userData = {
com.hugojourdan.ColorFlow = {
"0" = 0;
"1" = 0;
"10" = 0;
"11" = 0;
"2" = 0;
"3" = 0;
"4" = 0;
"5" = 1;
"6" = 0;
"7" = 0;
"8" = 0;
"9" = 0;
};
com.hugojourdan.ColorFlow_Color_5 = "5";
};
width = 486.64032;
},
{
anchors = (
{
name = top;
pos = (248,700);
}
);
associatedMasterId = m005;
layerId = "8FA82795-75ED-4170-83DB-662671B1FD8E";
shapes = (
{
closed = 1;
nodes = (
(468,0,l),
(468,114,l),
(178,114,l),
(468,596,l),
(468,700,l),
(28,700,l),
(28,586,l),
(317,586,l),
(28,104,l),
(28,0,l)
);
}
);
userData = {
com.hugojourdan.ColorFlow = {
"0" = 0;
"1" = 0;
"10" = 0;
"11" = 0;
"2" = 0;
"3" = 0;
"4" = 0;
"5" = 1;
"6" = 0;
"7" = 0;
"8" = 0;
"9" = 0;
};
com.hugojourdan.ColorFlow_Color_5 = "5";
};
width = 496.35424;
},
{
anchors = (
{
name = top;
pos = (288,700);
}
);
layerId = "1458D1BF-5CC5-4794-B60B-1E4EBB5AAB71";
shapes = (
{
closed = 1;
nodes = (
(535,0,l),
(535,81,l),
(156,81,l),
(533,627,l),
(533,700,l),
(43,700,l),
(43,619,l),
(417,619,l),
(41,73,l),
(41,0,l)
);
}
);
userData = {
com.hugojourdan.ColorFlow = {
"0" = 0;
"1" = 0;
"10" = 0;
"11" = 0;
"2" = 0;
"3" = 0;
"4" = 0;
"5" = 1;
"6" = 0;
"7" = 0;
"8" = 0;
"9" = 0;
};
com.hugojourdan.ColorFlow_Color_5 = "5";
};
width = 576;
},
{
anchors = (
{
name = top;
pos = (220,700);
}
);
layerId = "14AD7677-08C4-410F-BB6E-8A8C56BA4A50";
shapes = (
{
closed = 1;
nodes = (
(405,0,l),
(405,81,l),
(138,81,l),
(404,627,l),
(404,700,l),
(35,700,l),
(35,619,l),
(299,619,l),
(34,73,l),
(34,0,l)
);
}
);
userData = {
com.hugojourdan.ColorFlow = {
"0" = 0;
"1" = 0;
"10" = 0;
"11" = 0;
"2" = 0;
"3" = 0;
"4" = 0;
"5" = 1;
"6" = 0;
"7" = 0;
"8" = 0;
"9" = 0;
};
com.hugojourdan.ColorFlow_Color_5 = "5";
};
width = 439;
}
);
unicode = 90;
},
{
glyphname = Saltillo;
lastChange = "2023-12-26 10:28:06 +0000";
layers = (
{
layerId = "6E968933-CD79-43C6-9231-80D77C940F4D";
shapes = (
{
closed = 1;
nodes = (
(79,278,l),
(85,700,l),
(57,700,l),
(57,278,l)
);
}
);
userData = {
com.hugojourdan.ColorFlow = {
"0" = 0;
"1" = 0;
"10" = 0;
"11" = 0;
"2" = 0;
"3" = 0;
"4" = 0;
"5" = 0;
"6" = 0;
"7" = 0;
"8" = 0;
"9" = 0;
};
};
width = 139;
},
{
layerId = "BAF31694-0472-4296-B0EA-1654553C45D2";
shapes = (
{
closed = 1;
nodes = (
(156,278,l),
(199,700,l),
(34,700,l),
(34,278,l)
);
}
);
userData = {
com.hugojourdan.ColorFlow = {
"0" = 0;
"1" = 0;
"10" = 0;
"11" = 0;
"2" = 0;
"3" = 0;
"4" = 0;
"5" = 0;
"6" = 0;
"7" = 0;
"8" = 0;
"9" = 0;
};
};
width = 220;
},
{
layerId = m005;
shapes = (
{
closed = 1;
nodes = (
(99,278,l),
(105.002,700,l),
(77.002,700,l),
(77.002,278,l)
);
}
);
userData = {
com.hugojourdan.ColorFlow = {
"0" = 0;
"1" = 0;
"10" = 0;
"11" = 0;
"2" = 0;
"3" = 0;
"4" = 0;
"5" = 0;
"6" = 0;
"7" = 0;
"8" = 0;
"9" = 0;
};
};
width = 179;
},
{
layerId = m008;
shapes = (
{
closed = 1;
nodes = (
(163,278,l),
(206,700,l),
(41,700,l),
(41,278,l)
);
}
);
userData = {
com.hugojourdan.ColorFlow = {
"0" = 0;
"1" = 0;
"10" = 0;
"11" = 0;
"2" = 0;
"3" = 0;
"4" = 0;
"5" = 0;
"6" = 0;
"7" = 0;
"8" = 0;
"9" = 0;
};
};
width = 232;
},
{
associatedMasterId = m005;
layerId = "35BFCCC7-0127-485D-949D-7DB403A632BB";
shapes = (
{
closed = 1;
nodes = (
(143,278,l),
(183,700,l),
(57,700,l),
(57,278,l)
);
}
);
userData = {
com.hugojourdan.ColorFlow = {
"0" = 0;
"1" = 0;
"10" = 0;
"11" = 0;
"2" = 0;
"3" = 0;
"4" = 0;
"5" = 0;
"6" = 0;
"7" = 0;
"8" = 0;
"9" = 0;
};
};
width = 226.21818;
},
{
associatedMasterId = m005;
layerId = "90AB47CF-B91A-4A16-8951-47B05D070D97";
shapes = (
{
closed = 1;
nodes = (
(132,278,l),
(172,700,l),
(46,700,l),
(46,278,l)
);
}
);
userData = {
com.hugojourdan.ColorFlow = {
"0" = 0;
"1" = 0;
"10" = 0;
"11" = 0;
"2" = 0;
"3" = 0;
"4" = 0;
"5" = 0;
"6" = 0;
"7" = 0;
"8" = 0;
"9" = 0;
};
};
width = 204.11179;
},
{
associatedMasterId = m005;
layerId = "8FA82795-75ED-4170-83DB-662671B1FD8E";
shapes = (
{
closed = 1;
nodes = (
(139,278,l),
(181,700,l),
(41,700,l),
(41,278,l)
);
}
);
userData = {
com.hugojourdan.ColorFlow = {
"0" = 0;
"1" = 0;
"10" = 0;
"11" = 0;
"2" = 0;
"3" = 0;
"4" = 0;
"5" = 0;
"6" = 0;
"7" = 0;
"8" = 0;
"9" = 0;
};
};
width = 207.47952;
},
{
layerId = "1458D1BF-5CC5-4794-B60B-1E4EBB5AAB71";
shapes = (
{
closed = 1;
nodes = (
(135,278,l),
(169,700,l),
(62,700,l),
(62,278,l)
);
}
);
userData = {
com.hugojourdan.ColorFlow = {
"0" = 0;
"1" = 0;
"10" = 0;
"11" = 0;
"2" = 0;
"3" = 0;
"4" = 0;
"5" = 0;
"6" = 0;
"7" = 0;
"8" = 0;
"9" = 0;
};
};
width = 218;
},
{
layerId = "14AD7677-08C4-410F-BB6E-8A8C56BA4A50";
shapes = (
{
closed = 1;
nodes = (
(123,278,l),
(157,700,l),
(50,700,l),
(50,278,l)
);
}
);
userData = {
com.hugojourdan.ColorFlow = {
"0" = 0;
"1" = 0;
"10" = 0;
"11" = 0;
"2" = 0;
"3" = 0;
"4" = 0;
"5" = 0;
"6" = 0;
"7" = 0;
"8" = 0;
"9" = 0;
};
};
width = 195;
}
);
unicode = 42891;
},
{
color = 10;
glyphname = a;
kernLeft = KO_a;
kernRight = KO_a;
lastChange = "2023-12-26 15:15:52 +0000";
layers = (
{
anchors = (
{
name = ogonek;
pos = (317,0);
},
{
name = top;
pos = (182,500);
}
);
layerId = "6E968933-CD79-43C6-9231-80D77C940F4D";
shapes = (
{
closed = 1;
nodes = (
(232,-7,o),
(285,54,o),
(295,125,c),
(295,0,l),
(317,0,l),
(317,349,ls),
(317,450,o),
(271,507,o),
(186,507,cs),
(117,507,o),
(66,467,o),
(52,387,c),
(72,383,l),
(82,451,o),
(125,487,o),
(187,487,cs),
(258,487,o),
(295,441,o),
(295,341,cs),
(295,295,l),
(202,280,ls),
(77,260,o),
(33,211,o),
(33,128,cs),
(33,41,o),
(77,-7,o),
(156,-7,cs)
);
},
{
closed = 1;
nodes = (
(92,13,o),
(55,55,o),
(55,129,cs),
(55,201,o),
(89,241,o),
(202,259,cs),
(295,274,l),
(295,231,ls),
(295,94,o),
(245,13,o),
(154,13,cs)
);
}
);
userData = {
com.hugojourdan.ColorFlow = {
"0" = 0;
"1" = 0;
"10" = 0;
"11" = 0;
"2" = 0;
"3" = 0;
"4" = 0;
"5" = 1;
"6" = 0;
"7" = 0;
"8" = 0;
"9" = 0;
};
com.hugojourdan.ColorFlow_Color_5 = "5";
};
width = 378;
},
{
anchors = (
{
name = ogonek;
pos = (366,0);
},
{
name = top;
pos = (195,500);
}
);
layerId = "BAF31694-0472-4296-B0EA-1654553C45D2";
shapes = (
{
closed = 1;
nodes = (
(175,-7,o),
(201,21,o),
(209,62,c),
(219,0,l),
(366,0,l),
(366,312,ls),
(366,433,o),
(317,507,o),
(208,507,cs),
(119,507,o),
(50,459,o),
(40,353,c),
(175,344,l),
(178,367,o),
(184,377,o),
(194,377,cs),
(206,377,o),
(209,362,o),
(209,337,cs),
(209,301,l),
(148,290,ls),
(53,273,o),
(16,219,o),
(16,136,cs),
(16,43,o),
(75,-7,o),
(127,-7,cs)
);
},
{
closed = 1;
nodes = (
(176,117,o),
(170,130,o),
(170,156,cs),
(170,179,o),
(184,196,o),
(198,203,cs),
(209,209,l),
(209,169,ls),
(209,135,o),
(201,117,o),
(191,117,cs)
);
}
);
userData = {
com.hugojourdan.ColorFlow = {
"0" = 0;
"1" = 0;
"10" = 0;
"11" = 0;
"2" = 0;
"3" = 0;
"4" = 0;
"5" = 1;
"6" = 0;
"7" = 0;
"8" = 0;
"9" = 0;
};
com.hugojourdan.ColorFlow_Color_5 = "5";
};
width = 398;
},
{
anchors = (
{
name = ogonek;
pos = (439,0);
},
{
name = top;
pos = (255,500);
}
);
layerId = m005;
shapes = (
{
closed = 1;
nodes = (
(321,-7,o),
(392,44,o),
(417,138,c),
(417,0,l),
(439,0,l),
(439,349,ls),
(439,450,o),
(374,507,o),
(257,507,cs),
(151,507,o),
(95,467,o),
(68,389,c),
(88,384,l),
(110,451,o),
(164,487,o),
(259,487,cs),
(363,487,o),
(417,440,o),
(417,341,cs),
(417,295,l),
(240,275,ls),
(106,260,o),
(45,211,o),
(45,128,cs),
(45,41,o),
(107,-7,o),
(216,-7,cs)
);
},
{
closed = 1;
nodes = (
(119,13,o),
(67,55,o),
(67,129,cs),
(67,201,o),
(116,242,o),
(239,255,cs),
(417,274,l),
(417,231,ls),
(417,94,o),
(339,13,o),
(213,13,cs)
);
}
);
userData = {
com.hugojourdan.ColorFlow = {
"0" = 0;
"1" = 0;
"10" = 0;
"11" = 0;
"2" = 0;
"3" = 0;
"4" = 0;
"5" = 1;
"6" = 0;
"7" = 0;
"8" = 0;
"9" = 0;
};
com.hugojourdan.ColorFlow_Color_5 = "5";
};
width = 518;
},
{
anchors = (
{
name = ogonek;
pos = (474,0);
},
{
name = top;
pos = (255,500);
}
);
layerId = m008;
shapes = (
{
closed = 1;
nodes = (
(243,-7,o),
(274,21,o),
(310,62,c),
(321,0,l),
(474,0,l),
(474,312,ls),
(474,433,o),
(399,507,o),
(259,507,cs),
(133,507,o),
(62,449,o),
(46,355,c),
(200,336,l),
(204,362,o),
(227,378,o),
(256,378,cs),
(298,378,o),
(310,353,o),
(310,330,cs),
(310,301,l),
(200,289,ls),
(73,275,o),
(17,219,o),
(17,136,cs),
(17,43,o),
(91,-7,o),
(178,-7,cs)
);
},
{
closed = 1;
nodes = (
(206,117,o),
(185,133,o),
(185,156,cs),
(185,179,o),
(202,197,o),
(232,200,cs),
(310,209,l),
(310,199,ls),
(310,145,o),
(281,117,o),
(241,117,cs)
);
}
);
userData = {
com.hugojourdan.ColorFlow = {
"0" = 0;
"1" = 0;
"10" = 0;
"11" = 0;
"2" = 0;
"3" = 0;
"4" = 0;
"5" = 1;
"6" = 0;
"7" = 0;
"8" = 0;
"9" = 0;
};
com.hugojourdan.ColorFlow_Color_5 = "5";
};
width = 513;
},
{
anchors = (
{
name = ogonek;
pos = (451,0);
},
{
name = top;
pos = (259,500);
}
);
associatedMasterId = m005;
layerId = "35BFCCC7-0127-485D-949D-7DB403A632BB";
shapes = (
{
closed = 1;
nodes = (
(274,-5,o),
(314,19,o),
(347,61,c),
(356,0,l),
(458,0,l),
(458,334,ls),
(458,435,o),
(393,507,o),
(263,507,cs),
(155,507,o),
(75,456,o),
(50,367,c),
(146,332,l),
(160,385,o),
(204,411,o),
(257,411,cs),
(319,411,o),
(347,379,o),
(347,346,cs),
(347,308,l),
(214,293,ls),
(94,279,o),
(31,220,o),
(31,135,cs),
(31,50,o),
(97,-5,o),
(201,-5,cs)
);
},
{
closed = 1;
nodes = (
(174,85,o),
(147,110,o),
(147,142,cs),
(147,174,o),
(174,198,o),
(224,205,cs),
(347,221,l),
(347,213,ls),
(347,131,o),
(301,85,o),
(217,85,cs)
);
}
);
userData = {
com.hugojourdan.ColorFlow = {
"0" = 0;
"1" = 0;
"10" = 0;
"11" = 0;
"2" = 0;
"3" = 0;
"4" = 0;
"5" = 1;
"6" = 0;
"7" = 0;
"8" = 0;
"9" = 0;
};
com.hugojourdan.ColorFlow_Color_5 = "5";
};
width = 515.89091;
},
{
anchors = (
{
name = ogonek;
pos = (383,0);
},
{
name = top;
pos = (216,500);
}
);
associatedMasterId = m005;
layerId = "90AB47CF-B91A-4A16-8951-47B05D070D97";
shapes = (
{
closed = 1;
nodes = (
(221,-5,o),
(252,19,o),
(276,61,c),
(285,0,l),
(387,0,l),
(387,334,ls),
(387,435,o),
(330,507,o),
(220,507,cs),
(129,507,o),
(64,456,o),
(41,367,c),
(136,332,l),
(146,385,o),
(176,411,o),
(214,411,cs),
(256,411,o),
(276,379,o),
(276,346,cs),
(276,308,l),
(193,296,ls),
(74,278,o),
(24,220,o),
(24,135,cs),
(24,50,o),
(81,-5,o),
(163,-5,cs)
);
},
{
closed = 1;
nodes = (
(158,85,o),
(137,110,o),
(137,142,cs),
(137,174,o),
(157,198,o),
(207,209,cs),
(276,221,l),
(276,189,ls),
(276,119,o),
(247,85,o),
(188,85,cs)
);
}
);
userData = {
com.hugojourdan.ColorFlow = {
"0" = 0;
"1" = 0;
"10" = 0;
"11" = 0;
"2" = 0;
"3" = 0;
"4" = 0;
"5" = 1;
"6" = 0;
"7" = 0;
"8" = 0;
"9" = 0;
};
com.hugojourdan.ColorFlow_Color_5 = "5";
};
width = 436.16111;
},
{
anchors = (
{
name = ogonek;
pos = (391,0);
},
{
name = top;
pos = (216,500);
}
);
associatedMasterId = m005;
layerId = "8FA82795-75ED-4170-83DB-662671B1FD8E";
shapes = (
{
closed = 1;
nodes = (
(213,-6,o),
(242,20,o),
(265,61,c),
(274,0,l),
(393,0,l),
(393,327,ls),
(393,434,o),
(333,507,o),
(219,507,cs),
(127,507,o),
(64,457,o),
(39,368,c),
(148,328,l),
(157,374,o),
(181,398,o),
(214,398,cs),
(248,398,o),
(265,369,o),
(265,341,cs),
(265,306,l),
(184,294,ls),
(68,277,o),
(19,220,o),
(19,135,cs),
(19,48,o),
(79,-6,o),
(156,-6,cs)
);
},
{
closed = 1;
nodes = (
(168,96,o),
(150,118,o),
(150,147,cs),
(150,176,o),
(167,197,o),
(208,207,cs),
(265,217,l),
(265,186,ls),
(265,125,o),
(241,96,o),
(195,96,cs)
);
}
);
userData = {
com.hugojourdan.ColorFlow = {
"0" = 0;
"1" = 0;
"10" = 0;
"11" = 0;
"2" = 0;
"3" = 0;
"4" = 0;
"5" = 1;
"6" = 0;
"7" = 0;
"8" = 0;
"9" = 0;
};
com.hugojourdan.ColorFlow_Color_5 = "5";
};
width = 436.23236;
},
{
anchors = (
{
name = ogonek;
pos = (452,0);
},
{
name = top;
pos = (256,500);
}
);
layerId = "1458D1BF-5CC5-4794-B60B-1E4EBB5AAB71";
shapes = (
{
closed = 1;
nodes = (
(282,-5,o),
(329,24,o),
(359,75,c),
(367,0,l),
(452,0,l),
(452,338,ls),
(452,438,o),
(388,507,o),
(260,507,cs),
(150,507,o),
(81,463,o),
(55,382,c),
(138,358,l),
(156,403,o),
(195,426,o),
(256,426,cs),
(328,426,o),
(359,392,o),
(359,346,cs),
(359,306,l),
(218,290,ls),
(96,276,o),
(33,218,o),
(33,134,cs),
(33,48,o),
(97,-5,o),
(203,-5,cs)
);
},
{
closed = 1;
nodes = (
(162,71,o),
(130,99,o),
(130,139,cs),
(130,179,o),
(161,206,o),
(225,214,cs),
(359,231,l),
(359,217,ls),
(359,123,o),
(307,71,o),
(214,71,cs)
);
}
);
userData = {
com.hugojourdan.ColorFlow = {
"0" = 0;
"1" = 0;
"10" = 0;
"11" = 0;
"2" = 0;
"3" = 0;
"4" = 0;
"5" = 1;
"6" = 0;
"7" = 0;
"8" = 0;
"9" = 0;
};
com.hugojourdan.ColorFlow_Color_5 = "5";
};
width = 514;
},
{
anchors = (
{
name = ogonek;
pos = (340,0);
},
{
name = top;
pos = (192,500);
}
);
layerId = "14AD7677-08C4-410F-BB6E-8A8C56BA4A50";
shapes = (
{
closed = 1;
nodes = (
(200,-5,o),
(230,25,o),
(247,73,c),
(253,0,l),
(340,0,l),
(340,338,ls),
(340,438,o),
(293,507,o),
(198,507,cs),
(123,507,o),
(61,462,o),
(48,380,c),
(132,364,l),
(139,405,o),
(163,426,o),
(194,426,cs),
(231,426,o),
(247,392,o),
(247,346,cs),
(247,306,l),
(189,296,ls),
(70,275,o),
(27,218,o),
(27,134,cs),
(27,48,o),
(76,-5,o),
(146,-5,cs)
);
},
{
closed = 1;
nodes = (
(141,71,o),
(120,99,o),
(120,139,cs),
(120,179,o),
(139,206,o),
(202,221,cs),
(247,231,l),
(247,184,ls),
(247,107,o),
(222,71,o),
(170,71,cs)
);
}
);
userData = {
com.hugojourdan.ColorFlow = {
"0" = 0;
"1" = 0;
"10" = 0;
"11" = 0;
"2" = 0;
"3" = 0;
"4" = 0;
"5" = 1;
"6" = 0;
"7" = 0;
"8" = 0;
"9" = 0;
};
com.hugojourdan.ColorFlow_Color_5 = "5";
};
width = 390;
}
);
unicode = 97;
userData = {
KernOnName = a;
};
},
{
color = 10;
glyphname = b;
kernLeft = KO_l;
kernRight = KO_p;
lastChange = "2023-12-26 10:28:06 +0000";
layers = (
{
layerId = "6E968933-CD79-43C6-9231-80D77C940F4D";
shapes = (
{
closed = 1;
nodes = (
(352,-7,o),
(398,93,o),
(398,250,cs),
(398,406,o),
(352,507,o),
(230,507,cs),
(151,507,o),
(110,464,o),
(88,402,c),
(88,720,l),
(66,720,l),
(66,0,l),
(88,0,l),
(88,97,l),
(111,36,o),
(156,-7,o),
(230,-7,cs)
);
},
{
closed = 1;
nodes = (
(125,13,o),
(86,110,o),
(86,250,cs),
(86,390,o),
(125,487,o),
(230,487,cs),
(335,487,o),
(376,395,o),
(376,250,cs),
(376,104,o),
(335,13,o),
(230,13,cs)
);
}
);
userData = {
com.hugojourdan.ColorFlow = {
"0" = 0;
"1" = 0;
"10" = 0;
"11" = 0;
"2" = 0;
"3" = 0;
"4" = 0;
"5" = 1;
"6" = 0;
"7" = 0;
"8" = 0;
"9" = 0;
};
com.hugojourdan.ColorFlow_Color_5 = "5";
};
width = 442;
},
{
layerId = "BAF31694-0472-4296-B0EA-1654553C45D2";
shapes = (
{
closed = 1;
nodes = (
(365,-7,o),
(412,92,o),
(412,250,cs),
(412,409,o),
(366,507,o),
(262,507,cs),
(230,507,o),
(212,498,o),
(201,484,c),
(201,720,l),
(37,720,l),
(37,0,l),
(185,0,l),
(191,47,l),
(199,16,o),
(223,-7,o),
(262,-7,cs)
);
},
{
closed = 1;
nodes = (
(197,146,o),
(193,172,o),
(193,250,cs),
(193,327,o),
(197,355,o),
(215,355,cs),
(234,355,o),
(237,323,o),
(237,250,cs),
(237,178,o),
(233,146,o),
(215,146,cs)
);
}
);
userData = {
com.hugojourdan.ColorFlow = {
"0" = 0;
"1" = 0;
"10" = 0;
"11" = 0;
"2" = 0;
"3" = 0;
"4" = 0;
"5" = 1;
"6" = 0;
"7" = 0;
"8" = 0;
"9" = 0;
};
com.hugojourdan.ColorFlow_Color_5 = "5";
};
width = 435;
},
{
layerId = m005;
shapes = (
{
closed = 1;
nodes = (
(456,-7,o),
(548,93,o),
(548,250,cs),
(548,406,o),
(456,507,o),
(315,507,cs),
(204,507,o),
(135,445,o),
(108,364,c),
(108,720,l),
(86,720,l),
(86,0,l),
(108,0,l),
(108,140,l),
(135,56,o),
(209,-7,o),
(315,-7,cs)
);
},
{
closed = 1;
nodes = (
(189,13,o),
(106,110,o),
(106,250,cs),
(106,390,o),
(188,487,o),
(315,487,cs),
(445,487,o),
(526,395,o),
(526,250,cs),
(526,104,o),
(445.006,13,o),
(315,13,cs)
);
}
);
userData = {
com.hugojourdan.ColorFlow = {
"0" = 0;
"1" = 0;
"10" = 0;
"11" = 0;
"2" = 0;
"3" = 0;
"4" = 0;
"5" = 1;
"6" = 0;
"7" = 0;
"8" = 0;
"9" = 0;
};
com.hugojourdan.ColorFlow_Color_5 = "5";
};
width = 601;
},
{
layerId = m008;
shapes = (
{
closed = 1;
nodes = (
(459,-7,o),
(551,92,o),
(551,250,cs),
(551,409,o),
(460,507,o),
(335,507,cs),
(283,507,o),
(241,488,o),
(211,460,c),
(211,720,l),
(47,720,l),
(47,0,l),
(195,0,l),
(203,54,l),
(229,20,o),
(281,-7,o),
(335,-7,cs)
);
},
{
closed = 1;
nodes = (
(242,146,o),
(204,182,o),
(204,250,cs),
(204,317,o),
(242,355,o),
(289,355,cs),
(340,355,o),
(374,313,o),
(374,250,cs),
(374,188,o),
(340,146,o),
(289,146,cs)
);
}
);
userData = {
com.hugojourdan.ColorFlow = {
"0" = 0;
"1" = 0;
"10" = 0;
"11" = 0;
"2" = 0;
"3" = 0;
"4" = 0;
"5" = 1;
"6" = 0;
"7" = 0;
"8" = 0;
"9" = 0;
};
com.hugojourdan.ColorFlow_Color_5 = "5";
};
width = 575;
},
{
associatedMasterId = m005;
layerId = "35BFCCC7-0127-485D-949D-7DB403A632BB";
shapes = (
{
closed = 1;
nodes = (
(463,-7,o),
(554,95,o),
(554,250,cs),
(554,404,o),
(464,507,o),
(330,507,cs),
(265,507,o),
(212,482,o),
(177,448,c),
(177,720,l),
(66,720,l),
(66,0,l),
(167,0,l),
(174,55,l),
(208,20,o),
(260,-7,o),
(330,-7,cs)
);
},
{
closed = 1;
nodes = (
(231,93,o),
(170,148,o),
(170,250,cs),
(170,351,o),
(231,407,o),
(303,407,cs),
(381,407,o),
(436,343,o),
(436,250,cs),
(436,156,o),
(382,93,o),
(303,93,cs)
);
}
);
userData = {
com.hugojourdan.ColorFlow = {
"0" = 0;
"1" = 0;
"10" = 0;
"11" = 0;
"2" = 0;
"3" = 0;
"4" = 0;
"5" = 1;
"6" = 0;
"7" = 0;
"8" = 0;
"9" = 0;
};
com.hugojourdan.ColorFlow_Color_5 = "5";
};
width = 591.38182;
},
{
associatedMasterId = m005;
layerId = "90AB47CF-B91A-4A16-8951-47B05D070D97";
shapes = (
{
closed = 1;
nodes = (
(404,-7,o),
(468,95,o),
(468,250,cs),
(468,404,o),
(404,507,o),
(283,507,cs),
(230,507,o),
(192,489,o),
(167,462,c),
(167,720,l),
(57,720,l),
(57,0,l),
(158,0,l),
(163,44,l),
(187,15,o),
(226,-7,o),
(283,-7,cs)
);
},
{
closed = 1;
nodes = (
(200,93,o),
(161,148,o),
(161,250,cs),
(161,351,o),
(200,407,o),
(256,407,cs),
(315,407,o),
(349,343,o),
(349,250,cs),
(349,156,o),
(316,93,o),
(256,93,cs)
);
}
);
userData = {
com.hugojourdan.ColorFlow = {
"0" = 0;
"1" = 0;
"10" = 0;
"11" = 0;
"2" = 0;
"3" = 0;
"4" = 0;
"5" = 1;
"6" = 0;
"7" = 0;
"8" = 0;
"9" = 0;
};
com.hugojourdan.ColorFlow_Color_5 = "5";
};
width = 499.65202;
},
{
associatedMasterId = m005;
layerId = "8FA82795-75ED-4170-83DB-662671B1FD8E";
shapes = (
{
closed = 1;
nodes = (
(403,-7,o),
(467,94,o),
(467,250,cs),
(467,406,o),
(404,507,o),
(286,507,cs),
(237,507,o),
(202,491,o),
(180,466,c),
(180,720,l),
(51,720,l),
(51,0,l),
(168,0,l),
(174,46,l),
(195,16,o),
(232,-7,o),
(286,-7,cs)
);
},
{
closed = 1;
nodes = (
(204,111,o),
(173,158,o),
(173,250,cs),
(173,341,o),
(204,389,o),
(252,389,cs),
(302,389,o),
(329,335,o),
(329,250,cs),
(329,165,o),
(302,111,o),
(252,111,cs)
);
}
);
userData = {
com.hugojourdan.ColorFlow = {
"0" = 0;
"1" = 0;
"10" = 0;
"11" = 0;
"2" = 0;
"3" = 0;
"4" = 0;
"5" = 1;
"6" = 0;
"7" = 0;
"8" = 0;
"9" = 0;
};
com.hugojourdan.ColorFlow_Color_5 = "5";
};
width = 495.14146;
},
{
layerId = "1458D1BF-5CC5-4794-B60B-1E4EBB5AAB71";
shapes = (
{
closed = 1;
nodes = (
(462,-7,o),
(553,95,o),
(553,250,cs),
(553,404,o),
(463,507,o),
(327,507,cs),
(253,507,o),
(197,475,o),
(163,433,c),
(163,720,l),
(70,720,l),
(70,0,l),
(155,0,l),
(161,71,l),
(194,27,o),
(250,-7,o),
(327,-7,cs)
);
},
{
closed = 1;
nodes = (
(223,77,o),
(157,140,o),
(157,250,cs),
(157,359,o),
(223,423,o),
(306,423,cs),
(394,423,o),
(454,353,o),
(454,250,cs),
(454,146,o),
(395,77,o),
(306,77,cs)
);
}
);
userData = {
com.hugojourdan.ColorFlow = {
"0" = 0;
"1" = 0;
"10" = 0;
"11" = 0;
"2" = 0;
"3" = 0;
"4" = 0;
"5" = 1;
"6" = 0;
"7" = 0;
"8" = 0;
"9" = 0;
};
com.hugojourdan.ColorFlow_Color_5 = "5";
};
width = 593;
},
{
layerId = "14AD7677-08C4-410F-BB6E-8A8C56BA4A50";
shapes = (
{
closed = 1;
nodes = (
(364,-7,o),
(410,95,o),
(410,250,cs),
(410,404,o),
(364,507,o),
(250,507,cs),
(197,507,o),
(166,488,o),
(148,458,c),
(148,720,l),
(56,720,l),
(56,0,l),
(140,0,l),
(144,48,l),
(163,16,o),
(195,-7,o),
(250,-7,cs)
);
},
{
closed = 1;
nodes = (
(170,77,o),
(142,140,o),
(142,250,cs),
(142,359,o),
(170,423,o),
(228,423,cs),
(286,423,o),
(310,353,o),
(310,250,cs),
(310,146,o),
(286,77,o),
(228,77,cs)
);
}
);
userData = {
com.hugojourdan.ColorFlow = {
"0" = 0;
"1" = 0;
"10" = 0;
"11" = 0;
"2" = 0;
"3" = 0;
"4" = 0;
"5" = 1;
"6" = 0;
"7" = 0;
"8" = 0;
"9" = 0;
};
com.hugojourdan.ColorFlow_Color_5 = "5";
};
width = 447;
}
);
unicode = 98;
},
{
color = 10;
glyphname = c;
kernLeft = KO_e;
kernRight = KO_c;
lastChange = "2023-12-26 15:15:52 +0000";
layers = (
{
anchors = (
{
name = _centercent;
pos = (213,250);
},
{
name = bottom;
pos = (216,0);
},
{
name = center;
pos = (213,250);
},
{
name = top;
pos = (214,500);
}
);
layerId = "6E968933-CD79-43C6-9231-80D77C940F4D";
shapes = (
{
closed = 1;
nodes = (
(296,-7,o),
(341,41,o),
(368,128,c),
(349,132,l),
(322,55,o),
(285,13,o),
(216,13,cs),
(108,13,o),
(66,105,o),
(66,249,cs),
(66,393,o),
(108,487,o),
(215,487,cs),
(286,487,o),
(328,441,o),
(348,366,c),
(367,372,l),
(346,456,o),
(297,507,o),
(215,507,cs),
(92,507,o),
(44,404,o),
(44,249,cs),
(44,94,o),
(92,-7,o),
(216,-7,cs)
);
}
);
userData = {
com.hugojourdan.ColorFlow = {
"0" = 0;
"1" = 0;
"10" = 0;
"11" = 0;
"2" = 0;
"3" = 0;
"4" = 0;
"5" = 1;
"6" = 0;
"7" = 0;
"8" = 0;
"9" = 0;
};
com.hugojourdan.ColorFlow_Color_5 = "5";
};
width = 395;
},
{
anchors = (
{
name = _centercent;
pos = (207,250);
},
{
name = bottom;
pos = (209,0);
},
{
name = center;
pos = (207,250);
},
{
name = top;
pos = (204,500);
}
);
layerId = "BAF31694-0472-4296-B0EA-1654553C45D2";
shapes = (
{
closed = 1;
nodes = (
(319,-5,o),
(391,71,o),
(392,188,c),
(244,198,l),
(242,163,o),
(237,142,o),
(221,142,cs),
(198,142,o),
(195,186,o),
(195,249,cs),
(195,312,o),
(199,358,o),
(222,358,cs),
(239,358,o),
(243,337,o),
(244,302,c),
(394,312,l),
(386,431,o),
(313,507,o),
(206,507,cs),
(86,507,o),
(21,402,o),
(21,249,cs),
(21,95,o),
(87,-9,o),
(209,-7,cs)
);
}
);
userData = {
com.hugojourdan.ColorFlow = {
"0" = 0;
"1" = 0;
"10" = 0;
"11" = 0;
"2" = 0;
"3" = 0;
"4" = 0;
"5" = 1;
"6" = 0;
"7" = 0;
"8" = 0;
"9" = 0;
};
com.hugojourdan.ColorFlow_Color_5 = "5";
};
width = 411;
},
{
anchors = (
{
name = _centercent;
pos = (292,250);
},
{
name = bottom;
pos = (291,0);
},
{
name = center;
pos = (292,250);
},
{
name = top;
pos = (288,500);
}
);
layerId = m005;
shapes = (
{
closed = 1;
nodes = (
(390,-7,o),
(465,41,o),
(503,128,c),
(483,133,l),
(447,55,o),
(380,13,o),
(291,13,cs),
(159,13,o),
(75,105,o),
(75,249,cs),
(75,393,o),
(160,487,o),
(290,487,cs),
(382,487,o),
(455,440,o),
(482,365,c),
(501,371,l),
(471,455,o),
(391,507,o),
(290,507,cs),
(147,507,o),
(53,404,o),
(53,249,cs),
(53,94,o),
(147,-7,o),
(291,-7,cs)
);
}
);
userData = {
com.hugojourdan.ColorFlow = {
"0" = 0;
"1" = 0;
"10" = 0;
"11" = 0;
"2" = 0;
"3" = 0;
"4" = 0;
"5" = 1;
"6" = 0;
"7" = 0;
"8" = 0;
"9" = 0;
};
com.hugojourdan.ColorFlow_Color_5 = "5";
};
width = 542;
},
{
anchors = (
{
name = _centercent;
pos = (275,250);
},
{
name = bottom;
pos = (272,0);
},
{
name = center;
pos = (275,250);
},
{
name = top;
pos = (265,500);
}
);
layerId = m008;
shapes = (
{
closed = 1;
nodes = (
(397,-5,o),
(496,68,o),
(516,180,c),
(357,200,l),
(342,163,o),
(316,142,o),
(282,142,cs),
(232,142,o),
(196,186,o),
(196,249,cs),
(196,312,o),
(233,358,o),
(283,358,cs),
(317,358,o),
(344,336,o),
(355,301,c),
(515,320,l),
(491,435,o),
(396,507,o),
(271,507,cs),
(123,507,o),
(22,402,o),
(22,249,cs),
(22,95,o),
(124,-9,o),
(272,-7,cs)
);
}
);
userData = {
com.hugojourdan.ColorFlow = {
"0" = 0;
"1" = 0;
"10" = 0;
"11" = 0;
"2" = 0;
"3" = 0;
"4" = 0;
"5" = 1;
"6" = 0;
"7" = 0;
"8" = 0;
"9" = 0;
};
com.hugojourdan.ColorFlow_Color_5 = "5";
};
width = 533;
},
{
anchors = (
{
name = _centercent;
pos = (279,250);
},
{
name = bottom;
pos = (273,5);
},
{
name = center;
pos = (279,250);
},
{
name = top;
pos = (273,500);
}
);
associatedMasterId = m005;
layerId = "35BFCCC7-0127-485D-949D-7DB403A632BB";
shapes = (
{
closed = 1;
nodes = (
(380,-7,o),
(468,45,o),
(505,125,c),
(407,159,l),
(386,118,o),
(341,92,o),
(287,92,cs),
(205,92,o),
(154,152,o),
(154,249,cs),
(154,346,o),
(205,408,o),
(286,408,cs),
(339,408,o),
(386,380,o),
(403,339,c),
(503,373,l),
(469,456,o),
(384,507,o),
(282,507,cs),
(136,507,o),
(35,401,o),
(35,248,cs),
(35,97,o),
(135,-7,o),
(279,-7,cs)
);
}
);
userData = {
com.hugojourdan.ColorFlow = {
"0" = 0;
"1" = 0;
"10" = 0;
"11" = 0;
"2" = 0;
"3" = 0;
"4" = 0;
"5" = 1;
"6" = 0;
"7" = 0;
"8" = 0;
"9" = 0;
};
com.hugojourdan.ColorFlow_Color_5 = "5";
};
width = 528.85455;
},
{
anchors = (
{
name = _centercent;
pos = (234,250);
},
{
name = bottom;
pos = (230,5);
},
{
name = center;
pos = (234,250);
},
{
name = top;
pos = (230,500);
}
);
associatedMasterId = m005;
layerId = "90AB47CF-B91A-4A16-8951-47B05D070D97";
shapes = (
{
closed = 1;
nodes = (
(328,-7,o),
(397,45,o),
(426,125,c),
(327,159,l),
(311,118,o),
(287,92,o),
(242,92,cs),
(175,92,o),
(149,152,o),
(149,249,cs),
(149,346,o),
(175,408,o),
(242,408,cs),
(286,408,o),
(312,380,o),
(325,339,c),
(425,373,l),
(397,456,o),
(330,507,o),
(236,507,cs),
(102,507,o),
(31,401,o),
(31,248,cs),
(31,97,o),
(102,-7,o),
(235,-7,cs)
);
}
);
userData = {
com.hugojourdan.ColorFlow = {
"0" = 0;
"1" = 0;
"10" = 0;
"11" = 0;
"2" = 0;
"3" = 0;
"4" = 0;
"5" = 1;
"6" = 0;
"7" = 0;
"8" = 0;
"9" = 0;
};
com.hugojourdan.ColorFlow_Color_5 = "5";
};
width = 442.52475;
},
{
anchors = (
{
name = _centercent;
pos = (233,250);
},
{
name = bottom;
pos = (228,7);
},
{
name = center;
pos = (233,250);
},
{
name = top;
pos = (228,500);
}
);
associatedMasterId = m005;
layerId = "8FA82795-75ED-4170-83DB-662671B1FD8E";
shapes = (
{
closed = 1;
nodes = (
(330,-6,o),
(401,49,o),
(428,136,c),
(312,170,l),
(299,132,o),
(278,109,o),
(241,109,cs),
(185,109,o),
(163,164,o),
(163,249,cs),
(163,334,o),
(186,391,o),
(241,391,cs),
(278,391,o),
(300,366,o),
(310,328,c),
(427,362,l),
(399,452,o),
(331,507,o),
(233,507,cs),
(100,507,o),
(26,401,o),
(26,248,cs),
(26,96,o),
(100,-8,o),
(233,-7,cs)
);
}
);
userData = {
com.hugojourdan.ColorFlow = {
"0" = 0;
"1" = 0;
"10" = 0;
"11" = 0;
"2" = 0;
"3" = 0;
"4" = 0;
"5" = 1;
"6" = 0;
"7" = 0;
"8" = 0;
"9" = 0;
};
com.hugojourdan.ColorFlow_Color_5 = "5";
};
width = 442.26873;
},
{
anchors = (
{
name = _centercent;
pos = (281,250);
},
{
name = bottom;
pos = (281,0);
},
{
name = center;
pos = (281,250);
},
{
name = top;
pos = (276,500);
}
);
layerId = "1458D1BF-5CC5-4794-B60B-1E4EBB5AAB71";
shapes = (
{
closed = 1;
nodes = (
(392,-7,o),
(478,45,o),
(508,131,c),
(423,153,l),
(399,105,o),
(349,76,o),
(288,76,cs),
(196,76,o),
(138,143,o),
(138,249,cs),
(138,355,o),
(196,424,o),
(287,424,cs),
(348,424,o),
(400,393,o),
(419,345,c),
(505,367,l),
(480,453,o),
(394,507,o),
(283,507,cs),
(139,507,o),
(39,402,o),
(39,248,cs),
(39,96,o),
(137,-7,o),
(281,-7,cs)
);
}
);
userData = {
com.hugojourdan.ColorFlow = {
"0" = 0;
"1" = 0;
"10" = 0;
"11" = 0;
"2" = 0;
"3" = 0;
"4" = 0;
"5" = 1;
"6" = 0;
"7" = 0;
"8" = 0;
"9" = 0;
};
com.hugojourdan.ColorFlow_Color_5 = "5";
};
width = 536;
},
{
anchors = (
{
name = _centercent;
pos = (210,250);
},
{
name = bottom;
pos = (211,0);
},
{
name = center;
pos = (210,250);
},
{
name = top;
pos = (208,500);
}
);
layerId = "14AD7677-08C4-410F-BB6E-8A8C56BA4A50";
shapes = (
{
closed = 1;
nodes = (
(304,-7,o),
(358,43,o),
(377,125,c),
(291,144,l),
(278,101,o),
(262,76,o),
(217,76,cs),
(149,76,o),
(134,143,o),
(134,249,cs),
(134,355,o),
(149,424,o),
(217,424,cs),
(261,424,o),
(279,397,o),
(289,354,c),
(376,373,l),
(358,456,o),
(305,507,o),
(212,507,cs),
(87,507,o),
(35,402,o),
(35,248,cs),
(35,96,o),
(87,-7,o),
(211,-7,cs)
);
}
);
userData = {
com.hugojourdan.ColorFlow = {
"0" = 0;
"1" = 0;
"10" = 0;
"11" = 0;
"2" = 0;
"3" = 0;
"4" = 0;
"5" = 1;
"6" = 0;
"7" = 0;
"8" = 0;
"9" = 0;
};
com.hugojourdan.ColorFlow_Color_5 = "5";
};
width = 400;
}
);
unicode = 99;
userData = {
KernOnName = c;
};
},
